<?xml version="1.0" encoding="UTF-8" standalone="no"?>
<svg
   xmlns:dc="http://purl.org/dc/elements/1.1/"
   xmlns:cc="http://creativecommons.org/ns#"
   xmlns:rdf="http://www.w3.org/1999/02/22-rdf-syntax-ns#"
   xmlns:svg="http://www.w3.org/2000/svg"
   xmlns="http://www.w3.org/2000/svg"
   xmlns:sodipodi="http://sodipodi.sourceforge.net/DTD/sodipodi-0.dtd"
   xmlns:inkscape="http://www.inkscape.org/namespaces/inkscape"
   width="61.703381mm"
   height="56.356297mm"
   viewBox="0 0 61.703381 56.356297"
   version="1.1"
   id="svg8"
   inkscape:version="1.0.1 (3bc2e813f5, 2020-09-07)"
   sodipodi:docname="blood_splash.svg">
  <defs
     id="defs2" />
  <sodipodi:namedview
     id="base"
     pagecolor="#ffffff"
     bordercolor="#666666"
     borderopacity="1.0"
     inkscape:pageopacity="0.0"
     inkscape:pageshadow="2"
     inkscape:zoom="0.98994949"
     inkscape:cx="100.44176"
     inkscape:cy="348.71578"
     inkscape:document-units="mm"
     inkscape:current-layer="layer1"
     inkscape:document-rotation="0"
     showgrid="false"
     fit-margin-top="0"
     fit-margin-left="0"
     fit-margin-right="0"
     fit-margin-bottom="0"
     inkscape:window-width="1920"
     inkscape:window-height="1017"
     inkscape:window-x="-8"
     inkscape:window-y="-8"
     inkscape:window-maximized="1" />
  <metadata
     id="metadata5">
    <rdf:RDF>
      <cc:Work
         rdf:about="">
        <dc:format>image/svg+xml</dc:format>
        <dc:type
           rdf:resource="http://purl.org/dc/dcmitype/StillImage" />
        <dc:title></dc:title>
      </cc:Work>
    </rdf:RDF>
  </metadata>
  <g
     inkscape:label="Capa 1"
     inkscape:groupmode="layer"
     id="layer1"
     transform="translate(-89.44425,-68.343795)">
    <path
       style="fill:#9f0000;fill-opacity:1;stroke-width:0.264583"
       d="m 104.27241,124.17093 c 0.26338,-0.29105 0.52415,-0.52917 0.57948,-0.52917 0.0553,0 -0.0268,0.23812 -0.18261,0.52917 -0.15576,0.29104 -0.41653,0.52916 -0.57948,0.52916 -0.16296,0 -0.0808,-0.23812 0.18261,-0.52916 z m 9.17487,-4.40985 c 0.12873,-0.66378 0.74701,-0.75492 0.74701,-0.11012 0,0.325 -0.17084,0.55121 -0.41628,0.55121 -0.24639,0 -0.38136,-0.18001 -0.33073,-0.44109 z m 7.47963,-0.64029 c -0.27266,-0.44117 0.34058,-0.94708 0.70557,-0.58208 0.30531,0.3053 0.11423,0.86971 -0.29444,0.86971 -0.12835,0 -0.31335,-0.12943 -0.41113,-0.28763 z m -10.74912,-0.4114 c 0.13372,-0.23895 0.18698,-0.64919 0.11835,-0.91164 -0.0907,-0.34696 0.016,-0.46658 0.39112,-0.43832 0.51129,0.0385 0.5113,0.0467 0.001,0.91164 -0.51316,0.86973 -0.9727,1.26436 -0.51043,0.43832 z m -1.13989,-0.45901 c 0.25011,-0.38172 0.50477,-0.69404 0.56592,-0.69404 0.19139,0 -0.42463,1.0197 -0.73007,1.20847 -0.15983,0.0988 -0.086,-0.13271 0.16415,-0.51443 z m 15.93816,-0.31753 c -0.10914,-0.11006 -0.19844,-0.6015 -0.19844,-1.09208 0,-0.81089 -0.0648,-0.88504 -0.71236,-0.8158 l -0.71237,0.0762 -0.0152,-4.03485 c -0.008,-2.21916 0.0741,-4.03486 0.1832,-4.03489 0.10914,-3e-5 0.21295,0.86315 0.23069,1.91818 0.0807,4.79825 0.18726,5.40096 0.9064,5.125 0.25088,-0.0963 0.40668,0.20166 0.52779,1.00923 0.19173,1.27857 0.0925,2.15379 -0.20967,1.84905 z m 2.50196,-0.97221 c -0.31803,-0.38321 -0.14258,-1.44464 0.32307,-1.9545 0.21563,-0.23609 0.39507,-0.21149 0.74684,0.1024 0.37519,0.33478 0.45802,0.34263 0.43665,0.0414 -0.0824,-1.16147 -0.4286,-1.69946 -1.17605,-1.82755 -0.65463,-0.11218 -0.79545,-0.27383 -0.86486,-0.99274 -0.11096,-1.14927 0.6874,-1.20969 0.91548,-0.0693 0.21123,1.05613 0.64294,0.74532 0.46767,-0.33669 l -0.13762,-0.84964 0.42213,0.91704 c 0.25341,0.55051 0.44407,1.76662 0.47702,3.0427 0.0544,2.1056 0.0484,2.12643 -0.62921,2.2052 -0.37626,0.0437 -0.81776,-0.0815 -0.98112,-0.27835 z m -16.9879,-0.18243 c 0,-0.13694 0.1177,-0.32171 0.26155,-0.41062 0.14998,-0.0927 0.19434,0.0135 0.10399,0.24897 -0.1759,0.45837 -0.36554,0.54223 -0.36554,0.16165 z m 32.54375,-0.69912 c 0,-0.23041 0.14138,-0.3718 0.31419,-0.3142 0.4906,0.16353 0.57197,0.73312 0.10473,0.73312 -0.23041,0 -0.41892,-0.18852 -0.41892,-0.41892 z m -22.40325,-1.96739 c 0.0939,-1.4574 0.0288,-2.12542 -0.24365,-2.49796 -0.20452,-0.2797 -0.37185,-0.72391 -0.37185,-0.98714 0,-0.26322 -0.14883,-0.48041 -0.33073,-0.48264 -0.22931,-0.003 -0.2413,-0.0637 -0.0391,-0.19844 0.16039,-0.10691 0.50088,-0.63982 0.75664,-1.18424 0.25577,-0.54442 0.5628,-0.92943 0.68229,-0.85558 0.21211,0.13109 0.66232,-0.35842 0.47876,-0.52055 -0.051,-0.045 -0.37229,-0.1679 -0.71408,-0.2731 -0.55222,-0.16998 -0.60063,-0.12575 -0.43467,0.39714 0.12691,0.39986 0.0929,0.5304 -0.10617,0.40738 -0.16111,-0.0996 -0.29293,-0.0666 -0.29293,0.0733 0,0.38791 -1.56913,0.84994 -2.28032,0.67145 -0.37988,-0.0954 -0.6301,-0.0417 -0.6301,0.13512 0,0.1613 -0.25086,0.29326 -0.55747,0.29326 -0.38683,0 -0.51086,-0.12148 -0.40518,-0.39687 0.0957,-0.24939 -0.003,-0.39688 -0.26496,-0.39688 -0.32538,0 -0.37494,-0.1602 -0.22509,-0.7276 0.36327,-1.37545 0.31238,-1.52725 -0.48085,-1.43427 -0.68713,0.0805 -0.71769,0.0467 -0.40689,-0.45098 1.08703,-1.74062 -2.00811,0.41197 -3.80193,2.64414 -0.45395,0.56488 -1.0275,1.02705 -1.27456,1.02705 -0.24706,0 -0.75193,0.23812 -1.12193,0.52916 -0.85023,0.66879 -1.32447,0.68346 -0.52473,0.0162 0.4537,-0.37852 0.55793,-0.67425 0.44197,-1.25405 -0.20282,-1.01407 0.62455,-1.81133 1.62036,-1.56139 0.57334,0.1439 0.87709,-0.0102 1.75954,-0.89265 0.66189,-0.66189 1.00849,-1.21793 0.91349,-1.46548 -0.0885,-0.23074 -0.007,-0.39891 0.19449,-0.39891 0.19116,0 0.53348,-0.20836 0.76071,-0.46303 0.33752,-0.37825 0.35019,-0.52065 0.0692,-0.77784 -0.18917,-0.17316 -0.41617,-0.24261 -0.50443,-0.15434 -0.0883,0.0883 -0.16049,0.0145 -0.16049,-0.16381 0,-0.17837 -0.11906,-0.25071 -0.26458,-0.16078 -0.14552,0.0899 -0.26458,0.0304 -0.26458,-0.13229 0,-0.1627 -0.10553,-0.23059 -0.23451,-0.15088 -0.12897,0.0797 -0.30041,-0.10711 -0.38096,-0.41515 -0.12027,-0.45989 -0.27946,-0.52985 -0.88998,-0.39111 -2.20849,0.50187 -2.12082,0.49833 -1.53726,0.0621 0.43914,-0.3283 0.47612,-0.4826 0.2174,-0.90693 -0.21703,-0.35595 -0.22765,-0.59545 -0.035,-0.788155 0.19269,-0.19269 0.10653,-0.38315 -0.28355,-0.62676 -0.3082,-0.19247 -0.56513,-0.5892 -0.57095,-0.88162 -0.009,-0.44339 -0.078,-0.40738 -0.41626,0.21681 -0.25016,0.46153 -0.55039,0.69294 -0.78317,0.60361 -0.21303,-0.0818 -0.37749,0.0121 -0.37749,0.2154 0,0.19814 -0.18833,0.43253 -0.41851,0.52086 -0.64558,0.247735 -0.82475,0.175175 -0.30909,-0.12518 0.25466,-0.14832 0.46302,-0.37778 0.46302,-0.5099 0,-0.25934 -4.02382,-0.15878 -4.46113,0.11149 -0.14564,0.09 -0.33268,0.0538 -0.41564,-0.0804 -0.083,-0.13424 -0.41861,-0.18752 -0.74589,-0.11841 -0.5243,0.11072 -0.54,0.0905 -0.13203,-0.17028 0.53774,-0.34368 0.5805,-0.78067 0.16551,-1.69145 -0.19491,-0.42778 -0.43799,-0.59907 -0.70486,-0.49666 -0.27359,0.10499 -0.34235,0.0511 -0.20939,-0.16399 0.10888,-0.17617 0.41605,-0.25109 0.6826,-0.16649 0.26655,0.0846 0.56121,0.0299 0.6548,-0.12153 0.0936,-0.15144 0.0441,-0.27535 -0.11002,-0.27535 -0.15411,0 -0.2802,-0.10647 -0.2802,-0.23659 0,-0.36031 1.29872,-0.20698 1.44378,0.17045 0.0699,0.1819 0.30944,0.33072 0.53229,0.33072 0.22285,0 0.40518,0.11907 0.40518,0.26459 0,0.42119 0.68215,0.30748 1.33714,-0.2229 l 0.60202,-0.48748 -1.0024,-0.16267 c -0.55131,-0.0895 -1.22199,-0.36141 -1.4904,-0.60431 -0.37255,-0.33715 -0.83132,-0.41317 -1.93911,-0.3213 -0.7981,0.0662 -1.390144,0.0217 -1.31564,-0.0988 0.0745,-0.12054 0.72374,-0.21917 1.44276,-0.21917 1.33068,0 1.75907,-0.34931 0.75151,-0.61279 -0.30604,-0.08 -0.47736,-0.27224 -0.38126,-0.42773 0.30303,-0.49032 -0.28284,-0.30561 -0.78274,0.24677 -0.62867,0.69467 -0.78574,0.66742 -0.83266,-0.14449 -0.0292,-0.50479 0.0765,-0.65373 0.42238,-0.59514 0.2537,0.043 0.66488,-0.0908 0.91372,-0.29736 0.36986,-0.30695 0.43766,-0.30982 0.37138,-0.0157 -0.13378,0.5937 0.68635,0.57796 1.05859,-0.0203 0.40247,-0.64685 0.0313,-1.30825 -0.73418,-1.30825 -0.25067,0 -0.65424,-0.21931 -0.89682,-0.48736 -0.42395,-0.46846 -0.37188,-0.48961 1.34193,-0.54509 1.87912,-0.0608 2.26622,-0.18221 1.69906,-0.53273 -0.25116,-0.15522 -0.17971,-0.25682 0.26181,-0.37228 l 0.60724,-0.1588 -0.58487,-0.62257 c -0.58941,-0.62739 -0.81137,-2.04367 -0.32029,-2.04367 0.5019,0 0.26317,-1.04047 -0.30899,-1.34668 l -0.57357,-0.30697 0.60256,-0.32247 c 0.54474,-0.29154 0.703,-0.21854 1.64931,0.76067 0.8242,0.85287 1.01113,0.95659 0.87922,0.48785 -0.13983,-0.4969 -0.064,-0.59532 0.45885,-0.59532 0.88107,0 1.30424,-0.48386 0.96974,-1.10886 -0.35739,-0.6678 -0.0433,-1.62056 0.46947,-1.42381 0.21703,0.0833 0.49005,0.15142 0.60669,0.15142 0.11665,0 0.27436,0.23813 0.35047,0.52917 0.22103,0.84521 1.01692,0.67457 0.92554,-0.19844 -0.0679,-0.64898 0.01,-0.7276 0.71759,-0.7276 0.74514,0 0.79045,0.0584 0.73993,0.95407 -0.043,0.76219 0.0717,1.02124 0.57008,1.28798 0.34315,0.18365 0.74357,0.25994 0.88984,0.16955 0.46179,-0.28541 1.10728,0.13595 1.11149,0.72556 0.003,0.46307 0.0511,0.49425 0.26053,0.17013 0.14107,-0.21828 0.25831,-0.66476 0.26053,-0.99219 0.003,-0.48149 0.15283,-0.59531 0.78219,-0.59531 1.04477,0 1.27542,-0.46566 0.39623,-0.79993 -0.50358,-0.19146 -0.81543,-0.18191 -1.07426,0.0329 -0.29091,0.24144 -0.36469,0.1859 -0.36469,-0.27451 0,-0.31745 0.11906,-0.50359 0.26459,-0.41366 0.14552,0.0899 0.26458,-0.0221 0.26458,-0.24897 0,-0.2361 0.22628,-0.41249 0.52917,-0.41249 0.89315,0 0.58785,-0.68691 -0.52917,-1.19062 -0.58208,-0.26248 -1.05833,-0.56849 -1.05833,-0.68 0,-1.06113 1.41139,-1.48231 1.71904,-0.51299 0.0919,0.28974 0.0881,0.65484 -0.009,0.81135 -0.18657,0.30188 0.67032,1.07467 0.97964,0.8835 0.10027,-0.062 0.25898,0.12891 0.3527,0.42418 0.0937,0.29527 0.27951,0.46941 0.41289,0.38698 0.13338,-0.0824 0.1751,0.0258 0.0927,0.24045 -0.0881,0.22949 0.069,0.50742 0.38124,0.67452 0.49592,0.2654 0.51567,0.23065 0.29874,-0.52572 -0.29527,-1.02958 -1.63225,-3.15794 -1.88543,-3.00147 -0.36095,0.22308 -1.57427,-1.69333 -1.71644,-2.7111 -0.0781,-0.55923 -0.36968,-1.57367 -0.6479,-2.25432 -0.55035,-1.34634 -0.45179,-2.06976 0.28195,-2.06976 0.25765,0 0.61668,-0.17859 0.79784,-0.39687 0.46108,-0.55558 0.71507,-0.49833 1.22206,0.27542 0.35619,0.54362 0.38264,0.79928 0.13822,1.33573 -0.32277,0.7084 0.007,1.63947 1.05838,2.98859 0.28263,0.36266 0.49176,1.05926 0.49176,1.63803 0,1.20557 0.29857,1.46703 0.90724,0.79445 0.42356,-0.46802 0.4041,-0.67973 -0.34603,-3.76407 -0.43716,-1.79748 -0.86871,-3.7444 -0.95901,-4.32648 -0.15379,-0.99138 -0.13803,-1.02585 0.2491,-0.54475 0.2273,0.28248 0.41328,0.7866 0.41328,1.12027 0,0.92167 1.33606,7.05701 1.60848,7.38632 0.13146,0.15891 0.16067,0.36727 0.0649,0.46302 -0.0957,0.0958 0.004,0.17409 0.22105,0.17409 0.28856,0 0.36372,0.21413 0.27865,0.79375 -0.0884,0.60212 -0.0134,0.79375 0.31041,0.79375 0.2348,0 0.42691,-0.21163 0.42691,-0.47029 0,-0.25866 0.19329,-0.74627 0.42955,-1.08357 0.32626,-0.46581 0.61573,-0.58595 1.20385,-0.49963 0.76598,0.11242 1.43963,-0.4791 1.87986,-1.65067 0.0975,-0.25941 0.15636,-0.18613 0.17001,0.21157 0.0115,0.33465 0.19905,0.95297 0.4168,1.37405 0.24971,0.4829 0.29856,0.82576 0.13229,0.92852 -0.37754,0.23333 -0.32515,1.26932 0.0931,1.84133 0.19931,0.27257 0.49333,0.40345 0.66625,0.29658 0.22166,-0.13699 0.15284,-0.41131 -0.24246,-0.96646 -0.30359,-0.42635 -0.42481,-0.77518 -0.26937,-0.77518 0.15543,0 0.2826,-0.14995 0.2826,-0.33323 0,-0.18327 0.23812,-0.48194 0.52916,-0.6637 0.29104,-0.18176 0.53671,-0.53782 0.54594,-0.79125 0.0124,-0.33932 0.082,-0.29802 0.26425,0.1567 0.13612,0.33961 0.38509,0.5716 0.55328,0.51554 0.54609,-0.18203 0.72983,-1.16381 0.35354,-1.8891 -0.38259,-0.73745 -0.059,-1.26348 0.33938,-0.55165 0.20347,0.36357 0.29978,0.32709 0.68382,-0.25902 0.56994,-0.86984 1.75771,-0.95722 1.75771,-0.1293 0,0.30409 -0.25707,0.76106 -0.57127,1.01548 -0.7239,0.58618 -0.44419,1.21472 0.35115,0.78907 0.68013,-0.36399 1.09119,-0.002 0.97012,0.85318 -0.057,0.40309 -0.29136,0.65473 -0.65841,0.70704 -0.47158,0.0672 -0.58894,0.29537 -0.68045,1.32292 -0.13361,1.50042 0.003,1.98149 0.50801,1.78774 0.28043,-0.10762 0.33616,-0.008 0.21261,0.38167 -0.2336,0.73601 0.13452,0.64597 1.01032,-0.24711 0.73955,-0.75413 0.61188,-1.2995 -0.22871,-0.97693 -0.45009,0.17271 -0.48114,-0.0757 -0.12617,-1.00936 0.19849,-0.52207 0.44272,-0.67869 1.05833,-0.67869 0.89447,0 0.9271,0.0576 0.49722,0.87729 l -0.30308,0.57792 0.61253,-0.52916 c 0.42958,-0.37112 0.57046,-0.41064 0.47168,-0.1323 -0.46605,1.31324 -0.52053,1.64499 -0.24181,1.47273 0.16111,-0.0996 0.29293,-0.34842 0.29293,-0.55299 0,-0.20457 0.23689,-0.49873 0.52643,-0.65369 0.69883,-0.374 1.48787,-1.85355 0.98849,-1.85355 -0.19291,0 -0.49363,0.14288 -0.66825,0.3175 -0.24695,0.24695 -0.3175,0.10343 -0.3175,-0.64584 0,-1.09705 0.0538,-1.14969 1.50985,-1.47684 l 1.06686,-0.2397 -0.0344,1.08859 c -0.0391,1.23852 -0.33083,1.84306 -0.80218,1.66219 -0.53694,-0.20604 -0.98212,0.81917 -0.79314,1.82653 0.13995,0.74604 0.2423,0.86322 0.5389,0.61706 0.20138,-0.16712 0.36614,-0.46513 0.36614,-0.66224 0,-0.49687 1.28721,-1.30587 1.59232,-1.00076 0.14659,0.14659 -0.18724,0.89575 -0.84547,1.89738 -0.59824,0.91033 -1.01787,1.72498 -0.93251,1.81033 0.0854,0.0854 0.54824,-0.12468 1.02863,-0.46674 0.63973,-0.45554 1.243,-0.6253 2.25466,-0.63448 1.29168,-0.0117 1.35444,0.0171 0.96796,0.44411 -0.57106,0.63102 -0.28273,0.94968 0.7514,0.83045 l 0.87155,-0.10048 -0.63542,0.47533 c -1.5643,1.17016 -3.92979,3.9358 -3.6261,4.23949 0.0913,0.0913 0.41394,-0.1 0.7169,-0.42518 0.67533,-0.72488 1.59705,-0.64622 1.95372,0.16674 0.26699,0.60857 0.66486,0.80649 0.66486,0.33073 0,-0.4131 0.9746,-0.31051 1.43631,0.15119 0.63617,0.63617 0.51823,1.40051 -0.24569,1.59225 -0.85823,0.2154 -2.05978,-0.0845 -1.82977,-0.45662 0.11507,-0.18619 -0.0112,-0.22568 -0.36378,-0.11378 -0.29702,0.0943 -0.61662,0.0475 -0.71021,-0.10394 -0.32422,-0.52461 -0.93269,-0.2871 -0.93269,0.36406 0,0.35168 -0.14883,0.70548 -0.33073,0.78623 -0.1819,0.0807 0.20505,0.0839 0.85989,0.007 0.65485,-0.0768 1.66688,-0.038 2.24896,0.0862 l 1.05833,0.22589 -1.25677,0.35258 c -0.69122,0.19392 -1.25677,0.3821 -1.25677,0.41818 0,0.0361 0.18166,0.50037 0.4037,1.03177 0.39668,0.94939 0.43001,0.96642 1.91823,0.98009 3.12127,0.0287 3.85297,0.10873 3.96157,0.43346 0.0608,0.1819 0.5174,0.33073 1.01459,0.33073 0.4972,0 0.904,0.12953 0.904,0.28784 0,0.18923 -0.36259,0.22658 -1.05834,0.10904 -1.01749,-0.17191 -1.05833,-0.15125 -1.05833,0.53535 0,0.65977 -0.0655,0.70286 -0.8599,0.56578 -3.68416,-0.63573 -3.96884,-0.56116 -3.65809,0.95826 0.15863,0.77558 0.27168,0.84569 1.81316,1.12446 0.90419,0.16352 1.73385,0.39383 1.84368,0.51178 0.10983,0.117955 -0.33609,0.114395 -0.99093,-0.008 -0.65485,-0.12231 -2.09431,-0.22818 -3.19881,-0.23526 -2.19995,-0.0141 -2.92257,-0.34741 -2.68907,-1.24031 0.17052,-0.65203 -0.42527,-1.1169 -0.91284,-0.71226 -0.18489,0.15345 -0.63536,0.2039 -1.00106,0.11212 -0.36569,-0.0918 -0.66489,-0.055 -0.66489,0.0817 0,0.13673 0.36559,0.3289 0.81241,0.42704 0.47399,0.1041 0.7618,0.31036 0.6909,0.49512 -0.0668,0.17418 0.0356,0.53164 0.22774,0.79435 0.54823,0.749745 0.22004,1.211435 -0.67805,0.953865 -0.56274,-0.16139 -0.84831,-0.11281 -1.09678,0.18657 -0.27927,0.3365 -0.23623,0.48551 0.25513,0.88339 0.32508,0.26323 1.15466,0.68536 1.8435,0.93807 1.53486,0.56306 2.13276,1.05546 1.74836,1.43986 -0.34853,0.34854 -1.15738,0.0532 -1.15738,-0.42266 0,-0.19759 -0.21494,-0.47428 -0.47764,-0.61488 -0.58978,-0.31564 -2.7341,-0.0773 -3.09423,0.34386 -0.44493,0.52037 -1.90369,1.47314 -2.04269,1.33415 -0.072,-0.072 -0.27458,0.0423 -0.45024,0.25395 -0.25806,0.31095 -0.21451,0.44093 0.22688,0.67716 0.61056,0.32675 1.74112,-0.0851 1.46409,-0.5333 -0.0854,-0.13822 -0.0811,-0.25131 0.01,-0.25131 0.27383,0 1.59152,1.67742 1.51308,1.92616 -0.0401,0.12722 0.0396,0.63889 0.17714,1.13703 0.23994,0.86901 0.2288,0.89081 -0.2749,0.53801 -0.28874,-0.20224 -0.7523,-0.30826 -1.03014,-0.2356 -0.77194,0.20186 -2.86728,-0.76175 -2.95649,-1.35965 -0.0418,-0.28011 -0.24379,-0.56463 -0.44888,-0.63227 -0.26194,-0.0864 -0.32089,0.0126 -0.19811,0.33252 0.0961,0.25052 0.25057,1.1002 0.34318,1.88819 0.14329,1.2192 0.10381,1.43269 -0.26492,1.43269 -0.23833,-2e-5 -0.43332,-0.0905 -0.43332,-0.20101 0,-0.11055 -0.38695,-0.19984 -0.85989,-0.19844 -0.80184,0.002 -0.85728,-0.0554 -0.82109,-0.85552 0.0362,-0.80049 -0.008,-0.84664 -0.66145,-0.68767 -0.38515,0.0937 -0.79549,0.33102 -0.91186,0.52734 -0.11637,0.19633 -0.44379,0.35695 -0.72761,0.35695 -0.28381,0 -0.51601,0.1786 -0.51601,0.39688 0,0.21828 -0.18467,0.39687 -0.41038,0.39687 -0.47314,0 -1.18105,-1.53027 -1.37698,-2.97656 -0.077,-0.56884 -0.28118,-0.99219 -0.47839,-0.99219 -0.36431,0 -0.36819,0.96459 -0.006,1.55024 0.14268,0.23086 0.0651,0.31079 -0.24605,0.25339 -0.72476,-0.1337 -1.09688,0.68503 -0.74049,1.62922 0.16619,0.44027 0.19343,0.80048 0.0605,0.80048 -0.13288,0 -0.2416,0.28916 -0.2416,0.64256 0,0.71209 -0.62525,1.47411 -1.20952,1.47411 -0.28683,0 -0.37895,0.39877 -0.38203,1.65365 -0.002,0.9095 -0.13071,1.83224 -0.28552,2.05052 -0.20502,0.28909 -0.24665,-0.1434 -0.15326,-1.59256 z m 12.1704,-7.57737 c 0.2003,-0.2003 -0.30051,-0.88424 -0.64746,-0.88424 -0.12771,0 -0.23219,0.23813 -0.23219,0.52917 0,0.50844 0.51742,0.7173 0.87965,0.35507 z m -21.46069,-6.02425 c 0.24992,-0.37581 -0.62955,-0.685905 -1.03292,-0.3642 -0.45132,0.35995 -0.12972,1.00663 0.40304,0.81045 0.24262,-0.0893 0.52606,-0.29015 0.62988,-0.44625 z m 24.62645,-1.209995 c 0.10329,-0.39498 0.008,-0.52917 -0.37532,-0.52917 -0.43172,0 -0.46851,0.0845 -0.23051,0.52917 0.15576,0.29104 0.32466,0.52917 0.37533,0.52917 0.0507,0 0.15439,-0.23813 0.2305,-0.52917 z m 9.34238,-3.10457 c -0.0653,-0.0653 -0.38158,-0.0353 -0.70281,0.0666 -0.44415,0.14097 -0.49859,0.2382 -0.22725,0.4059 0.34082,0.21064 1.18456,-0.21803 0.93006,-0.47253 z m -3.1407,0.0343 c -0.0879,-0.0879 -0.31612,-0.0973 -0.50712,-0.0209 -0.21106,0.0845 -0.14837,0.14715 0.15986,0.15985 0.27891,0.0115 0.43518,-0.0511 0.34726,-0.13897 z m -34.98564,-0.6339 c 0.0899,-0.14552 0.0445,-0.26458 -0.10106,-0.26458 -0.14552,0 -0.33817,0.11906 -0.4281,0.26458 -0.0899,0.14553 -0.0445,0.26459 0.10106,0.26459 0.14552,0 0.33817,-0.11906 0.4281,-0.26459 z m 1.7198,-0.64584 c 0,-0.0642 -0.11906,-0.19026 -0.26458,-0.2802 -0.14553,-0.0899 -0.26459,-0.0374 -0.26459,0.11668 0,0.15411 0.11906,0.2802 0.26459,0.2802 0.14552,0 0.26458,-0.0525 0.26458,-0.11668 z m -0.64589,-8.22611 c -0.28247,-0.21366 -0.69919,-0.38468 -0.92604,-0.38005 -0.32974,0.007 -0.30946,0.0863 0.10114,0.39688 0.28247,0.21365 0.69919,0.38467 0.92605,0.38004 0.32974,-0.007 0.30945,-0.0863 -0.10115,-0.39687 z m 29.55023,-1.3145 c -0.12506,-0.6542 -0.34868,-0.81851 -0.67281,-0.49438 -0.20334,0.20334 0.27517,1.15583 0.58067,1.15583 0.12022,0 0.16168,-0.29765 0.0921,-0.66145 z m -27.78282,-0.77327 c -0.085,-0.13747 -0.24463,-0.0197 -0.35482,0.26166 -0.32447,0.82857 -0.26495,1.04712 0.13588,0.49895 0.20537,-0.28087 0.3039,-0.62315 0.21894,-0.76061 z m 25.01478,-0.11274 c 0.0616,-0.18473 -0.14302,-0.27971 -0.51554,-0.23931 -0.65388,0.0709 -1.06181,0.43786 -0.85634,0.77031 0.16649,0.26939 1.24412,-0.14771 1.37188,-0.531 z m 0.58662,-0.81817 c 0,-0.13693 -0.11907,-0.32255 -0.26459,-0.41249 -0.14552,-0.0899 -0.26458,0.0221 -0.26458,0.24897 0,0.22687 0.11906,0.41249 0.26458,0.41249 0.14552,0 0.26459,-0.11204 0.26459,-0.24897 z m -18.38855,-0.54478 c -0.0899,-0.14552 -0.28258,-0.26459 -0.4281,-0.26459 -0.14552,0 -0.191,0.11907 -0.10106,0.26459 0.0899,0.14552 0.28258,0.26458 0.4281,0.26458 0.14552,0 0.191,-0.11906 0.10106,-0.26458 z m 5.15938,-0.92604 c 0,-0.21829 -0.10633,-0.39688 -0.23628,-0.39688 -0.12995,0 -0.30481,0.17859 -0.38857,0.39688 -0.0928,0.24175 -5.3e-4,0.39687 0.23628,0.39687 0.21371,0 0.38857,-0.17859 0.38857,-0.39687 z m -1.08857,-0.41557 c -0.42459,-0.26241 -0.61786,-0.12321 -0.37485,0.26999 0.0974,0.15757 0.30061,0.21014 0.45161,0.11682 0.17777,-0.10987 0.15071,-0.24622 -0.0768,-0.38681 z m -1.14951,-0.2635 c 0.28476,-0.46075 -0.0396,-0.55833 -0.40245,-0.12108 -0.20869,0.25146 -0.22876,0.40327 -0.0533,0.40327 0.15475,0 0.35985,-0.12698 0.45577,-0.28219 z m 9.60984,-4.08343 c -0.0238,-0.50674 -0.0303,-0.50754 -0.15495,-0.0187 -0.0716,0.28075 -0.29589,0.67621 -0.49847,0.8788 -0.20259,0.20259 -0.36569,0.50866 -0.36246,0.68017 0.003,0.17151 0.23872,0.0142 0.52329,-0.34963 0.28457,-0.3638 0.50623,-0.89958 0.49259,-1.19062 z m -17.37205,37.250995 c -0.027,-0.80412 0.14866,-1.19987 0.8858,-1.99526 0.97883,-1.05618 1.36226,-1.27626 0.95469,-0.54799 -0.1849,0.3304 -0.10353,0.56355 0.31759,0.91 0.53046,0.43642 0.54061,0.5127 0.16095,1.20944 -0.27587,0.50626 -0.65567,0.77239 -1.18977,0.83367 -0.4315,0.0495 -0.85452,0.20324 -0.94004,0.34162 -0.0855,0.13838 -0.17067,-0.19979 -0.18922,-0.75148 z m 27.66661,-0.14318 c -0.26871,-0.20838 -0.45871,-0.83735 -0.51359,-1.70021 -0.0842,-1.32339 -0.0615,-1.3746 0.67357,-1.52136 1.43624,-0.28675 1.99527,-0.1671 2.44808,0.52398 0.50547,0.77144 0.54696,2.09112 0.0833,2.64978 -0.38709,0.46642 -2.11204,0.49706 -2.69137,0.0478 z m -2.69773,-1.16872 c -0.0931,-0.24262 -0.0662,-0.54418 0.0597,-0.67014 0.35842,-0.35841 1.11125,0.0551 1.11125,0.6104 0,0.63116 -0.93344,0.67878 -1.17099,0.0597 z m -25.09617,-0.51424 c -0.40706,-0.40706 -0.18754,-1.16131 0.338,-1.16131 0.29104,0 0.52916,0.0963 0.52916,0.21401 0,0.4013 -0.67537,1.13909 -0.86716,0.9473 z m 2.45466,-0.35195 c 0,-0.13693 0.1177,-0.32171 0.26156,-0.41061 0.14998,-0.0927 0.19433,0.0135 0.10398,0.24896 -0.17589,0.45837 -0.36554,0.54224 -0.36554,0.16165 z m 31.17126,-0.21243 c -0.76558,-0.8913 -0.8102,-1.25291 -0.0665,-0.5388 0.41219,0.39577 0.68557,0.78345 0.60751,0.86151 -0.0781,0.0781 -0.32153,-0.0671 -0.54104,-0.32271 z m -43.60388,-0.19669 c -0.50492,-0.60839 -0.12107,-1.19399 0.78265,-1.19399 0.62087,0 0.80205,0.11743 0.80205,0.51986 0,0.28592 -0.2303,0.64311 -0.51177,0.79375 -0.65682,0.35151 -0.68449,0.34843 -1.07293,-0.11962 z m 3.52972,-1.06885 c -0.17436,-0.45438 0.28009,-0.90744 0.91765,-0.91484 0.52504,-0.006 0.26319,1.16532 -0.28378,1.26957 -0.2551,0.0486 -0.54034,-0.11101 -0.63387,-0.35473 z m 18.4279,-0.008 c 0,-0.22687 0.12101,-0.3377 0.2689,-0.2463 0.14789,0.0914 0.2004,0.27703 0.11668,0.41249 -0.22681,0.36699 -0.38558,0.29856 -0.38558,-0.16619 z m -12.24487,-0.31511 c -0.0579,-0.10914 0.0343,-0.4642 0.20486,-0.78902 0.27781,-0.52904 0.36299,-0.55142 0.81726,-0.2148 0.49852,0.36941 0.49814,0.38266 -0.022,0.78061 -0.59632,0.45619 -0.84682,0.51211 -1.00008,0.22321 z m 33.32335,0.022 c -0.36448,-0.36448 -0.1683,-1.14646 0.28663,-1.14248 0.72482,0.006 1.21732,0.43071 1.03904,0.89529 -0.16272,0.42405 -0.99385,0.57902 -1.32567,0.24719 z m -18.8954,-0.94926 c 0.15477,-0.46484 0.89834,-0.55817 1.06141,-0.13323 0.0885,0.23053 -0.0926,0.37353 -0.51753,0.40869 -0.42051,0.0348 -0.61447,-0.0634 -0.54388,-0.27546 z m 17.53025,0.0703 c -0.0927,-0.14999 0.0135,-0.19434 0.24897,-0.10399 0.45837,0.17589 0.54224,0.36554 0.16165,0.36554 -0.13693,0 -0.32171,-0.1177 -0.41062,-0.26155 z m -51.860208,-0.26761 c 0.08994,-0.14552 0.282584,-0.26458 0.428105,-0.26458 0.14552,0 0.190998,0.11906 0.101061,0.26458 -0.08994,0.14552 -0.282584,0.26458 -0.428104,0.26458 -0.145521,0 -0.190999,-0.11906 -0.101062,-0.26458 z m 11.778008,-0.7276 c 0.007,-0.33446 0.36285,-0.71072 1.02572,-1.08405 0.5993,-0.33752 0.62407,-0.32348 0.46663,0.26458 -0.0914,0.34157 -0.16788,0.71033 -0.16987,0.81947 -0.002,0.10914 -0.30127,0.19843 -0.66507,0.19843 -0.3638,0 -0.65964,-0.0893 -0.65741,-0.19843 z m 35.97929,-1.53523 c 0,-0.66047 0.0396,-0.6858 0.54671,-0.34913 0.74471,0.49447 0.76366,0.87516 0.0486,0.97672 -0.49085,0.0697 -0.59531,-0.0404 -0.59531,-0.62759 z m 7.85482,0.50446 c -0.34505,-0.34505 -0.18031,-0.62288 0.36931,-0.62288 0.30791,0 0.50499,0.13869 0.44648,0.31419 -0.12888,0.38665 -0.57067,0.55381 -0.81579,0.30869 z m -47.27774,-0.32745 c 0,-0.14552 0.11906,-0.33816 0.26458,-0.4281 0.14552,-0.0899 0.26458,-0.0445 0.26458,0.10106 0,0.14552 -0.11906,0.33817 -0.26458,0.42811 -0.14552,0.0899 -0.26458,0.0445 -0.26458,-0.10107 z m 38.1,-0.0156 c 0,-0.13693 0.11906,-0.32255 0.26459,-0.41249 0.14552,-0.0899 0.26458,0.0221 0.26458,0.24897 0,0.22687 -0.11906,0.41249 -0.26458,0.41249 -0.14553,0 -0.26459,-0.11203 -0.26459,-0.24897 z m -37.90598,-1.10678 c 0.17948,-0.18082 0.39297,-0.26212 0.47444,-0.18065 0.0815,0.0815 -0.0654,0.2294 -0.32632,0.32876 -0.37709,0.14359 -0.40748,0.1132 -0.14812,-0.14811 z m 2.45181,-0.23175 c 0,-0.14552 0.12609,-0.26459 0.2802,-0.26459 0.15411,0 0.20661,0.11907 0.11668,0.26459 -0.0899,0.14552 -0.21603,0.26458 -0.2802,0.26458 -0.0642,0 -0.11668,-0.11906 -0.11668,-0.26458 z m 6.06167,-0.2202 c 0.3035,-0.56709 0.7659,-0.95501 1.41369,-1.18597 0.43576,-0.15536 0.4375,-0.12509 0.0287,0.49884 -0.65915,1.00599 -1.93944,1.6159 -1.44237,0.68713 z m -13.470003,-0.0244 c 0,-0.12539 0.178593,-0.29651 0.396875,-0.38027 0.218281,-0.0838 0.396875,-0.0497 0.396875,0.0757 0,0.12538 -0.178594,0.2965 -0.396875,0.38027 -0.218282,0.0838 -0.396875,0.0497 -0.396875,-0.0757 z m 9.525003,-0.005 c 0,-0.29334 1.03832,-0.91737 1.22154,-0.73414 0.0648,0.0648 -0.18348,0.31535 -0.55183,0.5567 -0.36834,0.24136 -0.66971,0.32121 -0.66971,0.17745 z m -1.01904,-0.55138 c -0.577,-0.48075 -0.5866,-0.52951 -0.13229,-0.67197 0.26943,-0.0845 0.69823,-0.26498 0.95289,-0.40111 0.5027,-0.26873 0.59068,-0.0606 0.22109,0.52313 -0.14228,0.2247 -0.41976,0.29793 -0.70872,0.18705 -0.4469,-0.17149 -0.44606,-0.15037 0.0143,0.35832 0.61382,0.67827 0.46368,0.68025 -0.34727,0.005 z m 4.05353,-0.006 c -0.25141,-0.40679 0.093,-0.66926 0.43256,-0.32967 0.19002,0.19002 0.19458,0.33801 0.0139,0.4497 -0.14814,0.0916 -0.34903,0.0375 -0.44643,-0.12003 z m -16.925118,-0.78045 c -0.08994,-0.14552 -0.03743,-0.26459 0.116676,-0.26459 0.154109,0 0.280199,0.11907 0.280199,0.26459 0,0.14552 -0.0525,0.26458 -0.116677,0.26458 -0.06417,0 -0.190261,-0.11906 -0.280198,-0.26458 z m 45.606878,-0.44019 c -0.32927,-0.39916 -0.30762,-0.41062 0.23219,-0.12299 0.61567,0.32806 0.76727,0.56318 0.36312,0.56318 -0.1277,0 -0.39559,-0.19809 -0.59531,-0.44019 z m -28.26357,-0.20549 c -0.17396,-0.20961 -0.27783,-0.65609 -0.23084,-0.99219 0.0655,-0.46824 -0.0571,-0.6313 -0.52443,-0.69755 -0.33543,-0.0476 -0.75215,0.0136 -0.92604,0.13585 -0.17389,0.12227 -0.93556,0.16117 -1.6926,0.0865 l -1.37644,-0.13585 0.53907,-0.66146 0.53907,-0.66146 -0.13634,0.61936 c -0.12387,0.56274 -0.0715,0.60105 0.57279,0.41905 0.39001,-0.11016 0.97272,-0.19338 1.2949,-0.18492 0.32219,0.008 0.56031,-0.12058 0.52917,-0.28676 -0.0311,-0.16618 0.18151,-0.30214 0.47255,-0.30214 0.29104,0 0.4994,0.14882 0.46302,0.33073 -0.0364,0.1819 0.11245,0.33072 0.33073,0.33072 0.21828,0 0.39688,0.1786 0.39688,0.39688 0,0.44931 0.41432,0.53217 0.66146,0.13229 0.28585,-0.46252 0.64591,-0.28637 0.81825,0.40031 0.29544,1.17712 -0.98543,1.96928 -1.7312,1.07068 z m -15.623517,-1.77284 c 0,-0.12256 0.215385,-0.35734 0.478634,-0.52174 0.334703,-0.20903 0.445152,-0.52704 0.367292,-1.05753 -0.131779,-0.897875 0.451208,-1.246535 1.378124,-0.824205 0.876881,0.399535 1.083242,0.10427 1.083242,-1.5499 0,-1.39114 0.03601,-1.47319 0.618676,-1.4098 0.861882,0.0938 0.918194,0.19581 0.957002,1.73433 0.02765,1.09626 -0.05675,1.38693 -0.431156,1.484845 -0.256046,0.067 -0.532052,0.3313 -0.613347,0.58744 -0.260808,0.82173 -1.090741,1.34503 -2.481994,1.56495 -0.74606,0.11794 -1.356473,0.11416 -1.356473,-0.008 z m 3.155451,-1.1298 c 0.211802,-0.25521 0.222052,-0.42757 0.0324,-0.54478 -0.369453,-0.22834 -0.806598,0.0626 -0.806598,0.53684 0,0.48579 0.374428,0.48963 0.774201,0.008 z m 14.307056,1.19538 c 0,-0.30858 0.77279,-0.60166 1.08221,-0.41043 0.46632,0.2882 0.23308,0.6467 -0.42075,0.6467 -0.36381,0 -0.66146,-0.10632 -0.66146,-0.23627 z m -20.687116,-0.20905 c 0.190996,-0.0764 0.419199,-0.067 0.507118,0.0209 0.08792,0.0879 -0.06835,0.15046 -0.347265,0.13897 -0.308225,-0.0127 -0.37092,-0.0754 -0.159853,-0.15985 z m 12.154296,0.006 c 0.1819,-0.0734 0.47956,-0.0734 0.66146,0 0.1819,0.0734 0.0331,0.13345 -0.33073,0.13345 -0.3638,0 -0.51263,-0.0601 -0.33073,-0.13345 z m 39.09219,-0.0893 c -0.0899,-0.14552 0.0816,-0.26458 0.38126,-0.26458 0.29963,0 0.54479,0.11906 0.54479,0.26458 0,0.14553 -0.17157,0.26459 -0.38126,0.26459 -0.2097,0 -0.45485,-0.11906 -0.54479,-0.26459 z m -37.4803,-0.95365 c 0.62325,-0.43655 1.0225,-0.35734 0.71409,0.14167 -0.0959,0.1552 -0.43199,0.28219 -0.74682,0.28219 h -0.57242 z m -1.81033,-0.36989 c 0,-0.14552 0.12609,-0.26459 0.2802,-0.26459 0.15411,0 0.20662,0.11907 0.11668,0.26459 -0.0899,0.14552 -0.21603,0.26458 -0.2802,0.26458 -0.0642,0 -0.11668,-0.11906 -0.11668,-0.26458 z m -1.46945,-0.816815 c -0.0978,-0.1582 -0.0705,-0.3949 0.0606,-0.52601 0.14145,-0.14145 0.25449,-0.0245 0.278,0.28764 0.0442,0.587315 -0.0723,0.669335 -0.33861,0.23837 z m 0.94029,0.0231 c 0,-0.14552 0.18562,-0.26459 0.41249,-0.26459 0.22687,0 0.3389,0.11907 0.24897,0.26459 -0.0899,0.14552 -0.27556,0.264585 -0.41249,0.264585 -0.13694,0 -0.24897,-0.119065 -0.24897,-0.264585 z m 47.36042,-1.05834 c 0,-0.14552 0.11906,-0.26458 0.26458,-0.26458 0.14552,0 0.26459,0.11906 0.26459,0.26458 0,0.14553 -0.11907,0.26459 -0.26459,0.26459 -0.14552,0 -0.26458,-0.11906 -0.26458,-0.26459 z m -59.068236,-0.96897 c 0.181901,-0.0734 0.479557,-0.0734 0.661459,0 0.181901,0.0734 0.03307,0.13345 -0.33073,0.13345 -0.363802,0 -0.51263,-0.0601 -0.330729,-0.13345 z m 2.579688,-0.0894 c 0.291041,-0.12506 0.767291,-0.22389 1.058333,-0.21961 0.425393,0.006 0.39945,0.0493 -0.132292,0.21961 -0.904655,0.28972 -1.600259,0.28972 -0.926041,0 z m 6.571382,-0.14946 c -0.178828,-0.46602 0.646747,-1.17907 1.144144,-0.9882 0.256162,0.0983 0.259892,0.23763 0.01677,0.62691 -0.42579,0.6818 -0.972624,0.85198 -1.16092,0.36129 z m 1.762996,0.14946 c 0,-0.14552 0.12609,-0.26458 0.2802,-0.26458 0.1541,0 0.20661,0.11906 0.11667,0.26458 -0.0899,0.14552 -0.21602,0.26458 -0.2802,0.26458 -0.0642,0 -0.11667,-0.11906 -0.11667,-0.26458 z m -2.816186,-1.76818 c -0.470328,-0.16982 -0.09956,-1.10975 0.422247,-1.07044 0.311442,0.0235 0.423057,0.19304 0.338893,0.51488 -0.147063,0.56237 -0.344055,0.70616 -0.76114,0.55556 z m -5.99173,-1.40682 c -0.103934,-0.39744 -0.0081,-0.52917 0.384915,-0.52917 0.486434,0 1.279248,0.56221 1.279248,0.90715 0,0.0831 -0.343301,0.15119 -0.762892,0.15119 -0.540375,0 -0.803253,-0.15435 -0.901271,-0.52917 z m 3.516246,-0.13229 c -0.183735,-0.22139 -0.212385,-0.39688 -0.06479,-0.39688 0.14552,0 0.412802,0.1786 0.59396,0.39688 0.183735,0.22139 0.212385,0.39687 0.06479,0.39687 -0.145521,0 -0.412803,-0.17859 -0.59396,-0.39687 z m 3.311761,-1.49031 c 0.0445,-0.78863 -0.04039,-1.02416 -0.370243,-1.02728 -0.353299,-0.003 -0.362913,-0.0452 -0.05509,-0.24011 0.438515,-0.2776 1.145211,-0.0716 0.932901,0.27188 -0.08051,0.13027 0.09877,0.23686 0.398394,0.23686 0.776087,0 0.674647,0.43921 -0.149192,0.64598 -0.640797,0.16083 -0.658073,0.20043 -0.225461,0.51676 0.44285,0.32382 0.439549,0.35016 -0.06026,0.48086 -0.467781,0.12233 -0.522115,0.0202 -0.47104,-0.88495 z m 43.323169,0.91891 c -0.23897,-0.0965 -0.25448,-0.27127 -0.0568,-0.64057 0.30098,-0.56238 0.71146,-0.63567 1.3115,-0.23416 0.34352,0.22986 0.32782,0.31824 -0.11672,0.65741 -0.54266,0.41403 -0.61622,0.42807 -1.13794,0.21732 z m 5.07514,-0.16455 c -0.28226,-0.15619 -0.65561,-0.47121 -0.82968,-0.70005 -0.25762,-0.33869 -0.20841,-0.50111 0.26459,-0.87322 1.10019,-0.86554 2.25021,-0.29898 1.93581,0.95368 -0.1946,0.77535 -0.687,0.99792 -1.37072,0.61959 z m -44.56632,-1.33271 c 0,-0.49395 0.43153,-0.81691 0.64026,-0.47918 0.0812,0.13141 -0.0296,0.38605 -0.2463,0.56588 -0.32032,0.26585 -0.39396,0.24964 -0.39396,-0.0867 z m -8.780859,-0.0965 c 0.190996,-0.0764 0.419199,-0.067 0.507118,0.0209 0.08792,0.0879 -0.06835,0.15045 -0.347266,0.13896 -0.308224,-0.0127 -0.370919,-0.0754 -0.159852,-0.15985 z m 50.373369,-0.13676 c -0.43212,-0.43212 -0.39905,-0.74083 0.0794,-0.74083 0.22049,0 0.39688,0.23519 0.39688,0.52917 0,0.61675 -0.0493,0.63865 -0.47625,0.21166 z m -45.412501,-1.15903 c -0.524277,-0.52428 -0.313626,-0.90608 0.421771,-0.76446 0.731017,0.14078 0.850507,0.28075 0.661085,0.77437 -0.200115,0.5215 -0.554693,0.51825 -1.082856,-0.01 z m -6.812952,-0.55629 c 0.190996,-0.0764 0.4192,-0.067 0.507118,0.0209 0.08792,0.0879 -0.06835,0.15045 -0.347265,0.13896 -0.308225,-0.0127 -0.37092,-0.0754 -0.159853,-0.15985 z m 0.711068,-0.34843 c -0.08994,-0.14552 -0.04446,-0.26458 0.101062,-0.26458 0.145521,0 0.338168,0.11906 0.428105,0.26458 0.08994,0.14553 0.04446,0.26459 -0.101062,0.26459 -0.145521,0 -0.338168,-0.11906 -0.428105,-0.26459 z m 7.651905,-2.18281 c 0.0182,-0.51618 -0.102079,-0.58924 -0.90503,-0.54966 -0.825744,0.0407 -0.874561,0.008 -0.450724,-0.30274 0.261425,-0.19162 0.737675,-0.29262 1.058333,-0.22446 0.546551,0.1162 0.553541,0.0998 0.111798,-0.26158 -0.435803,-0.35655 -0.399705,-0.39894 0.480313,-0.56404 0.70597,-0.13244 1.25433,-0.0319 2.12486,0.3895 1.17401,0.56833 1.64142,1.23418 0.64417,0.91767 -0.41832,-0.13277 -0.52917,-0.0476 -0.52917,0.40684 0,0.51101 -0.11741,0.56358 -1.05833,0.47385 -0.58208,-0.0555 -1.05833,-0.008 -1.05833,0.1045 0,0.11299 -0.0988,0.20543 -0.21945,0.20543 -0.12069,0 -0.20999,-0.26789 -0.19844,-0.59531 z m -8.985701,-2.33271 c -0.284763,-0.46075 0.03956,-0.55833 0.402448,-0.12108 0.20869,0.25146 0.228762,0.40327 0.05332,0.40327 -0.154751,0 -0.359846,-0.12698 -0.455766,-0.28219 z m 5.567129,-0.59783 c -0.436562,-0.17083 -1.097449,-0.60826 -1.468637,-0.97206 -0.823365,-0.80698 -1.915586,-2.64584 -1.571543,-2.64584 0.5898,0 1.716014,0.96411 1.699886,1.45521 -0.0256,0.77967 0.151702,0.98915 0.554373,0.65496 0.196676,-0.16322 0.2924,-0.46666 0.21272,-0.6743 -0.209154,-0.54505 0.0537,-0.46591 0.824153,0.24812 0.371299,0.34411 0.67509,0.82036 0.67509,1.05833 0,0.23798 0.178594,0.43268 0.396875,0.43268 0.218281,0 0.396875,-0.18732 0.396875,-0.41627 0,-0.48279 0.82506,-0.41678 0.990206,0.0792 0.0681,0.20454 -0.288647,0.38784 -0.965453,0.49607 -0.590407,0.0944 -1.009074,0.27584 -0.930371,0.40319 0.168324,0.27235 0.197805,0.27667 -0.814174,-0.11932 z m 8.093872,-1.60451 c -0.1944,-0.23424 -0.54724,-0.42951 -0.78408,-0.43393 -0.36232,-0.007 -0.35275,-0.0533 0.0603,-0.29336 0.37408,-0.21739 0.58608,-0.19017 0.89061,0.11435 0.21981,0.21982 0.35172,0.54348 0.29313,0.71925 -0.0748,0.22448 -0.2117,0.19285 -0.45998,-0.10631 z m 4.40982,-0.89191 c -0.7861,-0.38419 -1.49788,-1.38606 -0.98473,-1.38606 0.16104,0 0.46877,0.17597 0.68384,0.39104 0.21507,0.21507 0.57914,0.49631 0.80906,0.62497 0.7236,0.40495 0.25759,0.7443 -0.50817,0.37005 z m 4.03277,0.20498 c 0,-0.18296 0.6222,-0.53271 0.94768,-0.53271 0.36102,0 0.0221,0.49061 -0.41851,0.60583 -0.29104,0.0761 -0.52917,0.0432 -0.52917,-0.0731 z m 32.27917,-1.51521 c -0.92181,-0.0993 -0.9258,-0.10548 -0.87352,-1.34434 0.0386,-0.91483 0.20409,-1.36729 0.62463,-1.70781 0.70915,-0.57424 2.05508,-0.59826 2.83693,-0.0506 0.63739,0.44644 0.606,1.12589 -0.11843,2.56393 -0.37486,0.74413 -0.43765,0.75783 -2.46961,0.53885 z m 5.29167,-0.605 c 0,-0.14552 0.12609,-0.26458 0.28019,-0.26458 0.15411,0 0.20662,0.11906 0.11668,0.26458 -0.0899,0.14552 -0.21603,0.26459 -0.2802,0.26459 -0.0642,0 -0.11667,-0.11907 -0.11667,-0.26459 z m -53.295768,-2.09701 c -0.611068,-0.67522 -0.361003,-1.34257 0.503079,-1.34257 0.538024,0 0.669762,0.13011 0.669762,0.66146 0,0.3638 0.0063,0.75075 0.01398,0.85989 0.03062,0.43484 -0.736013,0.31935 -1.186817,-0.17878 z m 44.655818,-0.16336 c -0.0862,-0.22455 -0.0876,-0.47739 -0.003,-0.56185 0.26697,-0.26698 0.97014,0.14251 0.97014,0.56496 0,0.52812 -0.76413,0.52567 -0.96704,-0.003 z m -15.54638,-1.12173 c 0.16994,-1.83043 -0.0196,-2.07085 -0.98923,-1.25493 -0.43682,0.36755 -0.87605,0.66828 -0.97608,0.66828 -0.19519,0 -1.10045,-1.95272 -1.10045,-2.37375 0,-0.42547 1.07064,-0.85552 1.72254,-0.69191 0.35618,0.0894 0.65754,0.0265 0.71622,-0.14958 0.0733,-0.21993 0.31698,-0.20101 0.88179,0.0684 0.58944,0.2812 0.80079,0.58239 0.8634,1.2304 0.0591,0.61126 -0.0274,0.85806 -0.30069,0.85806 -0.25793,0 -0.47594,0.49841 -0.66544,1.52135 l -0.28183,1.52136 z m 22.91412,0.71643 c 0.0521,-0.15644 0.20792,-0.28443 0.34616,-0.28443 0.13825,0 0.29402,0.12799 0.34617,0.28443 0.0521,0.15643 -0.10363,0.28442 -0.34617,0.28442 -0.24253,0 -0.39831,-0.12799 -0.34616,-0.28442 z m -14.33821,-0.30472 c 0,-0.48232 0.46906,-0.88207 0.72946,-0.62168 0.0908,0.0908 -0.0362,0.36636 -0.28219,0.61236 -0.41247,0.41247 -0.44727,0.4132 -0.44727,0.009 z m 8.99583,-0.49245 c 0,-0.18257 -0.1948,-0.5472 -0.43289,-0.81029 -0.39405,-0.43542 -0.39507,-0.49284 -0.0114,-0.64007 0.30237,-0.11604 0.37948,-0.37177 0.27285,-0.90493 -0.12105,-0.60525 -0.0392,-0.77793 0.44131,-0.93042 0.58986,-0.18721 1.16122,0.27406 0.88768,0.71665 -0.0717,0.11609 -0.0111,0.21107 0.13475,0.21107 0.37275,0 1.08895,-1.08281 1.08895,-1.64637 0,-0.56744 0.2585,-0.59426 0.93811,-0.0973 0.50053,0.366 0.50071,0.38332 0.01,0.92604 -0.27527,0.30419 -0.65151,0.55307 -0.83607,0.55307 -0.18457,0 -0.70441,0.31035 -1.15521,0.68968 -0.58459,0.4919 -0.79907,0.88228 -0.74791,1.36131 0.0395,0.36939 -0.0771,0.7238 -0.25899,0.78757 -0.1819,0.0638 -0.33073,-0.0334 -0.33073,-0.21599 z m -42.80186,-0.28652 c -0.44971,-0.4497 -0.40758,-1.26272 0.075,-1.44792 0.56137,-0.21541 1.22812,0.414 1.13387,1.07039 -0.0922,0.64177 -0.74178,0.84465 -1.2089,0.37753 z m 10.5227,-4.82129 c 0,-0.44861 0.71554,-0.76577 0.93318,-0.41362 0.086,0.13916 0.0828,0.37209 -0.007,0.51761 -0.24449,0.39559 -0.92604,0.31906 -0.92604,-0.10399 z m -8.9297,-0.33582 c -0.46524,-0.18773 -0.41316,-0.88311 0.0661,-0.88311 0.22049,0 0.39688,0.23519 0.39688,0.52917 0,0.29104 -0.0298,0.51976 -0.0661,0.50828 -0.0364,-0.0115 -0.21498,-0.081 -0.39688,-0.15434 z m 30.62553,-2.20603 c 0,-0.14552 0.11906,-0.26458 0.26458,-0.26458 0.14552,0 0.26459,0.11906 0.26459,0.26458 0,0.14552 -0.11907,0.26459 -0.26459,0.26459 -0.14552,0 -0.26458,-0.11907 -0.26458,-0.26459 z m 7.60846,-0.15264 c -0.26794,-0.26794 0.0905,-0.90569 0.50904,-0.90569 0.21996,0 0.35092,0.19101 0.30242,0.4411 -0.0918,0.47347 -0.5438,0.73224 -0.81146,0.46459 z"
       id="path847" />
  </g>
</svg>
