<?xml version="1.0" encoding="UTF-8" standalone="no"?>
<svg
   xmlns:dc="http://purl.org/dc/elements/1.1/"
   xmlns:cc="http://creativecommons.org/ns#"
   xmlns:rdf="http://www.w3.org/1999/02/22-rdf-syntax-ns#"
   xmlns:svg="http://www.w3.org/2000/svg"
   xmlns="http://www.w3.org/2000/svg"
   xmlns:sodipodi="http://sodipodi.sourceforge.net/DTD/sodipodi-0.dtd"
   xmlns:inkscape="http://www.inkscape.org/namespaces/inkscape"
   width="57.762672mm"
   height="62.675266mm"
   viewBox="0 0 57.762673 62.675267"
   version="1.1"
   id="svg8"
   inkscape:version="1.0.1 (3bc2e813f5, 2020-09-07)"
   sodipodi:docname="mons_chaman.svg">
  <defs
     id="defs2" />
  <sodipodi:namedview
     id="base"
     pagecolor="#ffffff"
     bordercolor="#666666"
     borderopacity="1.0"
     inkscape:pageopacity="0.0"
     inkscape:pageshadow="2"
     inkscape:zoom="1.4"
     inkscape:cx="145.4726"
     inkscape:cy="203.67393"
     inkscape:document-units="mm"
     inkscape:current-layer="g885"
     showgrid="false"
     fit-margin-top="0"
     fit-margin-left="0"
     fit-margin-right="0"
     fit-margin-bottom="0"
     inkscape:window-width="1920"
     inkscape:window-height="1017"
     inkscape:window-x="-8"
     inkscape:window-y="-8"
     inkscape:window-maximized="1"
     inkscape:document-rotation="0"
     inkscape:snap-global="false" />
  <metadata
     id="metadata5">
    <rdf:RDF>
      <cc:Work
         rdf:about="">
        <dc:format>image/svg+xml</dc:format>
        <dc:type
           rdf:resource="http://purl.org/dc/dcmitype/StillImage" />
        <dc:title></dc:title>
      </cc:Work>
    </rdf:RDF>
  </metadata>
  <g
     inkscape:label="Capa 1"
     inkscape:groupmode="layer"
     id="layer1"
     transform="translate(-49.369605,-76.122964)">
    <g
       id="g885"
       transform="matrix(1.0491803,0,0,1.0491803,-2.6565976,-5.5128257)">
      <g
         id="g9238-1-6"
         transform="matrix(0.69482815,0,0,0.69482815,1664.6702,1824.4732)">
        <path
           id="path8392-3-5-1-1"
           style="vector-effect:none;fill:#ffffff;fill-opacity:1;stroke:#000000;stroke-width:10.2047;stroke-linecap:square;stroke-linejoin:miter;stroke-miterlimit:4;stroke-dasharray:none;stroke-dashoffset:0;stroke-opacity:1;marker:none;marker-start:none;marker-mid:none;marker-end:none;paint-order:normal"
           d="m -8525.9922,-9486.2715 -9.7187,3.3731 -11.6973,6.748 -0.5391,22.5527 -1.9804,-15.8046 h -3.7793 l 0.9004,26.2812 -4.6797,-7.2812 v -12.6075 l -1.7989,-0.8867 -1.2246,17.9238 -5.2539,-1.9433 -12.3496,2.7305 -4.9863,9.1914 -6.0606,9.9199 -6.6582,0.5332 2.6993,8.3457 6.4785,0.1777 -1.6192,6.5703 -6.1191,3.1973 4.3184,8.8789 6.2988,-4.2637 h 2.6992 l -5.7578,7.1036 c 0,0 5.9374,4.6168 7.0176,4.0839 1.0798,-0.5329 5.2187,-5.6816 5.2187,-5.6816 l 2.6895,0.5469 -0.5098,7.1582 5.3457,0.3789 0.8906,-7.0313 2.4629,0.5 -0.5312,27.1641 -6.9258,-3.502 -8.9981,-2.3086 -13.8574,-10.0332 -5.6699,-2.7519 -9.7187,-9.0567 -0.2696,-0.3554 0.018,-7.5352 c 0,0 -0.7892,2.8557 -1.5293,5.5469 l -8.4766,-11.1523 -8.2773,-5.5938 -5.1641,-2.1465 -9.6699,0.8809 -14.6348,11.6758 -9.3164,13.4746 -3.2402,9.5898 -10.0781,3.0176 -0.5391,7.1035 10.3457,-0.4316 -0.047,0.3066 -11.5586,1.9004 -5.5781,-0.8867 -2.8789,2.8398 -9.8984,5.5059 -0.2578,0.1387 7.0332,-11.6641 -2.545,-20.8633 -8.9082,-22.8535 -3.0546,-11.5527 0.7636,-19.336 -11.707,13.3086 v 10.5469 l -10.5078,-12.582 2.1562,-9.1641 2.0821,-24.2793 -9.7832,-12.1152 3.5683,21.5898 -5.539,17.5254 -2.877,12.4668 2.8301,15.8516 -9.6719,-8.7891 -5.539,-3.5566 7.83,20.8847 -4.58,27.1211 -1.5274,10.0645 5.8535,11.3008 22.6504,7.5351 3.1836,-0.6289 -4.1289,6.9844 v 14.7402 l -4.375,7.8848 -2.1523,-4.7559 -2.7637,-9.6875 -1.9278,-4.1972 -2.9218,11.5996 0.9199,9.5527 0.373,12.6133 -11.9453,-10.1153 -6.1894,-1.6796 -13.6602,3.6972 16.2988,5.377 8.3809,11.0996 8.9434,6.8828 2.0097,-0.4121 1.2969,15.0742 2.2207,12.5723 -10.8652,21.4336 -9.2207,11.5136 36.6308,-6.58 c 0,0 9.5901,-25.8629 16.0118,-43.5372 l 1.664,6.0782 -8.5683,21.8789 -5.8008,18.8886 14.8418,-25.83 3.5605,30.8437 8.2129,-0.9863 -5.5215,3.6953 -10.6172,2.752 -5.125,2.3945 -4.5039,-0.1738 -6.0293,4.5273 -3.3965,14.1582 7,-9.668 4.6465,-1.164 2.3672,2.8887 1.6231,-0.377 -1.7657,4.3027 1.0176,10.5469 2.6739,-11.0488 4.2382,-1.8848 2.2012,5.1192 11.6973,1.5996 3.0371,-2.7754 2.6211,9.1172 -0.1875,-11.3418 1.8183,-1.6602 5.3106,6.3945 h 7.3769 l 1.5899,3.4688 1.5078,-0.3379 2.6914,5.9863 1.041,-6.8203 4.3047,-0.9629 0.3828,-11.0508 6.9981,-7.7851 5.2168,-0.125 0.3457,-7.082 4.746,1.0546 15.459,-7.0312 1.4707,13.5469 -1.8925,-0.4414 0.3535,2.4238 -2.0938,1.9238 2.0352,10.9238 5.4726,6.4043 0.127,0.014 6.0742,12.582 -1.4101,-12.0507 1.8261,0.2089 4.836,-3.8945 3.4355,4.0195 8.5254,-2.6367 0.07,-0.1015 -0.7265,7.1738 4.5683,-7.6406 1.4336,1.5722 6.75,-3.33 0.8359,7.2675 3.1485,-4.6172 v -10.0332 l -2.8789,-3.9609 0.029,-1.3984 5.9804,2.0097 0.9512,-1.7226 1.918,6.7461 2.1621,-10.8633 -0.5918,-2.207 1.7969,-3.2539 -8.2715,-7.2833 -3.3867,-9.5449 8.9297,0.8809 3.3046,10.4609 -1.6132,25.7305 15.3574,-3.9766 1.2812,-14.2187 8.7793,5.1797 13.0254,1.5058 13.7422,-9.039 -8.291,-2.4688 14.1289,-11.1504 -6.7754,-13.8086 -5.9394,-2.4863 4.8593,-8.1699 7.918,-6.5684 10.0801,0.1758 -7.7969,-10.9785 -8.8516,-5.2637 -5.5566,-4.291 -12.7441,-65.3281 -8.3165,0.5586 -5.9804,-9.418 h -0.127 l 0.1289,-9.0801 5.8575,-33.4394 10.4941,8.709 -4.5,5.3281 5.9394,7.1035 6.1192,-9.7676 0.539,9.5899 h 5.4004 l -0.3593,-8.17 2.9609,-1.1621 0.25,5.7754 5.3438,-2.2597 -3.1817,-5.9024 1.6543,-0.7519 2.9277,5.3984 2.9258,-2.6367 -5.2168,-8.916 1.2715,-4.1426 -4.1992,-2.0098 2.1641,-6.2773 -3.6895,-5.6504 -2.1328,-8.5762 -3.7402,-0.8359 2.2109,-1.1172 -1.3496,-4.3516 3.2402,-0.8867 2.7071,4.627 11.1562,-4.9317 -5.4727,-5.9023 10.9454,-4.3946 0.1289,-7.4082 -9.1621,-4.2675 2.5449,-10.1719 -4.3906,-6.707 -16.9903,-7.6075 z m -0.3594,47.8555 2.5196,0.3555 0.3496,4.6484 -0.5313,-0.1191 -10.9375,3.4218 0.5586,-2.5058 6.6914,-0.4727 z"
           transform="scale(0.26458333)"
           sodipodi:nodetypes="ccccccccccccccccccccccccscccccccccccccccccccccccccccccccccccccccccccccccccccccccccccccccccccccccccccccccccccccccccccccccccccccccccccccccccccccccccccccccccccccccccccccccccccccccccccccccccccccccccccccccccccccccccccccccccccccccccccccccccccc"
           inkscape:connector-curvature="0" />
        <g
           id="g8988-5-3">
          <path
             style="opacity:1;vector-effect:none;fill:#ffffff;fill-opacity:1;stroke:#000000;stroke-width:2.03;stroke-linecap:square;stroke-linejoin:miter;stroke-miterlimit:4;stroke-dasharray:none;stroke-dashoffset:0;stroke-opacity:1;marker:none;marker-start:none;marker-mid:none;marker-end:none;paint-order:normal"
             d="m -2295.8093,-2443.0757 -2.7379,1.8324 -2.8092,0.7283 -1.8096,0.8455 -0.4284,1.4801 0.9046,1.1041 1.7142,-0.3992 0.9285,2.161 3.095,0.4229 1.9286,-1.7618 1.4046,1.6914 h 1.9523 l 0.4203,0.9178 2.5253,-0.5648 0.1013,-2.9234 1.8519,-2.0599 1.3803,-0.033 0.1684,-3.4551 -2.2894,-3.6544 -3.5018,0.166 -2.9292,1.2624 z"
             id="path8392-3-8-2"
             inkscape:connector-curvature="0" />
          <path
             style="opacity:1;vector-effect:none;fill:#ffffff;fill-opacity:1;stroke:#000000;stroke-width:2.03;stroke-linecap:square;stroke-linejoin:miter;stroke-miterlimit:4;stroke-dasharray:none;stroke-dashoffset:0;stroke-opacity:1;marker:none;marker-start:none;marker-mid:none;marker-end:none;paint-order:normal"
             d="m -2279.4904,-2445.4953 -0.4597,2.4056 0.404,3.7209 -0.9764,0.8971 0.5388,2.8903 1.4477,1.6943 1.7509,0.1993 1.2794,-1.03 0.9091,1.0631 2.2559,-0.6975 0.505,-0.7309 0.9091,0.9966 2.0203,-0.9966 0.066,-3.2558 1.5825,0.5315 1.6497,-2.99 -2.1885,-1.9268 -1.4142,-3.9867 -5.5892,-1.794 -4.9832,0.6313 z"
             id="path8394-9-6-1"
             inkscape:connector-curvature="0" />
          <path
             style="opacity:1;vector-effect:none;fill:#ffffff;fill-opacity:1;stroke:#000000;stroke-width:0.676667;stroke-linecap:butt;stroke-linejoin:miter;stroke-miterlimit:4;stroke-dasharray:none;stroke-dashoffset:0;stroke-opacity:1"
             d="m -2301.4756,-2439.8338 -2.4284,-0.094 -1.595,1.1981 -0.8987,3.7462 1.852,-2.558 2.1211,-0.5317 0.8418,-0.764 z"
             id="path8396-5-0-3"
             inkscape:connector-curvature="0" />
          <path
             style="opacity:1;vector-effect:none;fill:#ffffff;fill-opacity:1;stroke:#000000;stroke-width:0.676667;stroke-linecap:butt;stroke-linejoin:miter;stroke-miterlimit:4;stroke-dasharray:none;stroke-dashoffset:0;stroke-opacity:1"
             d="m -2298.8557,-2438.8705 -1.0268,-0.5979 -1.7003,0.6312 -1.1449,2.7906 0.2694,2.7907 0.7071,-2.9236 2.3906,-1.063 0.2525,-0.8141 z"
             id="path8398-4-3-1"
             sodipodi:nodetypes="ccccccccc"
             inkscape:connector-curvature="0" />
          <path
             style="opacity:1;vector-effect:none;fill:#ffffff;fill-opacity:1;stroke:#000000;stroke-width:0.676667;stroke-linecap:butt;stroke-linejoin:miter;stroke-miterlimit:4;stroke-dasharray:none;stroke-dashoffset:0;stroke-opacity:1"
             d="m -2294.8824,-2439.6014 -1.347,0.7642 -0.5051,1.1628 1.2795,4.4518 -0.067,-4.0531 1.2457,0.066 0.7407,-1.4616 z"
             id="path8400-6-5-8"
             sodipodi:nodetypes="cccccccc"
             inkscape:connector-curvature="0" />
          <path
             style="opacity:1;vector-effect:none;fill:#ffffff;fill-opacity:1;stroke:#000000;stroke-width:0.676667;stroke-linecap:butt;stroke-linejoin:miter;stroke-miterlimit:4;stroke-dasharray:none;stroke-dashoffset:0;stroke-opacity:1"
             d="m -2290.1689,-2438.8705 h -1.2794 l -0.6734,1.8937 1.9866,4.4185 0.5723,-3.754 v -1.9933 z"
             id="path8402-3-10-6"
             inkscape:connector-curvature="0" />
          <path
             style="opacity:1;vector-effect:none;fill:#ffffff;fill-opacity:1;stroke:#000000;stroke-width:0.676667;stroke-linecap:butt;stroke-linejoin:miter;stroke-miterlimit:4;stroke-dasharray:none;stroke-dashoffset:0;stroke-opacity:1"
             d="m -2278.2524,-2439.1996 -1.8094,-0.4228 0.5237,3.5942 2.6428,5.4735 -0.7143,-6.1077 z"
             id="path8404-6-6-5"
             inkscape:connector-curvature="0" />
          <path
             style="opacity:1;vector-effect:none;fill:#ffffff;fill-opacity:1;stroke:#000000;stroke-width:0.676667;stroke-linecap:butt;stroke-linejoin:miter;stroke-miterlimit:4;stroke-dasharray:none;stroke-dashoffset:0;stroke-opacity:1"
             d="m -2274.0622,-2439.129 2.0951,0.2349 1.4047,3.1479 -1.9523,3.2653 0.3809,-3.7587 -0.7618,-0.9397 -1.0477,-0.094 -0.9283,-0.7282 z"
             id="path8406-9-0-1"
             inkscape:connector-curvature="0" />
          <path
             style="opacity:1;vector-effect:none;fill:#ffffff;fill-opacity:1;stroke:#000000;stroke-width:0.676667;stroke-linecap:butt;stroke-linejoin:miter;stroke-miterlimit:4;stroke-dasharray:none;stroke-dashoffset:0;stroke-opacity:1"
             d="m -2269.8957,-2439.411 1.8093,2.4901 v 2.6546 l -0.8332,1.2216 -0.3809,-3.3124 -1.1906,-1.151 -0.1661,-1.3957 z"
             id="path8408-7-7-8"
             inkscape:connector-curvature="0" />
          <path
             style="opacity:1;vector-effect:none;fill:#ffffff;fill-opacity:1;stroke:#000000;stroke-width:0.676667;stroke-linecap:butt;stroke-linejoin:miter;stroke-miterlimit:4;stroke-dasharray:none;stroke-dashoffset:0;stroke-opacity:1"
             d="m -2267.5934,-2441.9767 1.2796,1.1793 0.3872,1.4452 -0.5725,2.8738 -0.7743,-2.7243 -0.8754,-0.6976 -0.4209,-1.1961 0.4545,-1.0963 z"
             id="path8410-4-96-2"
             inkscape:connector-curvature="0" />
          <path
             style="opacity:1;vector-effect:none;fill:#ffffff;fill-opacity:1;stroke:#000000;stroke-width:2.03;stroke-linecap:square;stroke-linejoin:miter;stroke-miterlimit:4;stroke-dasharray:none;stroke-dashoffset:0;stroke-opacity:1;marker:none;marker-start:none;marker-mid:none;marker-end:none;paint-order:normal"
             d="m -2284.1756,-2491.6606 -2.5589,0.2327 -3.872,3.0895 -2.4647,3.565 -0.8573,2.5372 -2.6665,0.7986 -0.1427,1.8795 3.3807,-0.1411 -3.7141,0.6109 -1.4761,-0.235 -0.7617,0.7518 -2.619,1.4565 -3.1427,1.6913 -1.1904,0.235 -1.6665,2.8189 v 3.8997 l -1.381,2.4901 -1.4285,2.584 0.7687,8.9312 0.588,3.3264 -2.875,5.6713 -2.4397,3.0461 9.6918,-1.7407 c 0,0 5.7362,-15.4483 5.7362,-15.7772 0,-0.3289 -0.8984,-6.7459 -0.8984,-6.7459 l 3.3968,3.529 -5.8249,14.8716 -1.5346,4.9976 3.927,-6.834 0.9421,8.1604 7.7441,-0.93 7.4747,1.6609 4.0901,-1.8604 4.433,3.0211 3.8673,-2.6888 1.953,-2.5914 3.3669,0.3322 1.949,6.1699 1.3468,-2.3257 3.8771,2.2876 3.446,0.3986 3.6363,-2.3919 -2.1938,-0.653 3.7381,-2.9503 -1.7926,-3.6536 -1.5713,-0.6579 1.2856,-2.1612 2.0951,-1.7383 2.6666,0.047 -2.0629,-2.9048 -2.3419,-1.3929 v 0 l -1.4702,-1.1354 -3.3717,-17.2845 -2.2003,0.1476 -1.5824,-2.4918 -3.1009,-0.019 -3.8093,-1.9262 -2.3808,-0.6108 -3.6665,-2.6546 -1.4999,-0.7281 -2.5714,-2.3963 -2.7141,-3.5707 -2.1903,-1.48 z"
             id="path8329-5-86-6"
             sodipodi:nodetypes="cccccccccccccccccccccccsccccccccccccccccccccccccccccccccccccccccc"
             inkscape:connector-curvature="0" />
          <path
             style="opacity:1;vector-effect:none;fill:none;fill-opacity:1;stroke:#000000;stroke-width:0.8;stroke-linecap:butt;stroke-linejoin:miter;stroke-miterlimit:4;stroke-dasharray:none;stroke-dashoffset:0;stroke-opacity:1"
             d="m -2284.3777,-2486.4114 -3.5857,2.4085 -4.7644,1.7775 -2.8619,1.196 0.034,0.764 2.8655,0.096 1.3095,-0.4463 1.0477,0.9632 1.5955,1.4465 2.9124,-0.1002 3.4679,-0.8305 h 3.2323 l 1.8149,-1.5736 2.5475,0.047 0.9522,-1.4565 -2.5712,-1.4799 -4.833,-3.3358 -1.9284,0.071 z"
             id="path8335-5-78-4"
             sodipodi:nodetypes="ccccccccccccccccccc"
             inkscape:connector-curvature="0" />
          <path
             style="opacity:1;vector-effect:none;fill:#ffffff;fill-opacity:1;stroke:#000000;stroke-width:1.00167;stroke-linecap:butt;stroke-linejoin:miter;stroke-miterlimit:4;stroke-dasharray:none;stroke-dashoffset:0;stroke-opacity:1"
             d="m -2295.0465,-2473.1192 -0.029,0.8045 0.4772,1.3941 0.5791,-1.3471 1.555,-1.5546 -0.2731,1.33 v 3.1422 l 1.9867,-3.0079 0.7675,-0.7419 -0.8359,3.6746 0.4141,4.8511 2.3736,4.9667 -0.3694,-7.058 1.846,-4.9308 0.3233,1.1358 0.3295,1.1887 0.7678,-1.5948 0.5133,-0.5306 0.1344,1.7208 0.3346,0.8514 0.6058,-1.7464 0.5736,-2.6055 1.1047,1.7922 0.5968,-2.9945 0.4164,-1.5906 1.1498,1.1471 0.6012,1.1839 0.369,-0.9623 0.4118,-0.612 1.5275,4.0133 0.7105,3.9111 0.7442,-1.9148 -0.5593,-3.2903 0.2322,-1.2528 1.558,2.14 0.4848,3.6969 0.2985,4.6211 0.7459,-6.8762 -0.2375,-1.4076 -0.019,-0.6321 0.8905,1.1895 1.4173,3.7706 -0.2612,-3.29 -1.9392,-4.1775 -3.2448,-3.5121 3.0631,0.5828 -2.0935,-2.0614 -0.6693,-0.9725 3.0937,1.1573 1.4802,0.3946 -2.0829,-2.0505 -3.9085,-1.4837 -0.8647,-0.6597 -1.0812,0.9934 -0.4748,1.1662 -8.4773,1.465 -2.511,-2.5163 -2.8649,0.3287 -0.5213,1.4605 -0.2159,1.4157 -1.8425,1.1683 -2.7317,2.2604 -0.7832,0.9251 2.2893,-0.8134 -1.8362,6.9222 2.1874,-3.0455 z"
             id="path8337-4-33-0"
             sodipodi:nodetypes="ccccccccccccccccccccccccccccccccccccccccccccccccccccccccccccccccccc"
             inkscape:connector-curvature="0" />
          <path
             style="opacity:1;vector-effect:none;fill:none;fill-opacity:1;stroke:#000000;stroke-width:0.676667;stroke-linecap:butt;stroke-linejoin:miter;stroke-miterlimit:4;stroke-dasharray:none;stroke-dashoffset:0;stroke-opacity:1;marker:none;marker-start:none;marker-mid:none;marker-end:none;paint-order:normal"
             d="m -2280.9265,-2485.3234 -1.2374,-0.3822 -1.1363,0.1413 0.1852,0.7143 0.6734,0.5814 0.7323,-0.099 0.6144,-0.6064 z"
             id="path8339-3-8-9"
             inkscape:connector-curvature="0" />
          <path
             style="opacity:1;vector-effect:none;fill:#ffffff;fill-opacity:1;stroke:#000000;stroke-width:1.2;stroke-linecap:square;stroke-linejoin:miter;stroke-miterlimit:4;stroke-dasharray:none;stroke-dashoffset:0;stroke-opacity:1;marker:none;marker-start:none;marker-mid:none;marker-end:none;paint-order:normal"
             d="m -2278.3574,-2459.6049 -2.0076,-1.4952 -3.4784,-0.8472 -3.7808,1.2282 -1.8043,3.5207 -0.1993,1.6505 0.3629,1.3624 -2.1033,2.1493 0.9066,1.9573 1.9441,-1.6465 0.2425,2.0194 -0.6721,1.2122 1.6448,0.9659 0.7147,-1.7421 0.9195,-0.092 -0.1291,2.0228 1.6484,-0.076 0.3537,-1.8713 0.7719,0.062 0.7603,1.4612 1.2986,-0.1854 -0.6038,-2.0123 0.5512,-0.1524 1.529,2.1282 1.7239,-1.4789 -1.9936,-2.1694 0.4401,-1.1092 2.7565,2.2369 0.605,-2.8605 -2.3786,-1.9302 0.7499,-2.9791 z"
             id="path8341-5-8-7"
             sodipodi:nodetypes="cccccccccccccccccccccccccccccccc"
             inkscape:connector-curvature="0" />
          <path
             style="opacity:1;vector-effect:none;fill:#ffffff;fill-opacity:1;stroke:#000000;stroke-width:0.676667;stroke-linecap:butt;stroke-linejoin:miter;stroke-miterlimit:4;stroke-dasharray:none;stroke-dashoffset:0;stroke-opacity:1"
             d="m -2279.6874,-2455.7835 -2.6347,1.254 -0.7325,0.7076 0.7212,0.6916 2.3031,-0.9142 0.5352,-1.1901 z"
             id="path8343-7-5-7"
             inkscape:connector-curvature="0" />
          <path
             style="opacity:1;vector-effect:none;fill:#ffffff;fill-opacity:1;stroke:#000000;stroke-width:0.676667;stroke-linecap:butt;stroke-linejoin:miter;stroke-miterlimit:4;stroke-dasharray:none;stroke-dashoffset:0;stroke-opacity:1"
             d="m -2285.3825,-2454.2762 -0.4503,-0.4221 -2.2254,-0.9196 -0.189,0.7938 0.1478,0.7418 1.973,0.8892 0.9329,-0.2847 0.046,-0.363 z"
             id="path8345-0-89-0"
             sodipodi:nodetypes="ccccccccc"
             inkscape:connector-curvature="0" />
          <path
             style="opacity:1;vector-effect:none;fill:#ffffff;fill-opacity:1;stroke:#000000;stroke-width:0.676667;stroke-linecap:butt;stroke-linejoin:miter;stroke-miterlimit:4;stroke-dasharray:none;stroke-dashoffset:0;stroke-opacity:1"
             d="m -2284.1986,-2452.831 -1.2799,0.58 0.3513,0.9499 0.9718,-0.8098 0.8797,0.8592 0.4667,-1.2172 z"
             id="path8347-7-83-4"
             sodipodi:nodetypes="ccccccc"
             inkscape:connector-curvature="0" />
          <path
             style="opacity:1;vector-effect:none;fill:#ffffff;fill-opacity:1;stroke:#000000;stroke-width:1.2;stroke-linecap:square;stroke-linejoin:miter;stroke-miterlimit:4;stroke-dasharray:none;stroke-dashoffset:0;stroke-opacity:1;marker:none;marker-start:none;marker-mid:none;marker-end:none;paint-order:normal"
             d="m -2268.3171,-2462.5673 -2.458,-1.1627 -2.7945,0.4318 -2.4578,2.0597 -0.2694,1.5616 -0.5389,2.6245 1.246,1.5614 -0.7408,1.0963 1.1783,1.9934 1.5826,-1.7276 -0.034,2.4584 1.9059,0.6109 0.034,-2.2592 1.1112,1.7941 1.3131,-0.9303 -0.404,-1.4618 0.3534,-0.05 0.7408,1.5117 1.5656,-0.9303 -1.0942,-1.4618 0.404,-0.1002 1.229,1.2956 0.6564,-0.5648 -1.4008,-2.6706 1.0269,-0.3487 0.2526,-1.3289 -1.3131,-0.897 -0.2862,-2.2093 z"
             id="path8349-7-24-3"
             sodipodi:nodetypes="ccccccccccccccccccccccccccccc"
             inkscape:connector-curvature="0" />
          <path
             style="opacity:1;vector-effect:none;fill:#ffffff;fill-opacity:1;stroke:#000000;stroke-width:0.676667;stroke-linecap:butt;stroke-linejoin:miter;stroke-miterlimit:4;stroke-dasharray:none;stroke-dashoffset:0;stroke-opacity:1"
             d="m -2274.7481,-2458.2651 2.3738,0.3322 0.3535,1.0465 -1.1952,0.051 -1.3467,-0.4486 -0.5221,-0.6812 z"
             id="path8351-6-7-5"
             inkscape:connector-curvature="0" />
          <path
             style="opacity:1;vector-effect:none;fill:#ffffff;fill-opacity:1;stroke:#000000;stroke-width:0.676667;stroke-linecap:butt;stroke-linejoin:miter;stroke-miterlimit:4;stroke-dasharray:none;stroke-dashoffset:0;stroke-opacity:1"
             d="m -2269.8154,-2458.6802 0.6733,-1.5616 0.5052,-0.3654 0.6565,1.0299 -0.7408,1.495 -0.7407,0.1002 -0.5724,-0.4485 z"
             id="path8353-3-8-5"
             inkscape:connector-curvature="0" />
          <path
             style="opacity:1;vector-effect:none;fill:#ffffff;fill-opacity:1;stroke:#000000;stroke-width:0.676667;stroke-linecap:butt;stroke-linejoin:miter;stroke-miterlimit:4;stroke-dasharray:none;stroke-dashoffset:0;stroke-opacity:1"
             d="m -2270.6018,-2457.139 -0.6062,0.8306 0.7072,0.4318 0.1013,-0.8139 1.027,0.2492 0.2525,-0.598 z"
             id="path8355-2-674-0"
             inkscape:connector-curvature="0" />
          <path
             style="opacity:1;vector-effect:none;fill:#ffffff;fill-opacity:1;stroke:#000000;stroke-width:1.2;stroke-linecap:square;stroke-linejoin:miter;stroke-miterlimit:4;stroke-dasharray:none;stroke-dashoffset:0;stroke-opacity:1;marker:none;marker-start:none;marker-mid:none;marker-end:none;paint-order:normal"
             d="m -2291.0106,-2458.2722 -0.034,-2.4252 -2.6264,-2.3256 -3.0976,-0.1328 -1.8854,1.2292 -1.822,2.6181 -0.3571,3.3829 0.7351,2.6855 -1.1562,1.6641 2.3258,1.03 0.5042,-1.1094 v 0 l -0.6581,1.8846 2.1538,0.3994 0.067,-1.1683 0.257,0.019 0.1996,1.2667 1.7381,-0.071 -0.1431,-1.8065 0.2859,-0.073 0.5713,1.5505 1.5714,-0.8692 -0.7381,-1.5974 2.1903,0.1174 0.3333,-2.5606 -1.3094,-0.9161 z"
             id="path8357-0-7-9"
             sodipodi:nodetypes="ccccccccccccccccccccccccccc"
             inkscape:connector-curvature="0" />
          <path
             style="opacity:1;vector-effect:none;fill:#ffffff;fill-opacity:1;stroke:#000000;stroke-width:0.676667;stroke-linecap:butt;stroke-linejoin:miter;stroke-miterlimit:4;stroke-dasharray:none;stroke-dashoffset:0;stroke-opacity:1"
             d="m -2293.5951,-2457.1706 -2.6188,1.339 -0.3811,0.6343 0.9762,0.8457 2.1189,-1.1747 z"
             id="path8359-1-13-2"
             inkscape:connector-curvature="0" />
          <path
             style="opacity:1;vector-effect:none;fill:#ffffff;fill-opacity:1;stroke:#000000;stroke-width:0.676667;stroke-linecap:butt;stroke-linejoin:miter;stroke-miterlimit:4;stroke-dasharray:none;stroke-dashoffset:0;stroke-opacity:1"
             d="m -2300.3447,-2456.7008 1.5833,0.7869 -0.072,1.1042 -0.6665,0.2467 -0.8452,-0.9515 -0.095,-0.74 z"
             id="path8361-8-3-8"
             inkscape:connector-curvature="0" />
          <path
             style="opacity:1;vector-effect:none;fill:#ffffff;fill-opacity:1;stroke:#000000;stroke-width:0.676667;stroke-linecap:butt;stroke-linejoin:miter;stroke-miterlimit:4;stroke-dasharray:none;stroke-dashoffset:0;stroke-opacity:1"
             d="m -2297.8568,-2454.7863 -1.2262,0.9397 0.2145,0.3641 1.0117,-0.3405 1.1667,0.4697 0.4524,-0.7165 z"
             id="path8363-2-4-9"
             sodipodi:nodetypes="ccccccc"
             inkscape:connector-curvature="0" />
          <path
             style="opacity:1;vector-effect:none;fill:#ffffff;fill-opacity:1;stroke:#000000;stroke-width:2.03;stroke-linecap:square;stroke-linejoin:miter;stroke-miterlimit:4;stroke-dasharray:none;stroke-dashoffset:0;stroke-opacity:1;marker:none;marker-start:none;marker-mid:none;marker-end:none;paint-order:normal"
             d="m -2264.6444,-2503.9895 -1.1428,16.726 -0.6666,34.063 1.4034,4.4897 -0.8319,13.27 4.0633,-1.0523 1.2839,-14.2473 -0.6778,-5.6382 0.3368,-23.7309 2.4217,-13.8255 3.5042,-15.732 -0.8852,-0.2424 -2.5713,0.8927 -3.095,1.7854 -0.1429,5.9668 -0.5237,-4.1814 h -1.0001 l 0.2383,6.9534 -1.2381,-1.9263 v -3.3358 z"
             id="path8367-1-02-1"
             sodipodi:nodetypes="ccccccccccccccccccccc"
             inkscape:connector-curvature="0" />
          <path
             style="opacity:1;vector-effect:none;fill:#ffffff;fill-opacity:1;stroke:#000000;stroke-width:2.03;stroke-linecap:square;stroke-linejoin:miter;stroke-miterlimit:4;stroke-dasharray:none;stroke-dashoffset:0;stroke-opacity:1;marker:none;marker-start:none;marker-mid:none;marker-end:none;paint-order:normal"
             d="m -2315.6747,-2494.3999 2.0716,5.5258 -1.2119,7.1759 -0.4041,2.6631 1.5487,2.99 5.9933,1.9933 4.377,-0.8636 3.165,-5.2492 -0.6735,-5.5201 -2.3567,-6.0465 -0.8081,-3.0565 0.2019,-5.1162 -3.0975,3.5214 v 2.7907 l -2.7804,-3.3291 0.5709,-2.4246 0.5506,-6.4239 -2.5883,-3.2054 0.9439,5.712 -1.4656,4.6368 -0.761,3.2987 0.7488,4.194 -2.559,-2.3256 z"
             id="path8369-0-2-8"
             sodipodi:nodetypes="cccccccccccccccccccccccc"
             inkscape:connector-curvature="0" />
          <path
             style="opacity:1;vector-effect:none;fill:none;fill-opacity:1;stroke:#000000;stroke-width:0.676667;stroke-linecap:butt;stroke-linejoin:miter;stroke-miterlimit:4;stroke-dasharray:none;stroke-dashoffset:0;stroke-opacity:1"
             d="m -2307.6434,-2480.481 -1.9192,1.3289 0.7743,0.7973 1.3785,-1.2965 1.6519,1.3631 0.7407,-1.0631 -2.4242,-1.2625 z"
             id="path8371-4-9-8"
             sodipodi:nodetypes="cccccccc"
             inkscape:connector-curvature="0" />
          <path
             style="opacity:1;vector-effect:none;fill:none;fill-opacity:1;stroke:#000000;stroke-width:0.676667;stroke-linecap:butt;stroke-linejoin:miter;stroke-miterlimit:4;stroke-dasharray:none;stroke-dashoffset:0;stroke-opacity:1"
             d="m -2312.9801,-2483.6371 3.468,1.5781 -0.2526,1.0964 -1.633,-0.05 -1.5318,-1.196 -0.2862,-0.9966 z"
             id="path8373-1-3-4"
             inkscape:connector-curvature="0" />
          <path
             style="opacity:1;vector-effect:none;fill:none;fill-opacity:1;stroke:#000000;stroke-width:0.676667;stroke-linecap:butt;stroke-linejoin:miter;stroke-miterlimit:4;stroke-dasharray:none;stroke-dashoffset:0;stroke-opacity:1"
             d="m -2302.7577,-2483.6371 -3.468,1.5781 0.2527,1.0964 1.6328,-0.05 1.5321,-1.196 0.2861,-0.9966 z"
             id="path8373-0-2-2-4"
             inkscape:connector-curvature="0" />
          <path
             style="opacity:1;vector-effect:none;fill:#ffffff;fill-opacity:1;stroke:#000000;stroke-width:1.35334;stroke-linecap:square;stroke-linejoin:miter;stroke-miterlimit:4;stroke-dasharray:none;stroke-dashoffset:0;stroke-opacity:1;marker:none;marker-start:none;marker-mid:none;marker-end:none;paint-order:normal"
             d="m -2303.0233,-2463.3778 0.9522,-4.3675 0.523,-2.1002 -2.0729,-3.4074 -0.025,3.7354 -2.3871,4.1177 -1.7384,1.9162 -1.883,-4.1586 -0.7313,-2.5629 -0.51,-1.1107 -0.7727,3.0689 0.243,2.5277 0.099,3.337 -3.1604,-2.6759 -1.6377,-0.4445 -3.6145,0.9779 4.3126,1.4227 2.2172,2.9369 2.3665,1.8211 3.0675,-0.6285 4.7534,0.7217 1.027,-1.194 3.3409,-2.4818 3.7516,-4.8381 -0.6054,-1.4646 -0.7469,1.7417 -2.8858,2.3547 1.1405,-3.6588 -1.1703,-4.2029 -1.413,5.8514 z"
             id="path8412-8-3-6"
             sodipodi:nodetypes="ccccccccccccccccccccccccccccccc"
             inkscape:connector-curvature="0" />
          <path
             style="opacity:1;vector-effect:none;fill:#ffffff;fill-opacity:1;stroke:#000000;stroke-width:1.2;stroke-linecap:square;stroke-linejoin:miter;stroke-miterlimit:4;stroke-dasharray:none;stroke-dashoffset:0;stroke-opacity:1;marker:none;marker-start:none;marker-mid:none;marker-end:none;paint-order:normal"
             d="m -2262.9301,-2498.4925 -3.4284,-1.2685 -3.2675,0.7222 -1.3192,2.4322 -1.6035,2.6245 -1.7618,0.1409 0.7143,2.2084 1.7142,0.047 -0.4286,1.7384 -1.6189,0.8456 1.1427,2.3492 1.6666,-1.1277 h 0.7142 l -1.5237,1.8794 c 0,0 1.5713,1.2216 1.8571,1.0806 0.2857,-0.141 1.3808,-1.5034 1.3808,-1.5034 l 0.7113,0.1449 -0.1346,1.8937 1.4141,0.1002 0.2356,-1.8605 1.1449,0.2326 -0.066,1.6944 1.2121,-0.2325 0.2021,-2.6912 c 0,0 1.5149,0.9303 1.616,0.7974 0.1014,-0.1328 1.2121,-1.3288 1.2121,-1.3288 l -1.3803,-2.3256 1.6833,-4.0864 -0.8754,-2.8239 z"
             id="path8261-2-6-7"
             sodipodi:nodetypes="ccccccccccccccscccccccccsccccc"
             inkscape:connector-curvature="0" />
          <path
             style="opacity:1;vector-effect:none;fill:#ffffff;fill-opacity:1;stroke:#000000;stroke-width:0.676667;stroke-linecap:butt;stroke-linejoin:miter;stroke-miterlimit:4;stroke-dasharray:none;stroke-dashoffset:0;stroke-opacity:1"
             d="m -2269.8995,-2495.6472 1.6835,1.8605 -1.0102,1.5281 -0.9765,-1.5614 z"
             id="path8263-4-1-9"
             inkscape:connector-curvature="0" />
          <path
             style="opacity:1;vector-effect:none;fill:#ffffff;fill-opacity:1;stroke:#000000;stroke-width:0.676667;stroke-linecap:butt;stroke-linejoin:miter;stroke-miterlimit:4;stroke-dasharray:none;stroke-dashoffset:0;stroke-opacity:1"
             d="m -2266.5327,-2492.6904 3.6364,-0.5317 -1.1785,1.6944 -2.222,0.3322 z"
             id="path8265-5-6-8"
             inkscape:connector-curvature="0" />
          <path
             style="opacity:1;vector-effect:none;fill:#ffffff;fill-opacity:1;stroke:#000000;stroke-width:0.676667;stroke-linecap:butt;stroke-linejoin:miter;stroke-miterlimit:4;stroke-dasharray:none;stroke-dashoffset:0;stroke-opacity:1"
             d="m -2269.8995,-2491.2287 c 0.3703,-0.033 1.9191,-0.2658 1.9191,-0.2658 l 0.404,1.5614 -1.2121,0.1002 v -0.8637 l -1.0775,0.2325 z"
             id="path8267-4-78-8"
             inkscape:connector-curvature="0" />
          <path
             style="opacity:1;vector-effect:none;fill:#ffffff;fill-opacity:1;stroke:#000000;stroke-width:1.2;stroke-linecap:square;stroke-linejoin:miter;stroke-miterlimit:4;stroke-dasharray:none;stroke-dashoffset:0;stroke-opacity:1;marker:none;marker-start:none;marker-mid:none;marker-end:none;paint-order:normal"
             d="m -2252.7879,-2495.3915 -2.5238,-0.5639 -3.9045,1.2216 -1.5235,4.6043 4.1901,3.4767 -1.1905,1.4097 1.5713,1.8792 1.6191,-2.5839 0.1428,2.537 h 1.4285 l -0.095,-2.1614 0.7834,-0.3077 0.066,1.5283 1.414,-0.598 -0.8417,-1.5616 0.4377,-0.1992 0.7744,1.4285 0.7743,-0.6977 -1.3803,-2.3588 0.3366,-1.0962 -1.111,-0.5317 0.5723,-1.661 -0.9763,-1.4951 z"
             id="path8269-5-34-3"
             inkscape:connector-curvature="0" />
          <path
             style="opacity:1;vector-effect:none;fill:#ffffff;fill-opacity:1;stroke:#000000;stroke-width:0.676667;stroke-linecap:butt;stroke-linejoin:miter;stroke-miterlimit:4;stroke-dasharray:none;stroke-dashoffset:0;stroke-opacity:1"
             d="m -2253.0984,-2491.4612 -1.3467,0.9634 1.4815,1.495 0.7743,-1.7276 z"
             id="path8271-9-5-9"
             inkscape:connector-curvature="0" />
          <path
             style="opacity:1;vector-effect:none;fill:#ffffff;fill-opacity:1;stroke:#000000;stroke-width:1.2;stroke-linecap:square;stroke-linejoin:miter;stroke-miterlimit:4;stroke-dasharray:none;stroke-dashoffset:0;stroke-opacity:1;marker:none;marker-start:none;marker-mid:none;marker-end:none;paint-order:normal"
             d="m -2250.4547,-2507.6542 -4.4955,-2.0128 -4.0754,3.3284 -0.8571,4.5574 1.5236,1.9732 -2.0236,0.7752 0.2381,2.5372 2.0236,-0.9867 -0.1666,1.7854 1.9999,-0.1409 0.3571,-1.4096 0.6665,0.094 0.1668,2.2083 1.9048,-0.9632 -0.3573,-1.151 0.8571,-0.235 0.7163,1.2242 2.9521,-1.3045 -1.4479,-1.5615 2.8957,-1.1628 0.034,-1.9601 -2.4241,-1.1295 0.6733,-2.6911 z"
             id="path8273-5-0-8"
             inkscape:connector-curvature="0" />
          <path
             style="opacity:1;vector-effect:none;fill:#ffffff;fill-opacity:1;stroke:#000000;stroke-width:0.676667;stroke-linecap:butt;stroke-linejoin:miter;stroke-miterlimit:4;stroke-dasharray:none;stroke-dashoffset:0;stroke-opacity:1"
             d="m -2257.9797,-2501.9454 2.5581,-0.1802 0.3337,1.3319 -1.5122,0.6439 -1.3479,-0.7702 z"
             id="path8275-5-6-5"
             sodipodi:nodetypes="cccccc"
             inkscape:connector-curvature="0" />
          <path
             style="opacity:1;vector-effect:none;fill:#ffffff;fill-opacity:1;stroke:#000000;stroke-width:0.676667;stroke-linecap:butt;stroke-linejoin:miter;stroke-miterlimit:4;stroke-dasharray:none;stroke-dashoffset:0;stroke-opacity:1"
             d="m -2251.672,-2504.5727 -2.0376,1.4371 0.8405,1.4436 1.6898,-0.9341 0.2362,-1.2435 z"
             id="path8277-7-1-8"
             sodipodi:nodetypes="cccccc"
             inkscape:connector-curvature="0" />
          <path
             style="opacity:1;vector-effect:none;fill:#ffffff;fill-opacity:1;stroke:#000000;stroke-width:0.676667;stroke-linecap:butt;stroke-linejoin:miter;stroke-miterlimit:4;stroke-dasharray:none;stroke-dashoffset:0;stroke-opacity:1"
             d="m -2251.7317,-2500.6251 -2.2558,-0.1929 -0.5927,1.9815 1.0438,-0.2326 0.323,-0.7299 0.9564,-0.067 z"
             id="path8279-5-06-5"
             sodipodi:nodetypes="ccccccc"
             inkscape:connector-curvature="0" />
          <path
             style="opacity:1;vector-effect:none;fill:#ffffff;fill-opacity:1;stroke:#000000;stroke-width:1.2;stroke-linecap:square;stroke-linejoin:miter;stroke-miterlimit:4;stroke-dasharray:none;stroke-dashoffset:0;stroke-opacity:1;marker:none;marker-start:none;marker-mid:none;marker-end:none;paint-order:normal"
             d="m -2260.2678,-2475.5805 0.1013,1.1959 0.1593,0.5279 -0.397,0.6724 -3.1381,-0.3181 -2.2212,0.3285 -0.4886,1.3378 v 0 l -0.3872,1.0403 -0.5297,1.6596 0.3651,0.8113 -0.6433,0.5528 -0.6309,1.0947 0.8435,1.4837 -0.3048,1.2405 0.404,1.196 1.9284,3.101 6.3544,-1.3402 0.2736,-2.4453 2.5401,-3.4073 -1.2313,-1.8882 0.1013,-2.7574 -0.1524,-1.8088 z"
             id="path8365-3-1-8"
             sodipodi:nodetypes="cccccccccccccccccccccccc"
             inkscape:connector-curvature="0" />
          <path
             style="fill:#ffffff;stroke:#000000;stroke-width:0.722189;stroke-linecap:butt;stroke-linejoin:miter;stroke-miterlimit:4;stroke-dasharray:none;stroke-opacity:1"
             d="m -2290.2883,-2479.086 -1.0574,-4.1046 -0.029,-3.0295 1.1583,2.8656 1.6301,2.0904 1.0295,0.6814 0.6673,-0.7478 c 0,0 0.6854,1.0627 0.7384,0.9449 0.053,-0.1178 0.712,-0.9384 0.712,-0.9384 l 0.4865,0.8021 0.5138,-0.9483 0.6782,1.1154 0.7684,-0.823 0.2036,0.6193 1.2579,-1.2486 0.8784,0.8965 c 0,0 1.645,-3.3137 1.6694,-3.4875 0.024,-0.1738 1.0107,-3.7318 1.0107,-3.7318 l -0.011,4.8342 -0.2617,2.5961 -0.1741,1.2416 -1.4347,0.3494 -1.1082,-1.2831 -1.049,0.6226 -0.6145,-0.5337 -1.1753,0.7482 -0.2938,-0.3634 h -0.9247 l -0.5775,0.3665 -0.3799,-0.2681 -0.7469,0.5397 -0.8489,0.4898 -1.478,0.061 z"
             id="path8331-3-87-2"
             sodipodi:nodetypes="cccccccsccccccccsccccccccccccccccc"
             inkscape:connector-curvature="0" />
          <path
             style="opacity:1;vector-effect:none;fill:#ffffff;fill-opacity:1;stroke:#000000;stroke-width:1.2;stroke-linecap:square;stroke-linejoin:miter;stroke-miterlimit:4;stroke-dasharray:none;stroke-dashoffset:0;stroke-opacity:1;marker:none;marker-start:none;marker-mid:none;marker-end:none;paint-order:normal"
             d="m -2268.6483,-2475.038 -0.4949,2.7483 0.6086,4.1302 2.2825,-3.6766 -0.028,-3.3564 z"
             id="path8807-45-3"
             sodipodi:nodetypes="cccccc"
             inkscape:connector-curvature="0" />
          <path
             style="opacity:1;vector-effect:none;fill:none;fill-opacity:1;stroke:#000000;stroke-width:0.676667;stroke-linecap:butt;stroke-linejoin:miter;stroke-miterlimit:4;stroke-dasharray:none;stroke-dashoffset:0;stroke-opacity:1;marker:none;marker-start:none;marker-mid:none;marker-end:none;paint-order:normal"
             d="m -2285.1688,-2484.9164 c -0.067,0.017 -1.2291,1.0299 -1.2291,1.0299 l 0.1685,0.6478 1.3941,-0.8291 1.1647,0.7959 0.2863,-0.7475 -1.128,-0.8472 z"
             id="path8333-9-5-4"
             sodipodi:nodetypes="cccccccc"
             inkscape:connector-curvature="0" />
        </g>
      </g>
    </g>
  </g>
</svg>
