<?xml version="1.0" encoding="UTF-8" standalone="no"?>
<svg
   xmlns:dc="http://purl.org/dc/elements/1.1/"
   xmlns:cc="http://creativecommons.org/ns#"
   xmlns:rdf="http://www.w3.org/1999/02/22-rdf-syntax-ns#"
   xmlns:svg="http://www.w3.org/2000/svg"
   xmlns="http://www.w3.org/2000/svg"
   xmlns:sodipodi="http://sodipodi.sourceforge.net/DTD/sodipodi-0.dtd"
   xmlns:inkscape="http://www.inkscape.org/namespaces/inkscape"
   width="72.871803mm"
   height="102.58927mm"
   viewBox="0 0 72.871803 102.58927"
   version="1.1"
   id="svg2607"
   inkscape:version="1.0.1 (3bc2e813f5, 2020-09-07)"
   sodipodi:docname="char_mage_m.svg">
  <defs
     id="defs2601" />
  <sodipodi:namedview
     id="base"
     pagecolor="#ffffff"
     bordercolor="#666666"
     borderopacity="1.0"
     inkscape:pageopacity="0.0"
     inkscape:pageshadow="2"
     inkscape:zoom="0.98994949"
     inkscape:cx="146.01198"
     inkscape:cy="203.7624"
     inkscape:document-units="mm"
     inkscape:current-layer="layer1"
     inkscape:document-rotation="0"
     showgrid="false"
     fit-margin-top="0"
     fit-margin-left="0"
     fit-margin-right="0"
     fit-margin-bottom="0"
     inkscape:window-width="1920"
     inkscape:window-height="1017"
     inkscape:window-x="-8"
     inkscape:window-y="-8"
     inkscape:window-maximized="1" />
  <metadata
     id="metadata2604">
    <rdf:RDF>
      <cc:Work
         rdf:about="">
        <dc:format>image/svg+xml</dc:format>
        <dc:type
           rdf:resource="http://purl.org/dc/dcmitype/StillImage" />
        <dc:title></dc:title>
      </cc:Work>
    </rdf:RDF>
  </metadata>
  <g
     inkscape:label="Capa 1"
     inkscape:groupmode="layer"
     id="layer1"
     transform="translate(-817.7639,321.05782)">
    <path
       id="path881-5-9"
       style="fill:#ffffff;stroke:#000000;stroke-width:3.31837;stroke-linecap:butt;stroke-linejoin:miter;stroke-miterlimit:4;stroke-dasharray:none;stroke-opacity:1"
       d="m 829.90127,-320.34743 3.54398,7.48027 1.0812,4.38649 -2.15296,17.77665 2.78127,-9.83559 0.695,5.93534 -2.87784,9.38619 3.12789,6.57402 0.41533,-9.13343 2.97943,7.6846 -1.03918,11.12059 -7.01602,3.00164 -8.16048,-2.83706 -2.78991,-6.67434 2.66191,-16.30953 -2.19968,-11.00525 2.16581,5.31497 2.83416,1.99063 2.0383,-10.97582 3.51704,-5.12595 z m 44.46494,1.94136 5.44182,0.18756 6.97223,9.13331 2.09218,8.83265 -2.62008,4.69115 -8.31432,2.25875 3.55637,6.96933 0.70875,7.41446 -2.79613,17.10906 -3.34168,6.47124 -3.3342,7.4861 -0.90332,1.70079 0.47,0.11896 0.93374,1.99026 -0.12758,1.98034 -0.0978,1.06779 -1.012,1.35835 -0.15812,0.73376 -0.93982,4.19416 0.44066,6.12939 -3.52275,1.54785 -3.76695,-2.74376 -1.01936,7.10358 -2.91541,-0.008 -2.41966,-3.23227 -0.96091,-0.82647 -0.35356,0.27746 2.33687,3.20678 -1.00839,1.6661 -3.29502,0.55584 -2.02474,-2.56838 -1.42577,-3.22746 -1.15661,-1.63357 -0.50367,0.20167 -0.92512,0.92976 -1.88671,0.47078 -1.48659,-0.15121 1.04912,2.80772 0.75795,2.00323 -0.16623,1.33802 -3.72669,0.63787 -1.18719,-0.87558 -0.21241,-3.59024 -0.80409,-0.11729 -0.72476,2.74918 -2.4133,-0.007 -0.26645,-1.33252 1.35851,-2.18623 -0.6211,-0.27224 -1.88081,2.77281 -1.32159,-1.13963 1.48026,-2.21294 -0.37825,-0.0958 -2.17361,1.20361 -0.79655,-0.37417 0.0506,-1.10853 1.9222,-0.77845 -0.28287,-0.35912 -2.27994,0.60163 -0.72609,-1.33389 0.50857,-0.53255 2.09695,-0.44669 0.0806,-0.0831 -3.04059,-1.90905 -0.26595,0.84453 -3.96342,-0.0593 -1.73033,-2.13338 -1.32344,-8.48599 -0.85672,-3.1485 -0.199,0.15856 -1.21225,0.37119 -1.5234,-1.04466 -0.50001,-1.31892 1.46658,-1.24628 1.71832,-0.095 0.54665,-0.31591 -0.24716,-0.8462 0.51988,-2.05351 1.42147,-0.61771 0.7552,0.65121 -0.31469,1.24293 -0.32546,0.96677 0.91616,0.24019 -0.16553,-0.95557 0.76922,-1.78915 0.83862,-0.13269 1.01101,1.0035 -0.28111,1.33767 -0.0465,1.09359 1.33294,0.34948 0.14362,-0.39101 0.18265,-2.31142 1.10167,0.0777 0.81195,2.01692 -0.13833,1.15882 0.5197,0.13628 0.47725,0.0221 0.15845,-0.42116 1.2714,-1.50641 -2.45797,-1.18272 -2.40253,-2.23467 0.10883,-4.44521 2.73635,-3.64077 -1.07729,-1.30645 -2.49974,-1.69005 0.22156,-0.55384 0.95527,0.24187 3.24465,1.95991 0.0919,0.10273 0.43529,-0.57918 1.31179,-0.6844 1.0854,1.49459 0.38648,1.84628 -0.25474,1.23432 1.55568,1.73802 0.35992,0.17849 0.0124,-0.0706 0.11581,-0.2009 -0.6296,-0.55274 0.7291,0.38007 0.31701,-0.54999 -0.51769,-0.71283 0.6341,0.51082 1.04325,-1.81004 2.28783,-3.2448 2.71363,-3.22327 2.91712,-3.45923 2.17972,-3.27217 1.37017,-1.55076 1.75391,1.24907 -1.27574,1.63215 -1.30452,2.19992 -0.36216,3.58852 0.86529,2.26047 2.63566,2.53613 1.63147,1.50556 0.91053,1.02081 0.9542,-0.66371 2.09047,-2.806 1.35272,-2.50396 0.72952,0.1847 0.14808,0.21001 -1.37013,1.55072 -0.30954,1.79053 0.014,2.10243 -0.17746,2.54783 0.3824,-0.10632 -0.38763,0.18147 -0.0574,0.82395 -0.51749,1.24906 -1.01628,0.87551 0.0614,0.37272 1.70792,1.01868 2.68501,0.47641 2.23371,-2.07748 0.43884,-2.77033 -0.79796,-2.18589 -0.88343,-0.71241 -0.98163,0.47028 -0.315,1.35782 0.57732,1.35375 0.68818,0.46175 0.52979,-0.84346 -0.1929,-1.05514 -0.36426,-0.26473 -0.3191,0.46551 0.13372,0.49386 -0.35638,-0.6365 0.30573,-0.52636 0.46041,-0.2285 0.6919,1.46903 -0.2736,1.08079 -0.786,0.60609 -1.53601,-1.76896 -0.26408,-2.137 2.54196,-2.31789 0.58212,-0.25516 1.26343,2.50499 -0.0585,3.75166 -0.59447,2.12092 -2.91541,2.88465 -0.15422,0.0379 3.0917,2.21504 0.16473,0.59248 0.24159,0.005 0.96313,0.11165 -0.14858,-0.75932 0.37729,-1.49028 0.42081,-0.0561 1.15606,0.25201 0.64502,1.56497 4.57787,-10.61251 3.20118,-10.10085 1.73957,-10.79957 -1.20097,-8.44842 -3.43439,-4.04516 -6.6585,-5.95203 -1.51052,-6.22637 3.39064,-8.72465 z m -39.71004,56.94975 -0.91384,0.57774 1.44886,1.61866 z m -1.81884,1.92344 -1.28401,2.6101 -0.0434,3.23798 1.38797,1.55895 1.876,1.10747 2.71062,0.34559 0.1131,-0.66881 -1.64023,-0.66928 -0.72895,-2.42089 -0.62282,-1.56707 -0.34795,0.10148 -0.87581,-2.11509 0.29845,-0.31453 -0.14092,-0.35455 z m 35.95837,12.55924 -0.58803,0.98236 0.15761,0.087 0.077,-0.25009 z"
       sodipodi:nodetypes="ccccccccccccccccccccccccccccccccccccccccccccccccccccccccccccccccccccccccccccccccccccccccccccccccccccccccccccccccccccccccccccccccccccccccccccccccccccccccccccccccccccccccccccccccccccccccccccccccccccccccccccccccccccccccccccccccccccccccccccccccccccc" />
    <path
       style="fill:#ffffff;stroke:#000000;stroke-width:0.737414;stroke-linecap:butt;stroke-linejoin:miter;stroke-miterlimit:4;stroke-dasharray:none;stroke-opacity:1"
       d="m 844.24547,-230.5822 0.26371,2.2519 1.54253,4.12825 0.75793,2.00324 -0.16622,1.33801 -3.7267,0.63788 -1.18719,-0.87558 -0.21239,-3.59024 -0.80411,-0.11732 -0.72474,2.7492 -2.41334,-0.007 -0.26644,-1.33254 1.35852,-2.18622 -0.62112,-0.27226 -1.8808,2.7728 -1.32159,-1.13962 1.48029,-2.21291 -0.37827,-0.0958 -2.17359,1.20359 -0.79656,-0.37417 0.0506,-1.10851 1.92219,-0.77845 -0.28287,-0.35912 -2.27993,0.60161 -0.72612,-1.33389 0.50858,-0.53254 2.09696,-0.44668 2.0614,-2.1233 0.75382,-1.1605 4.29037,0.7699 z"
       id="path881-5" />
    <path
       style="fill:#ffffff;stroke:#000000;stroke-width:0.368706;stroke-linecap:butt;stroke-linejoin:miter;stroke-miterlimit:4;stroke-dasharray:none;stroke-opacity:1"
       d="m 844.41581,-224.21367 1.44848,1.66053 -0.76751,1.21453 -2.55631,0.3304 -0.28797,-0.90671 -0.0216,-1.84557 z"
       id="path883-9" />
    <path
       style="fill:#ffffff;stroke:#000000;stroke-width:0.737414;stroke-linecap:butt;stroke-linejoin:miter;stroke-miterlimit:4;stroke-dasharray:none;stroke-opacity:1"
       d="m 855.805,-257.99983 1.15161,-0.80103 2.09046,-2.80598 1.35271,-2.50397 0.72954,0.18469 0.14809,0.21001 -1.37015,1.55074 -0.30953,1.79051 0.014,2.10243 -0.2401,3.44694 -0.51749,1.24908 -1.72825,1.48884 -2.14861,-4.91422 z"
       id="path863-5" />
    <path
       style="fill:#ffffff;stroke:#000000;stroke-width:0.737414;stroke-linecap:butt;stroke-linejoin:miter;stroke-miterlimit:4;stroke-dasharray:none;stroke-opacity:1"
       d="m 839.4576,-255.63811 -1.8424,-0.91371 -4.61183,-5.15234 -3.24465,-1.95994 -0.95529,-0.24185 -0.22153,0.55384 2.49974,1.69003 2.45768,2.98055 1.68906,4.24975 0.72894,2.42091 2.1007,0.85711 1.8187,-0.7594 -0.79403,-1.7844 z"
       id="path865-2"
       sodipodi:nodetypes="cccccccccccccc" />
    <path
       style="fill:#ffffff;stroke:#000000;stroke-width:0.737414;stroke-linecap:butt;stroke-linejoin:miter;stroke-miterlimit:4;stroke-dasharray:none;stroke-opacity:1"
       d="m 855.92403,-254.83575 -0.35366,-1.55587 -1.96117,-2.02035 -2.6336,-0.95424 -3.38093,0.29414 -2.99239,1.48508 -1.55928,1.50286 -1.71868,2.81385 -0.95938,2.08601 -1.26003,0.88859 -1.71765,0.19769 0.46974,-2.77798 -0.0309,-2.64909 0.16138,-0.91887 1.69201,-2.93561 2.2878,-3.24481 2.71363,-3.22325 2.91713,-3.45925 2.17973,-3.27217 1.37016,-1.55074 1.7539,1.24907 -1.27575,1.63215 -1.30448,2.19991 -0.3622,3.58854 0.86532,2.26045 2.63566,2.53612 1.63146,1.50559 1.59009,1.78264 0.32984,1.54923 0.54598,1.42592 0.52546,3.18747 -1.73476,-0.87045 -0.7675,-1.05686 z"
       id="path867-0"
       sodipodi:nodetypes="cccccccccccccccccccccccccccccccccc" />
    <path
       style="fill:#ffffff;stroke:#000000;stroke-width:0.737414;stroke-linecap:butt;stroke-linejoin:miter;stroke-miterlimit:4;stroke-dasharray:none;stroke-opacity:1"
       d="m 872.53407,-242.14105 -0.69798,3.23884 -0.93981,4.19415 0.44065,6.1294 -3.52277,1.54785 -5.56156,-4.05096 -2.10554,-2.44413 1.05446,-7.37736 -1.84,-4.93855 2.76578,-0.96691 3.3172,0.0672 1.77759,0.20606 2.17617,1.20151 z"
       id="path891-7" />
    <path
       style="font-variation-settings:normal;opacity:1;vector-effect:none;fill:#ffffff;fill-opacity:1;stroke:#000000;stroke-width:0.368706;stroke-linecap:butt;stroke-linejoin:miter;stroke-miterlimit:4;stroke-dasharray:none;stroke-dashoffset:0;stroke-opacity:1;stop-color:#000000;stop-opacity:1"
       d="m 870.75377,-240.07667 -0.50014,3.46447 -0.27266,7.31742 -1.86129,1.58305 1.29148,-6.91851 -2.01249,-5.22478 -1.16768,-2.88328 0.85985,-2.715 2.12193,0.24967 2.66234,4.92928 z"
       id="path889-9"
       sodipodi:nodetypes="ccccccccccc" />
    <path
       style="fill:#ffffff;stroke:#000000;stroke-width:1.67442;stroke-linecap:butt;stroke-linejoin:miter;stroke-miterlimit:4;stroke-dasharray:none;stroke-opacity:1"
       d="m 870.38395,-240.95626 c -0.44063,1.63578 -1.89752,2.19929 -1.89752,2.19929 l -2.63964,5.10388 -1.61063,2.56193 -1.20829,8.42018 -2.91542,-0.008 -2.95155,-3.94279 3.25091,-8.79114 2.89951,-3.27585 3.86278,-3.34882 1.26819,-4.11695 4.99379,-11.57671 3.20119,-10.10084 1.73958,-10.79959 -1.201,-8.44839 -3.43437,-4.04517 -6.65851,-5.95205 -1.51053,-6.22633 3.39065,-8.72467 5.40312,-6.37795 5.44183,0.18754 6.97219,9.13332 2.09222,8.83266 -2.6201,4.69113 -8.31433,2.25875 3.55641,6.96937 0.70872,7.41444 -2.79614,17.10905 -3.34165,6.47125 -3.33421,7.4861 -1.72146,3.24115 -0.19755,3.01987 z"
       id="path893-6"
       sodipodi:nodetypes="ccccccccccccccccccccccccccccccccc" />
    <path
       style="fill:none;stroke:#000000;stroke-width:1.25582;stroke-linecap:butt;stroke-linejoin:miter;stroke-miterlimit:4;stroke-dasharray:none;stroke-opacity:1"
       d="m 877.93802,-293.30266 -4.89268,-7.33252 0.67763,-6.16984 1.56172,-4.96248 5.07323,1.76124 3.33459,6.1747 -2.06003,4.93598 -2.69991,-1.16469 -1.61651,-5.77347"
       id="path895-3"
       sodipodi:nodetypes="ccccccccc" />
    <path
       style="fill:#ffffff;stroke:#000000;stroke-width:0.737414;stroke-linecap:butt;stroke-linejoin:miter;stroke-miterlimit:4;stroke-dasharray:none;stroke-opacity:1"
       d="m 857.77004,-230.91895 2.54823,0.61485 0.67926,0.69741 -0.33338,0.37596 1.04895,0.30614 -0.92667,0.94711 -1.35398,-0.36999 -0.16059,0.025 2.36577,0.84155 -0.21988,1.35483 -2.72641,-1.13862 -0.0638,0.30502 2.48183,1.37015 -0.3473,1.00214 -1.2436,0.24657 -2.78657,-2.3967 -0.35353,0.2775 2.33684,3.20676 -1.00838,1.66609 -3.29501,0.55584 -2.02473,-2.56835 -1.42578,-3.22748 -1.37611,-1.94358 5.49904,-1.31456 z"
       id="path885-3" />
    <path
       style="fill:#ffffff;stroke:#000000;stroke-width:0.78182;stroke-linecap:butt;stroke-linejoin:miter;stroke-miterlimit:4;stroke-dasharray:none;stroke-opacity:1"
       d="m 855.47391,-252.13124 5.84214,2.12567 3.7221,2.6667 0.99284,3.57082 -0.15487,4.35801 -1.57694,5.37752 -2.88004,3.88365 -4.13339,2.70413 -4.55391,0.95952 -1.1231,-0.67233 -1.25231,-1.52411 -1.05541,0.42257 -0.92513,0.92975 -1.88671,0.47079 -4.35139,-0.44258 -1.87187,-1.99805 -0.54539,0.22773 0.0972,1.06103 -2.10829,0.38077 -6.99647,-4.39283 -1.96543,-4.27751 4.15531,-11.04585 2.02829,-2.4032 6.04333,-0.89202 5.00784,-1.71956 5.03395,-0.85943 z"
       id="path847-6"
       sodipodi:nodetypes="ccccccccccccccccccccccccccc" />
    <path
       style="fill:#ffffff;stroke:#000000;stroke-width:1.02692;stroke-linecap:butt;stroke-linejoin:miter;stroke-miterlimit:4;stroke-dasharray:none;stroke-opacity:1"
       d="m 834.43882,-246.84651 0.91645,3.90928 -2.43256,5.79509 -1.15142,4.0102 -0.73237,2.32567 -3.96345,-0.0594 -1.73032,-2.13334 -1.32344,-8.48602 -1.63719,-6.01685 2.42339,-1.40058 7.45921,1.95572 z"
       id="path877-6" />
    <path
       style="fill:#ffffff;stroke:#000000;stroke-width:0.368706;stroke-linecap:butt;stroke-linejoin:miter;stroke-miterlimit:4;stroke-dasharray:none;stroke-opacity:1"
       d="m 850.19444,-254.69561 0.87021,-1.25692 1.84531,-0.0614 1.65182,0.70281 3.03182,2.80061 2.01363,1.20102 2.68501,0.47643 2.23372,-2.07748 0.43884,-2.77033 -0.79794,-2.18589 -0.88346,-0.71244 -0.98161,0.47029 -0.31501,1.35784 0.57734,1.35374 0.68816,0.46173 0.52979,-0.84343 -0.1929,-1.05515 -0.36425,-0.26473 -0.31911,0.4655 0.13372,0.49388 -0.35639,-0.63651 0.30577,-0.52638 0.46037,-0.22847 0.69191,1.469 -0.27361,1.0808 -0.78597,0.60607 -1.53603,-1.76895 -0.26406,-2.13698 2.54193,-2.31791 0.58213,-0.25515 1.26344,2.505 -0.0585,3.75167 -0.59445,2.12091 -2.91542,2.88464 -3.80195,0.93511 -5.35343,-0.7303 -2.6086,-2.00419 -1.4926,1.80727 -2.84805,0.68781 -3.58204,1.03052 -2.57399,0.17699 -3.66552,-0.20115 -4.45824,-2.1452 -2.40253,-2.23467 0.10883,-4.44519 4.10804,-5.46578 1.31178,-0.68444 1.08543,1.49463 0.38648,1.84627 -0.35891,1.73889 -0.20509,1.45255 -1.49269,0.43533 -0.87581,-2.11509 0.90191,-0.95049 0.60129,0.12347 0.17991,0.87935 -0.46516,-0.43403 -0.72475,0.47781 0.45729,0.80581 0.6755,0.17101 0.40974,-1.39136 -0.76135,-3.12543 -1.26651,0.80068 -1.83634,3.73288 -0.0434,3.23795 1.38794,1.55896 1.87601,1.10748 3.20307,0.40837 1.98546,-1.59624 2.22283,-1.85241 2.44377,-1.13519 2.96331,-0.80239 1.50328,0.0362 z"
       id="path849-6"
       sodipodi:nodetypes="cccccccccccccccccccccccccccccccccccccccccccccccccccccccccccccccccccccccccc" />
    <path
       style="fill:#ffffff;stroke:#000000;stroke-width:0.368706;stroke-linecap:butt;stroke-linejoin:miter;stroke-miterlimit:4;stroke-dasharray:none;stroke-opacity:1"
       d="m 847.16509,-257.82949 -1.11832,-0.14561 -1.46343,0.23942 -2.57497,1.09655 -1.11225,-0.50522 -0.67669,-0.69991 0.29383,0.84696 -0.80221,-0.28442 -0.46242,-0.42203 0.46194,0.58455 0.49119,0.38865 -0.76424,-0.19347 -1.43537,-1.15628 0.90451,1.24551 0.36302,0.0919 -0.43097,0.25684 -1.365,-0.71152 0.74852,0.65711 0.89678,0.63364 0.81576,0.55214 0.51078,0.23097 -0.93789,0.33181 -0.6305,-0.15962 0.79229,0.40389 1.58751,-0.16736 1.70478,-1.03222 1.05471,-1.03414 1.30743,-0.82785 1.13331,-0.14003 0.65009,0.002 z"
       id="path853-7" />
    <path
       style="fill:#ffffff;stroke:#000000;stroke-width:0.368706;stroke-linecap:butt;stroke-linejoin:miter;stroke-miterlimit:4;stroke-dasharray:none;stroke-opacity:1"
       d="m 851.7972,-257.96278 0.6177,-0.35189 1.07525,0.0892 0.84962,0.4184 0.57293,0.22637 1.49027,0.37728 0.53111,-0.1705 0.97804,-0.97223 -0.24114,0.71151 -0.52262,0.5386 1.00391,-0.0305 0.32625,-0.40534 -0.11608,0.45855 -0.88542,0.36543 1.06535,0.20871 0.82858,-0.54246 -0.36519,0.63944 -0.71855,0.50934 0.9171,0.23218 0.61236,-0.17027 -0.5074,0.2375 -1.1911,0.28804 -2.03444,-0.63703 -1.60709,-1.28107 -1.60369,-0.81261 -0.67887,0.0314 z"
       id="path855-3" />
    <path
       style="fill:#ffffff;stroke:#000000;stroke-width:0.221224;stroke-linecap:butt;stroke-linejoin:miter;stroke-miterlimit:4;stroke-dasharray:none;stroke-opacity:1"
       d="m 851.94969,-257.30825 0.46327,-0.0696 0.479,0.32253 0.68525,0.30286 0.69672,-0.13989 -0.21343,0.16161 -0.74373,0.0417 -0.56451,0.0152 -0.68612,-0.0155 -0.30969,-0.42343 z"
       id="path857-4" />
    <path
       style="fill:#ffffff;stroke:#000000;stroke-width:0.221224;stroke-linecap:butt;stroke-linejoin:miter;stroke-miterlimit:4;stroke-dasharray:none;stroke-opacity:1"
       d="m 847.6518,-256.80637 -0.50583,-0.2907 -0.33436,-0.0847 -0.56737,0.31379 -0.34307,0.43159 -0.41138,0.0992 -0.19832,-0.0197 0.27922,0.14184 0.48043,-0.0105 0.48841,-0.28296 0.80318,-0.0406 0.28962,-0.14015 z"
       id="path859-2" />
    <path
       style="fill:#ffffff;stroke:#000000;stroke-width:0.221224;stroke-linecap:butt;stroke-linejoin:miter;stroke-miterlimit:4;stroke-dasharray:none;stroke-opacity:1"
       d="m 849.95287,-256.62028 0.4404,-0.21379 0.47512,0.17111 0.30025,0.29965 -0.51321,-0.22141 -0.52105,0.0104 -0.18889,0.0233 z"
       id="path861-0" />
    <path
       style="fill:#ffffff;stroke:#000000;stroke-width:0.737414;stroke-linecap:butt;stroke-linejoin:miter;stroke-miterlimit:4;stroke-dasharray:none;stroke-opacity:1"
       d="m 867.05715,-248.93555 1.15603,0.25201 0.65493,1.58894 -0.8455,1.4124 -1.46222,-0.16687 -0.30134,-1.54009 0.37728,-1.49028 z"
       id="path869-3" />
    <path
       style="fill:#ffffff;stroke:#000000;stroke-width:0.737414;stroke-linecap:butt;stroke-linejoin:miter;stroke-miterlimit:4;stroke-dasharray:none;stroke-opacity:1"
       d="m 867.99037,-245.59935 1.56375,-0.72544 1.82504,0.0595 0.91869,0.23258 0.93373,1.99025 -0.12758,1.98033 -0.0978,1.0678 -1.04524,1.40299 -1.01684,0.95015 -1.57503,-0.0249 -1.68824,-0.59991 -1.02505,-0.83455 0.11732,-0.8041 -0.16588,-1.04831 0.36117,-0.97238 0.49423,-0.24865 -0.37007,-0.58247 0.27292,-0.85096 0.64302,-0.26849 -0.27602,-0.38615 z"
       id="path871-6" />
    <path
       style="font-variation-settings:normal;opacity:1;vector-effect:none;fill:#ffffff;fill-opacity:1;stroke:#000000;stroke-width:0.368706;stroke-linecap:butt;stroke-linejoin:miter;stroke-miterlimit:4;stroke-dasharray:none;stroke-dashoffset:0;stroke-opacity:1;stop-color:#000000;stop-opacity:1"
       d="m 833.90605,-245.20816 -0.1315,2.053 -4.13465,7.49835 -0.76653,3.18937 -1.96181,0.10044 -0.43981,-7.88295 -2.1443,-4.6728 -1.37869,-1.06496 1.09741,-1.95225 5.12457,0.75605 z"
       id="path875-0"
       sodipodi:nodetypes="ccccccccccc" />
    <path
       style="fill:#ffffff;stroke:#000000;stroke-width:0.737414;stroke-linecap:butt;stroke-linejoin:miter;stroke-miterlimit:4;stroke-dasharray:none;stroke-opacity:1"
       d="m 824.27538,-246.97337 -1.03034,-0.85342 -2.0481,0.11318 -1.4666,1.24629 0.49999,1.31893 1.5234,1.04466 1.21226,-0.37119 0.95771,-0.763 0.28122,-1.43189 z"
       id="path879-5" />
    <path
       style="fill:#ffffff;stroke:#000000;stroke-width:0.737414;stroke-linecap:butt;stroke-linejoin:miter;stroke-miterlimit:4;stroke-dasharray:none;stroke-opacity:1"
       d="m 831.45242,-245.7351 1.37359,-0.42855 0.60606,-1.48543 1.02779,-0.0848 0.94229,1.38863 -1.08833,2.25463 -2.51935,1.54733 -2.81147,-0.25174 -1.60136,-0.26164 -2.27994,-1.66977 -0.91663,-0.9221 -0.97033,-3.3221 0.51987,-2.05352 1.42147,-0.6177 0.75518,0.65122 -0.31466,1.24292 -0.34784,1.03326 1.15844,1.44335 -0.38546,-2.22522 0.76922,-1.78914 0.83865,-0.13271 1.01102,1.00351 -0.28114,1.33766 -0.0872,2.04805 0.86978,0.76648 0.64745,-1.76246 0.18263,-2.31141 1.10168,0.0776 0.81197,2.01692 -0.25653,2.14895 z"
       id="path873-7" />
    <path
       style="font-variation-settings:normal;opacity:1;vector-effect:none;fill:#ffffff;fill-opacity:1;stroke:#000000;stroke-width:1.47483;stroke-linecap:butt;stroke-linejoin:miter;stroke-miterlimit:4;stroke-dasharray:none;stroke-dashoffset:0;stroke-opacity:1;stop-color:#000000;stop-opacity:1"
       d="m 834.52644,-308.48067 -2.15295,17.77665 2.78126,-9.8356 0.69501,5.93535 -2.87785,9.38617 3.1279,6.57402 0.41532,-9.13341 2.97942,7.6846 -1.03917,11.12059 -7.01601,3.00166 -8.16047,-2.83709 -2.78992,-6.67433 2.66191,-16.30955 -2.19967,-11.00522 2.16581,5.31496 2.83414,1.99063 2.0383,-10.97581 3.51704,-5.12595 -1.60523,-8.75442 3.54398,7.48028 z"
       id="path981" />
    <path
       style="fill:#ffffff;stroke:#000000;stroke-width:0.368706;stroke-linecap:butt;stroke-linejoin:miter;stroke-miterlimit:4;stroke-dasharray:none;stroke-opacity:1"
       d="m 856.37153,-225.25929 -2.15071,0.47951 2.41686,2.78797 1.89024,-1.09691 -1.38662,-1.91777 z"
       id="path887-9" />
  </g>
</svg>
