<?xml version="1.0" encoding="UTF-8" standalone="no"?>
<svg
   xmlns:dc="http://purl.org/dc/elements/1.1/"
   xmlns:cc="http://creativecommons.org/ns#"
   xmlns:rdf="http://www.w3.org/1999/02/22-rdf-syntax-ns#"
   xmlns:svg="http://www.w3.org/2000/svg"
   xmlns="http://www.w3.org/2000/svg"
   xmlns:sodipodi="http://sodipodi.sourceforge.net/DTD/sodipodi-0.dtd"
   xmlns:inkscape="http://www.inkscape.org/namespaces/inkscape"
   width="60.568565mm"
   height="35.787487mm"
   viewBox="0 0 60.568567 35.787488"
   version="1.1"
   id="svg8"
   inkscape:version="1.0.1 (3bc2e813f5, 2020-09-07)"
   sodipodi:docname="char_engineer_f.svg">
  <defs
     id="defs2" />
  <sodipodi:namedview
     id="base"
     pagecolor="#ffffff"
     bordercolor="#666666"
     borderopacity="1.0"
     inkscape:pageopacity="0.0"
     inkscape:pageshadow="2"
     inkscape:zoom="1.4"
     inkscape:cx="266.87982"
     inkscape:cy="179.27196"
     inkscape:document-units="mm"
     inkscape:current-layer="g885"
     showgrid="false"
     fit-margin-top="0"
     fit-margin-left="0"
     fit-margin-right="0"
     fit-margin-bottom="0"
     inkscape:window-width="1920"
     inkscape:window-height="1017"
     inkscape:window-x="1912"
     inkscape:window-y="-8"
     inkscape:window-maximized="1"
     inkscape:document-rotation="0"
     inkscape:snap-global="false" />
  <metadata
     id="metadata5">
    <rdf:RDF>
      <cc:Work
         rdf:about="">
        <dc:format>image/svg+xml</dc:format>
        <dc:type
           rdf:resource="http://purl.org/dc/dcmitype/StillImage" />
        <dc:title />
      </cc:Work>
    </rdf:RDF>
  </metadata>
  <g
     inkscape:label="Capa 1"
     inkscape:groupmode="layer"
     id="layer1"
     transform="translate(-17.247278,-82.579319)">
    <g
       id="g885"
       transform="matrix(1.0491803,0,0,1.0491803,-2.6565976,-5.5128257)">
      <g
         id="g20840-2-5"
         transform="matrix(-0.52115097,0,0,0.53804639,-546.23837,1700.7663)"
         style="stroke-width:0.999213;stroke-miterlimit:4;stroke-dasharray:none">
        <path
           id="path19674-7-9-8-7"
           transform="scale(0.26458333)"
           d="m -4328.8848,-11351.848 -6.9765,1.231 -7.6641,2.599 -0.045,2.692 -0.09,5.107 v 0 0.268 l 0.4239,0.355 5.459,8.127 0.1347,13.272 -0.055,2.086 -2.1035,2.349 -9.4804,3.676 -5.0313,0.193 11.416,5.805 4.8711,0.58 -0.027,1.045 3.2851,8.619 v 0 l -6.2032,3.816 -3.6679,0.252 0.1972,1.883 -8.4355,5.192 -1.0488,-6.299 -6.7735,0.58 2.3516,11.754 -4.4375,7.49 -2.7266,1.5 0.7032,1.916 -4.8536,8.193 -0.1406,1.049 -8.5039,-46.543 -0.4551,-25.023 -5.0039,-16.379 -5.914,-3.184 -9.1504,8.446 h -0.3008 l -0.4805,-1.174 -4.5058,-4.182 -5.4102,0.947 -0.6269,-0.392 -2.6485,0.41 -1.0293,0.736 -3.1523,0.551 -1.5801,2.828 -3.2461,2.319 -0.8281,4.97 -6.5703,11.758 -3.3203,16.953 -8.2618,-14.056 -5.1464,-3.539 -2.8243,0.941 -2.0019,-1.264 -3.3125,4.348 -1.1914,-0.809 -0.4824,0.221 -4.3438,-0.543 -9.6504,4.504 -4.5039,23.807 -12.8672,41.177 -8.8906,17.782 -13.3086,12.459 -3.2168,18.015 4.1816,21.875 17.0508,7.401 4.291,-1.932 -2.6816,9.33 3.8594,22.52 15.4433,7.4 18.6582,-6.756 11.7188,-17.578 6.6191,-2.689 10.3809,-15.241 0.2344,10.092 5.791,17.373 13.5117,18.981 18.6582,6.756 15.7637,-1.61 13.5117,-11.26 -0.3223,-17.693 -4.5039,-21.232 -16.084,-18.659 -21.8769,-6.755 h -2.5723 l -7.2578,3.154 -4.0215,-4.854 2.2715,-6.988 0.3711,-2.041 11.5312,5.902 23.4454,8.555 7.1718,7.522 3.8731,-1.475 6.1289,3.064 15.9297,18.43 35.0332,10.008 21.3828,-2.274 9.7715,-4.613 1.8906,0.783 11.9023,10.938 8.3633,0.322 4.0254,-4.861 -1.0039,5.078 -0.2988,17.693 12.5801,11.26 14.6757,1.609 17.3711,-6.755 12.5801,-18.983 5.3926,-17.373 0.2168,-10.092 9.666,15.241 6.1602,2.687 10.9101,17.58 17.3731,6.756 14.3769,-7.398 3.5938,-22.52 -2.4981,-9.332 3.9961,1.932 15.8731,-7.401 3.8945,-21.877 -2.9961,-18.015 -12.3887,-12.461 -8.2773,-17.78 -11.9805,-41.179 -4.1933,-23.807 -8.9844,-4.504 -4.043,0.543 -0.4512,-0.223 -1.1093,0.809 -3.084,-4.346 -1.8614,1.262 -2.6308,-0.941 -4.791,3.539 -7.6934,14.058 -3.0898,-16.953 -6.1172,-11.758 -0.7715,-4.972 -3.0195,-2.317 -1.4727,-2.83 -2.9355,-0.552 -0.959,-0.735 -2.4668,-0.41 -0.584,0.393 -5.0352,-0.948 -4.1953,4.182 -0.4472,1.174 h -0.2793 l -8.5196,-8.446 -5.5058,3.184 -4.6602,16.379 -0.4238,25.025 -7.9922,47 -4.5566,-9.441 3.9101,-0.664 -5.7324,-3.115 -3.8809,-8.043 -2.041,-1.504 0.4317,-3.012 0.58,-12.963 -3.289,-4.838 -13.9317,-5.224 -7.7402,2.515 -1.9336,-0.193 -0.3105,0.553 -0.2598,-3.071 -0.6465,-1.176 -0.1387,-1.142 -1.1152,-1.139 -2.6133,-4.752 -5.539,-3.566 -0.2129,-0.219 -0.2012,-0.05 -2.1191,-1.365 -7.2637,-0.939 -1.4453,-0.356 -0.961,0.04 -3.0546,-0.394 -4.0547,0.718 -0.4434,0.02 -0.3398,0.119 -4.9961,0.885 -3.5645,-5.26 -5.998,-2.709 -0.6582,0.05 -1.4219,-8.045 0.2324,-1.416 4.1426,-6.66 -2.6719,-2.291 0.072,-0.446 -3.4903,-2.048 0.2071,-0.551 z m 52.9395,59.7 0.3672,0.04 0.018,0.02 0.6425,0.447 -1.6054,0.412 z m 2.8984,1.814 1.9356,1.346 1.7422,4.256 2.1289,6.964 6.7714,7.354 4.1778,2.457 -11.4981,8.9 -14.9765,-1.826 0.1543,-2.156 9.4101,-2.887 2.3262,-2.189 -1.5039,-5.61 -3.832,-3.406 v -2.328 l -1.2305,-4.24 0.06,-1.449 z m -60.3242,1.375 5.8535,20.434 0.6836,5.062 7.7578,0.854 -16.9746,-0.327 -1.8144,-9.8 2.5156,-0.58 -2.6699,-12.229 z m 168.8477,6.986 7.9941,32.145 -9.6953,-7.541 -3.1934,1.849 -2.4297,-11.496 z m -283.2383,0 7.8652,14.957 -2.6094,11.494 -3.4296,-1.849 -10.4141,7.541 z m 104.0058,0.637 0.8594,8.211 2.1289,0.387 1.8262,9.744 -1.1465,-0.02 -5.5527,1.026 -4.1055,-1.815 -0.834,-0.945 -2.3769,-8.762 1.5468,-0.386 -0.2695,-1.618 z m -11.0195,11.906 0.014,0.07 -0.029,-0.01 z m 101.6172,3.086 3.9648,1.102 0.3614,1.879 z m -32.9102,4.123 -0.08,0.924 -6.6231,-0.809 h -0.3594 z m -175.2871,33.844 2.5508,12.184 3.9629,3.248 -3.5644,6.826 -2.0059,-0.424 -8.8047,6.861 -0.06,-5.152 3.7168,-3.316 z m 309.4864,0 3.916,20.229 3.459,3.314 -0.057,5.154 -8.1953,-6.861 -1.8672,0.424 -3.3203,-6.828 3.6895,-3.248 z m -48.2461,17.543 0.3457,2.041 2.1133,6.988 -3.7442,4.854 -6.7558,-3.156 h -2.3965 l -20.3672,6.755 -14.9746,18.661 -1.4922,7.554 -2.8262,-5.84 -2.0508,-3.625 7.8555,-12.953 1.4453,-0.775 3.6055,1.474 6.6758,-7.521 21.83,-8.555 z"
           style="vector-effect:none;fill:#ffffff;fill-opacity:1;stroke:#000000;stroke-width:10.2033;stroke-linecap:square;stroke-linejoin:miter;stroke-miterlimit:4;stroke-dasharray:none;stroke-dashoffset:0;stroke-opacity:1;marker:none;marker-start:none;marker-mid:none;marker-end:none;paint-order:normal"
           inkscape:connector-curvature="0" />
        <g
           style="opacity:1;vector-effect:none;fill:#ffffff;fill-opacity:1;stroke:#000000;stroke-width:5.82832;stroke-linecap:square;stroke-linejoin:miter;stroke-miterlimit:4;stroke-dasharray:none;stroke-dashoffset:0;stroke-opacity:1;marker:none;marker-start:none;marker-mid:none;marker-end:none;paint-order:normal"
           id="g19800-9-4-0"
           transform="matrix(0.20589114,0,0,0.20589114,-1085.8404,-2135.4562)">
          <path
             style="vector-effect:none;fill:#ffffff;fill-opacity:1;stroke:#000000;stroke-width:5.82832;stroke-linecap:square;stroke-linejoin:miter;stroke-miterlimit:4;stroke-dasharray:none;stroke-dashoffset:0;stroke-opacity:1;marker:none;marker-start:none;marker-mid:none;marker-end:none;paint-order:normal"
             d="m -341.43682,-4094.9065 17.73565,-29.9423 32.2461,-19.8438 34.31315,-5.7877 39.6875,5.7877 33.07291,24.3912 13.6631,28.3183 -11.18263,11.7827 -6.20117,-32.2461 -28.9388,-26.4583 -39.27409,-4.5477 -38.03385,7.855 -26.45834,19.4302 -7.85482,31.4193 z"
             id="path19674-7-65-4"
             inkscape:connector-curvature="0" />
          <g
             style="vector-effect:none;fill:#ffffff;fill-opacity:1;stroke:#000000;stroke-width:3.42609;stroke-linecap:square;stroke-linejoin:miter;stroke-miterlimit:4;stroke-dasharray:none;stroke-dashoffset:0;stroke-opacity:1;marker:none;marker-start:none;marker-mid:none;marker-end:none;paint-order:normal"
             transform="matrix(1.701158,0,0,1.701158,175.82849,2870.5637)"
             id="g20238-1-9">
            <path
               sodipodi:nodetypes="cccccccccccccccccccccccc"
               inkscape:connector-curvature="0"
               id="path19727-1-4-5"
               d="m -272.23146,-4102.8347 -5.47769,-19.1204 -2.48047,-6.5111 0.31007,-11.8856 -0.10335,-10.0253 -4.44418,-6.6146 0.10335,-5.7878 10.542,-1.7568 6.51121,3.824 -1.34055,8.1679 2.06403,11.6759 0.93017,7.0278 4.96095,9.6118 9.40511,9.9219 9.71517,2.1706 3.20394,-2.0672 2.17041,2.4805 5.58105,4.9609 1.13688,4.2376 -1.757,1.6536 -9.09505,2.7906 -20.15381,0.3098 -11.26545,-1.2401 z"
               style="vector-effect:none;fill:#ffffff;fill-opacity:1;stroke:#000000;stroke-width:3.42609;stroke-linecap:square;stroke-linejoin:miter;stroke-miterlimit:4;stroke-dasharray:none;stroke-dashoffset:0;stroke-opacity:1;marker:none;marker-start:none;marker-mid:none;marker-end:none;paint-order:normal" />
            <path
               inkscape:connector-curvature="0"
               id="path19698-6-0-7"
               d="m -259.43936,-4139.9248 -3.06943,-4.531 -4.53104,-2.0463 -4.23873,0.2924 -5.26187,3.6542 -4.96954,5.5541 -7.16201,2.7771 -3.80023,0.146 8.62362,4.385 12.27769,1.4618 9.79293,-3.2158 2.92326,-4.0925 z"
               style="vector-effect:none;fill:#ffffff;fill-opacity:1;stroke:#000000;stroke-width:3.42609;stroke-linecap:square;stroke-linejoin:miter;stroke-miterlimit:4;stroke-dasharray:none;stroke-dashoffset:0;stroke-opacity:1;marker:none;marker-start:none;marker-mid:none;marker-end:none;paint-order:normal" />
            <path
               inkscape:connector-curvature="0"
               id="path19700-9-97-6"
               d="m -231.37606,-4128.3778 5.84652,-1.9 10.52374,3.9463 2.48477,3.6541 -0.43849,9.7928 -0.73082,5.1157 2.48477,3.0694 6.7235,3.6542 -6.86966,1.1692 -5.26187,-1.4616 -4.96954,-2.9231 -5.11571,-5.5544 -1.60779,-5.2618 -1.31547,-3.2154 -3.36175,-2.3387 -2.48477,-3.2157 2.63094,-4.6771 z"
               style="vector-effect:none;fill:#ffffff;fill-opacity:1;stroke:#000000;stroke-width:3.42609;stroke-linecap:square;stroke-linejoin:miter;stroke-miterlimit:4;stroke-dasharray:none;stroke-dashoffset:0;stroke-opacity:1;marker:none;marker-start:none;marker-mid:none;marker-end:none;paint-order:normal" />
            <path
               inkscape:connector-curvature="0"
               style="opacity:1;vector-effect:none;fill:#ffffff;fill-opacity:1;stroke:#000000;stroke-width:6.4745;stroke-linecap:square;stroke-linejoin:miter;stroke-miterlimit:4;stroke-dasharray:none;stroke-dashoffset:0;stroke-opacity:1;marker:none;marker-start:none;marker-mid:none;marker-end:none;paint-order:normal"
               d="m -942.44141,-15653.035 -24.30664,1.103 -15.8457,5.526 -12.83984,13 -11.58401,20.433 -14.0762,-13.336 4.6876,38.282 7.2226,4.384 0.4512,23.414 25.90818,39.977 23.01367,5.713 26.87891,-8.486 27.49219,-13.745 11.59179,-13.794 5.95704,-1.135 19.92187,-23.828 -15.90625,4.089 4.30469,-10.63 -4.3125,-35.612 -27.07031,-27.623 z"
               transform="scale(0.26458333)"
               id="path19702-8-41-2" />
            <path
               inkscape:connector-curvature="0"
               id="path19704-0-0-4"
               d="m -248.56579,-4118.6527 2.3386,-2.7771 3.50791,-0.4384 h 4.23873 l -3.9464,3.9462 -3.50791,0.2924 -1.46163,-0.8771 z"
               style="vector-effect:none;fill:#ffffff;fill-opacity:1;stroke:#000000;stroke-width:1.71305;stroke-linecap:square;stroke-linejoin:miter;stroke-miterlimit:4;stroke-dasharray:none;stroke-dashoffset:0;stroke-opacity:1;marker:none;marker-start:none;marker-mid:none;marker-end:none;paint-order:normal" />
            <path
               inkscape:connector-curvature="0"
               id="path19708-5-8-6"
               d="m -255.49357,-4117.5198 2.14724,-0.6059 1.41066,1.5969"
               style="opacity:1;vector-effect:none;fill:#ffffff;fill-opacity:1;stroke:#000000;stroke-width:1.71305;stroke-linecap:square;stroke-linejoin:miter;stroke-miterlimit:4;stroke-dasharray:none;stroke-dashoffset:0;stroke-opacity:1;marker:none;marker-start:none;marker-mid:none;marker-end:none;paint-order:normal" />
            <path
               sodipodi:nodetypes="ccccccc"
               inkscape:connector-curvature="0"
               id="path19710-5-2-3"
               d="m -257.21742,-4113.4559 -0.80313,5.2491 1.61173,1.1021 2.18561,0.3234 1.86079,-5.4118 -1.83588,-1.8746 z"
               style="opacity:1;vector-effect:none;fill:#ffffff;fill-opacity:1;stroke:#000000;stroke-width:1.71305;stroke-linecap:square;stroke-linejoin:miter;stroke-miterlimit:4;stroke-dasharray:none;stroke-dashoffset:0;stroke-opacity:1;marker:none;marker-start:none;marker-mid:none;marker-end:none;paint-order:normal" />
            <path
               inkscape:connector-curvature="0"
               id="path19704-3-9-6-5"
               d="m -256.35706,-4120.7594 -0.77857,-3.5461 -2.90148,-2.0197 -3.75233,-1.9715 1.65811,5.3289 2.96938,1.8905 1.70186,-0.097 z"
               style="opacity:1;vector-effect:none;fill:#ffffff;fill-opacity:1;stroke:#000000;stroke-width:1.71305;stroke-linecap:square;stroke-linejoin:miter;stroke-miterlimit:4;stroke-dasharray:none;stroke-dashoffset:0;stroke-opacity:1;marker:none;marker-start:none;marker-mid:none;marker-end:none;paint-order:normal" />
            <path
               inkscape:connector-curvature="0"
               id="path19733-0-3-5"
               d="m -284.32373,-4162.8827 -0.10335,6.0979 1.96371,1.6536 4.85757,0.3098 5.06431,-0.4132 2.7905,-7.4414 -3.51398,-3.1007 -5.271,0.9303 z"
               style="opacity:1;vector-effect:none;fill:#ffffff;fill-opacity:1;stroke:#000000;stroke-width:1.71305;stroke-linecap:square;stroke-linejoin:miter;stroke-miterlimit:4;stroke-dasharray:none;stroke-dashoffset:0;stroke-opacity:1;marker:none;marker-start:none;marker-mid:none;marker-end:none;paint-order:normal" />
            <path
               inkscape:connector-curvature="0"
               id="path19737-9-5-4"
               d="m -291.30291,-4095.0525 -2.04626,-11.4009 -1.6078,0.2924 -2.33862,-11.693 5.11572,-0.4384 1.9001,11.4006 -1.1693,0.2923 2.77709,10.2315 z"
               style="opacity:1;vector-effect:none;fill:#ffffff;fill-opacity:1;stroke:#000000;stroke-width:1.71305;stroke-linecap:square;stroke-linejoin:miter;stroke-miterlimit:4;stroke-dasharray:none;stroke-dashoffset:0;stroke-opacity:1;marker:none;marker-start:none;marker-mid:none;marker-end:none;paint-order:normal" />
            <path
               inkscape:connector-curvature="0"
               id="path19739-9-8-7"
               d="m -280.04836,-4094.3217 -2.19244,-11.693 -1.60779,-0.2924 -1.31546,-12.5701 4.23873,-0.2923 2.77709,12.7161 -1.90013,0.4387 2.19245,11.839 z"
               style="opacity:1;vector-effect:none;fill:#ffffff;fill-opacity:1;stroke:#000000;stroke-width:1.71305;stroke-linecap:square;stroke-linejoin:miter;stroke-miterlimit:4;stroke-dasharray:none;stroke-dashoffset:0;stroke-opacity:1;marker:none;marker-start:none;marker-mid:none;marker-end:none;paint-order:normal" />
            <path
               sodipodi:nodetypes="ccccccccccccccccccccccccccccccccccccccc"
               inkscape:connector-curvature="0"
               style="opacity:1;vector-effect:none;fill:#ffffff;fill-opacity:1;stroke:#000000;stroke-width:6.4745;stroke-linecap:square;stroke-linejoin:miter;stroke-miterlimit:4;stroke-dasharray:none;stroke-dashoffset:0;stroke-opacity:1;marker:none;marker-start:none;marker-mid:none;marker-end:none;paint-order:normal"
               d="m -953.90625,-15654.043 -30.85937,5.469 -1.14454,1.926 -1.00195,-0.04 -5.79883,6.907 -16.29686,14.086 -3.3145,12.429 -0.5527,22.098 -4.4199,11.049 -7.4571,12.705 3.8672,26.24 6.271,-9.115 6.7095,-13.811 3.8672,-25.965 2.2109,-21.861 14.83258,-14.518 15.50924,-7.681 27.67918,1.172 18.02395,7.422 27.67181,25.711 3.5377,22.05 -2.0957,11.652 -1.41992,4.262 0.78711,-0.615 -0.78711,4.521 4.33736,6.247 -1.95312,8.594 8.20312,16.796 5.07812,12.891 v -24.609 l -3.51562,-12.11 0.78125,-18.75 0.006,-0.09 0.38477,-0.3 5.85937,-9.375 -2.73437,-32.422 -12.89063,-23.438 -23.04687,-14.843 z"
               transform="scale(0.26458333)"
               id="path19735-7-4-9" />
            <path
               sodipodi:nodetypes="ccccccccc"
               inkscape:connector-curvature="0"
               id="path19729-1-0-7"
               d="m -267.47721,-4160.5057 -7.33806,-0.3101 -2.79053,3.2042 2.06707,0.7232 3.30728,1.137 -0.72345,2.1703 3.79162,1.1369 3.85647,-6.2012 z"
               style="opacity:1;vector-effect:none;fill:#ffffff;fill-opacity:1;stroke:#000000;stroke-width:1.71305;stroke-linecap:square;stroke-linejoin:miter;stroke-miterlimit:4;stroke-dasharray:none;stroke-dashoffset:0;stroke-opacity:1;marker:none;marker-start:none;marker-mid:none;marker-end:none;paint-order:normal" />
            <path
               inkscape:connector-curvature="0"
               id="path19743-1-1-5"
               transform="matrix(0.75540555,0,0,0.75540555,2996.7989,4409.4725)"
               d="m -4284.9004,-11286.652 -2.625,20.716 1.7598,0.235 -0.4317,4.972 3.2832,1.917 0.461,-6.448 1.1426,0.153 2.0722,-20.579 z"
               style="opacity:1;vector-effect:none;fill:#ffffff;fill-opacity:1;stroke:#000000;stroke-width:2.26772;stroke-linecap:square;stroke-linejoin:miter;stroke-miterlimit:4;stroke-dasharray:none;stroke-dashoffset:0;stroke-opacity:1;marker:none;marker-start:none;marker-mid:none;marker-end:none;paint-order:normal" />
            <path
               inkscape:connector-curvature="0"
               id="path19741-2-6-6"
               d="m -236.16129,-4108.5193 -4.54753,-1.7568 -5.78776,0.5167 -1.13688,3.6174 1.13688,2.6871 1.65365,1.8603 10.23193,0.4135 1.9637,-1.9637 -1.34358,-2.7905 z"
               style="opacity:1;vector-effect:none;fill:#ffffff;fill-opacity:1;stroke:#000000;stroke-width:1.71305;stroke-linecap:square;stroke-linejoin:miter;stroke-miterlimit:4;stroke-dasharray:none;stroke-dashoffset:0;stroke-opacity:1;marker:none;marker-start:none;marker-mid:none;marker-end:none;paint-order:normal" />
            <path
               inkscape:connector-curvature="0"
               id="path19745-0-7-2"
               d="m -240.19205,-4113.4802 -2.68718,-0.7234 -2.17041,1.9638 0.82682,1.5502 2.99724,0.4135 1.65364,-1.1369 z"
               style="opacity:1;vector-effect:none;fill:#ffffff;fill-opacity:1;stroke:#000000;stroke-width:1.71305;stroke-linecap:square;stroke-linejoin:miter;stroke-miterlimit:4;stroke-dasharray:none;stroke-dashoffset:0;stroke-opacity:1;marker:none;marker-start:none;marker-mid:none;marker-end:none;paint-order:normal" />
          </g>
          <path
             style="opacity:1;vector-effect:none;fill:#ffffff;fill-opacity:1;stroke:#000000;stroke-width:8.74248;stroke-linecap:square;stroke-linejoin:miter;stroke-miterlimit:4;stroke-dasharray:none;stroke-dashoffset:0;stroke-opacity:1;marker:none;marker-start:none;marker-mid:none;marker-end:none;paint-order:normal"
             d="m -341.43682,-4094.9065 -5.26188,39.1716 11.69305,40.341 29.81727,34.4945 45.0182,12.8625 27.47865,-2.9234 42.09495,-19.8781 21.63213,-35.6637 6.43117,-40.3411 -8.18513,-25.1399 -71.91221,-8.7699 -60.80381,-1.1694 z"
             id="path19672-5-8-7"
             inkscape:connector-curvature="0" />
          <g
             style="vector-effect:none;fill:#ffffff;fill-opacity:1;stroke:#000000;stroke-width:5.82832;stroke-linecap:square;stroke-linejoin:miter;stroke-miterlimit:4;stroke-dasharray:none;stroke-dashoffset:0;stroke-opacity:1;marker:none;marker-start:none;marker-mid:none;marker-end:none;paint-order:normal"
             id="g19827-6-2-7">
            <path
               inkscape:connector-curvature="0"
               id="path19656-1-94-0"
               d="m -457.64648,-4172.8046 -12.40234,5.7878 -5.78776,30.5925 -16.53646,52.9166 -19.01693,38.0339 -3.7207,21.0838 23.97786,15.2964 13.64258,-19.0169 12.81576,-41.7547 9.50846,-51.2631 7.85482,-31.4192 v -11.9888 l -3.72071,-7.4414 z"
               style="vector-effect:none;fill:#ffffff;fill-opacity:1;stroke:#000000;stroke-width:5.82832;stroke-linecap:square;stroke-linejoin:miter;stroke-miterlimit:4;stroke-dasharray:none;stroke-dashoffset:0;stroke-opacity:1;marker:none;marker-start:none;marker-mid:none;marker-end:none;paint-order:normal" />
            <path
               inkscape:connector-curvature="0"
               id="path19654-1-6-2"
               d="m -439.45637,-4176.5254 6.61458,4.5477 31.83268,54.1567 33.48633,40.9279 31.41927,23.151 8.68164,7.4415 -5.78776,32.6593 -9.92188,-0.4133 -34.72656,-19.0169 -39.27409,-46.3021 -29.35221,-55.8106 -6.20117,-21.0839 4.54752,-17.3633 z"
               style="vector-effect:none;fill:#ffffff;fill-opacity:1;stroke:#000000;stroke-width:5.82832;stroke-linecap:square;stroke-linejoin:miter;stroke-miterlimit:4;stroke-dasharray:none;stroke-dashoffset:0;stroke-opacity:1;marker:none;marker-start:none;marker-mid:none;marker-end:none;paint-order:normal" />
            <path
               inkscape:connector-curvature="0"
               id="path19666-8-7-0"
               d="m -489.06575,-4063.2506 -12.40234,0.4135 -19.43034,18.1901 -4.13412,23.151 5.37435,28.112 21.91081,9.5084 16.53646,-7.4415 11.98893,-16.5364 -0.41341,-34.7266 -8.68164,-12.8156 z"
               style="vector-effect:none;fill:#ffffff;fill-opacity:1;stroke:#000000;stroke-width:5.82832;stroke-linecap:square;stroke-linejoin:miter;stroke-miterlimit:4;stroke-dasharray:none;stroke-dashoffset:0;stroke-opacity:1;marker:none;marker-start:none;marker-mid:none;marker-end:none;paint-order:normal" />
            <path
               inkscape:connector-curvature="0"
               id="path19662-7-3-6"
               d="m -451.44531,-4172.3913 -9.92187,4.5477 -4.96094,11.5755 0.41341,16.5365 3.72071,4.9609 12.40234,3.7206 4.54752,-0.4133 5.37435,-33.0729 z"
               style="vector-effect:none;fill:#ffffff;fill-opacity:1;stroke:#000000;stroke-width:5.82832;stroke-linecap:square;stroke-linejoin:miter;stroke-miterlimit:4;stroke-dasharray:none;stroke-dashoffset:0;stroke-opacity:1;marker:none;marker-start:none;marker-mid:none;marker-end:none;paint-order:normal" />
            <path
               inkscape:connector-curvature="0"
               id="path19668-9-5-9"
               d="m -487.4121,-4046.3006 -11.57552,6.201 -7.44141,9.5086 0.41341,24.3911 14.4694,3.7209 7.44141,-12.8159 2.06706,-20.6706 z"
               style="vector-effect:none;fill:#ffffff;fill-opacity:1;stroke:#000000;stroke-width:5.82832;stroke-linecap:square;stroke-linejoin:miter;stroke-miterlimit:4;stroke-dasharray:none;stroke-dashoffset:0;stroke-opacity:1;marker:none;marker-start:none;marker-mid:none;marker-end:none;paint-order:normal" />
            <path
               inkscape:connector-curvature="0"
               id="path19658-1-76-1"
               d="m -445.65755,-4176.9387 -6.61458,8.6815 -11.16211,55.8107 -21.49739,54.5703 -14.46941,13.6425 -3.7207,28.5255 11.57552,8.2682 26.87175,-23.9778 8.68164,-41.7547 14.4694,-54.1568 11.57552,-18.6036 v -21.0839 z"
               style="opacity:1;vector-effect:none;fill:#ffffff;fill-opacity:1;stroke:#000000;stroke-width:8.74248;stroke-linecap:square;stroke-linejoin:miter;stroke-miterlimit:4;stroke-dasharray:none;stroke-dashoffset:0;stroke-opacity:1;marker:none;marker-start:none;marker-mid:none;marker-end:none;paint-order:normal" />
            <path
               inkscape:connector-curvature="0"
               id="path19749-2-7-3"
               d="m -378.27148,-4021.0827 28.11198,8.6818 20.67057,23.9779 5.78776,27.2851 0.41341,22.7375 -17.36328,14.4695 -20.25716,2.067 -23.97786,-8.6815 -17.36328,-24.3914 -7.44141,-22.3243 -0.41341,-17.7765 9.50846,-17.7769 19.01693,-8.2682 z"
               style="opacity:1;vector-effect:none;fill:#ffffff;fill-opacity:1;stroke:#000000;stroke-width:8.74248;stroke-linecap:square;stroke-linejoin:miter;stroke-miterlimit:4;stroke-dasharray:none;stroke-dashoffset:0;stroke-opacity:1;marker:none;marker-start:none;marker-mid:none;marker-end:none;paint-order:normal" />
            <path
               inkscape:connector-curvature="0"
               id="path19751-17-8-5"
               d="m -370.83007,-3990.4902 14.4694,11.989 0.41341,17.3633 -4.13412,9.5083 -7.4414,4.5477 -21.08399,-4.1341 -5.37434,-7.0281 -4.13412,-17.7766 5.37435,-11.9891 11.16211,-5.7877 7.85482,3.7208 z"
               style="vector-effect:none;fill:#ffffff;fill-opacity:1;stroke:#000000;stroke-width:5.82832;stroke-linecap:square;stroke-linejoin:miter;stroke-miterlimit:4;stroke-dasharray:none;stroke-dashoffset:0;stroke-opacity:1;marker:none;marker-start:none;marker-mid:none;marker-end:none;paint-order:normal" />
            <path
               inkscape:connector-curvature="0"
               id="path19747-4-8-0"
               d="m -336.10351,-4051.6751 -50.4362,-14.4693 -52.91666,-28.5255 -23.97787,17.3633 7.44141,35.5533 50.43619,41.3412 7.44141,34.7266 12.81576,9.9218 18.1901,2.4805 7.85482,-14.056 -3.30729,-13.2292 -14.46941,-4.9609 -6.61458,-22.7375 -23.97786,-28.9388 -22.73763,-16.95 52.50325,26.8719 30.59245,11.162 17.36328,0.4135 9.50846,-16.95 -4.13411,-9.5083 z"
               style="opacity:1;vector-effect:none;fill:#ffffff;fill-opacity:1;stroke:#000000;stroke-width:8.74248;stroke-linecap:square;stroke-linejoin:miter;stroke-miterlimit:4;stroke-dasharray:none;stroke-dashoffset:0;stroke-opacity:1;marker:none;marker-start:none;marker-mid:none;marker-end:none;paint-order:normal" />
            <path
               inkscape:connector-curvature="0"
               id="path19642-7-97-6"
               d="m -393.47087,-4205.9904 9.35445,5.8465 8.18513,34.4945 8.76977,62.5578 24.5554,47.3567 18.70887,8.7699 4.67722,12.2777 -7.01585,23.386 -12.27767,4.6773 -40.58475,-42.5707 -20.67058,-66.9726 -10.74869,-44.6485 v -23.9778 l 2.06705,-12.4024 11.57552,-8.2682 z"
               style="vector-effect:none;fill:#ffffff;fill-opacity:1;stroke:#000000;stroke-width:5.82832;stroke-linecap:square;stroke-linejoin:miter;stroke-miterlimit:4;stroke-dasharray:none;stroke-dashoffset:0;stroke-opacity:1;marker:none;marker-start:none;marker-mid:none;marker-end:none;paint-order:normal" />
            <path
               inkscape:connector-curvature="0"
               id="path19644-8-9-8"
               d="m -385.71289,-4206.7043 -16.53645,2.8938 -15.70964,28.1119 -11.57552,59.118 -15.29622,67.3859 -14.4694,27.6987 -15.29623,14.4693 -5.37435,11.5755 -0.41341,21.4974 6.20117,5.3745 19.84375,-7.8549 13.64258,-11.9888 20.25716,-48.7826 24.39128,-100.8724 9.09505,-21.4974 7.44141,-14.056 3.30729,-18.6036 -3.72071,-9.0951 z"
               style="opacity:1;vector-effect:none;fill:#ffffff;fill-opacity:1;stroke:#000000;stroke-width:8.74248;stroke-linecap:square;stroke-linejoin:miter;stroke-miterlimit:4;stroke-dasharray:none;stroke-dashoffset:0;stroke-opacity:1;marker:none;marker-start:none;marker-mid:none;marker-end:none;paint-order:normal" />
            <path
               inkscape:connector-curvature="0"
               id="path19648-0-3-6"
               d="m -436.56249,-4024.8033 -21.4974,-4.5476 -28.11198,21.9109 -9.50846,33.0729 4.96094,28.9388 19.84374,9.5084 23.97787,-8.6815 15.70963,-23.5646 7.85482,-37.6203 z"
               style="opacity:1;vector-effect:none;fill:#ffffff;fill-opacity:1;stroke:#000000;stroke-width:8.74248;stroke-linecap:square;stroke-linejoin:miter;stroke-miterlimit:4;stroke-dasharray:none;stroke-dashoffset:0;stroke-opacity:1;marker:none;marker-start:none;marker-mid:none;marker-end:none;paint-order:normal" />
            <path
               inkscape:connector-curvature="0"
               id="path19650-4-1-5"
               d="m -448.13802,-4009.9204 -8.68164,4.5474 -8.26822,19.4304 -1.24024,18.1901 3.30729,6.2011 5.37435,4.5476 9.92188,-8.2682 7.4414,-7.855 4.54753,-21.0838 -5.37435,-8.6818 z"
               style="vector-effect:none;fill:#ffffff;fill-opacity:1;stroke:#000000;stroke-width:5.82832;stroke-linecap:square;stroke-linejoin:miter;stroke-miterlimit:4;stroke-dasharray:none;stroke-dashoffset:0;stroke-opacity:1;marker:none;marker-start:none;marker-mid:none;marker-end:none;paint-order:normal" />
            <path
               inkscape:connector-curvature="0"
               id="path19664-4-5-0"
               d="m -371.6569,-4199.6764 -21.9108,-0.4133 -11.57552,8.2682 -1.24024,28.9388 4.54753,5.7878 5.37435,5.3742 21.49739,0.8268 8.68164,-7.0278 5.78776,-13.6427 -3.30729,-20.2571 z"
               style="vector-effect:none;fill:#ffffff;fill-opacity:1;stroke:#000000;stroke-width:5.82832;stroke-linecap:square;stroke-linejoin:miter;stroke-miterlimit:4;stroke-dasharray:none;stroke-dashoffset:0;stroke-opacity:1;marker:none;marker-start:none;marker-mid:none;marker-end:none;paint-order:normal" />
            <path
               inkscape:connector-curvature="0"
               id="path19652-3-5-1"
               d="m -372.89713,-4202.5702 -11.98893,6.6146 -14.4694,56.6372 -11.98894,64.079 -19.01692,59.1177 -15.29623,12.8158 -6.61458,8.6816 -1.24023,15.7096 7.02799,9.9219 9.92188,3.7208 13.22916,-5.3745 19.43034,-28.5252 10.7487,-33.073 4.96094,-27.2851 8.68164,-46.7156 9.09505,-42.9948 11.16211,-26.0448 0.41341,-19.0169 -10.33529,-9.9219 z"
               style="opacity:1;vector-effect:none;fill:#ffffff;fill-opacity:1;stroke:#000000;stroke-width:8.74248;stroke-linecap:square;stroke-linejoin:miter;stroke-miterlimit:4;stroke-dasharray:none;stroke-dashoffset:0;stroke-opacity:1;marker:none;marker-start:none;marker-mid:none;marker-end:none;paint-order:normal" />
            <path
               inkscape:connector-curvature="0"
               id="path19660-2-2-0"
               d="m -436.97591,-4168.2572 -8.26823,2.8941 -3.7207,11.9888 0.41341,11.9891 4.75423,4.1339 7.64812,-4.7541 2.68717,-13.8494 -1.03353,-8.6817 z"
               style="vector-effect:none;fill:#ffffff;fill-opacity:1;stroke:#000000;stroke-width:5.82832;stroke-linecap:square;stroke-linejoin:miter;stroke-miterlimit:4;stroke-dasharray:none;stroke-dashoffset:0;stroke-opacity:1;marker:none;marker-start:none;marker-mid:none;marker-end:none;paint-order:normal"
               sodipodi:nodetypes="ccccccccc" />
            <path
               style="opacity:1;vector-effect:none;fill:#ffffff;fill-opacity:1;stroke:#000000;stroke-width:8.74248;stroke-linecap:square;stroke-linejoin:miter;stroke-miterlimit:4;stroke-dasharray:none;stroke-dashoffset:0;stroke-opacity:1;marker:none;marker-start:none;marker-mid:none;marker-end:none;paint-order:normal"
               d="m -313.95817,-4056.3194 -27.47864,-36.2484 -11.10838,-60.8039 -0.58467,-32.1559 -6.43115,-21.0473 -7.6005,-4.0926 -15.20095,14.0317 -4.67722,16.9547 2.33862,33.3254 14.6163,51.4492 14.6163,39.1716 18.70887,45.6031 19.87817,9.939 15.20095,-9.939 2.92328,-9.9391 -5.26188,-30.402 z"
               id="path19640-1-5-8"
               inkscape:connector-curvature="0" />
            <path
               inkscape:connector-curvature="0"
               id="path19646-6-0-7"
               d="m -367.93619,-4198.4361 -7.64812,5.3744 -3.9274,16.3298 3.30729,17.1564 7.64811,3.7207 8.88835,-8.2682 2.06705,-21.0839 -3.7207,-11.9891 z"
               style="vector-effect:none;fill:#ffffff;fill-opacity:1;stroke:#000000;stroke-width:5.82832;stroke-linecap:square;stroke-linejoin:miter;stroke-miterlimit:4;stroke-dasharray:none;stroke-dashoffset:0;stroke-opacity:1;marker:none;marker-start:none;marker-mid:none;marker-end:none;paint-order:normal"
               sodipodi:nodetypes="ccccccccc" />
          </g>
          <path
             style="vector-effect:none;fill:#ffffff;fill-opacity:1;stroke:#000000;stroke-width:5.82832;stroke-linecap:square;stroke-linejoin:miter;stroke-miterlimit:4;stroke-dasharray:none;stroke-dashoffset:0;stroke-opacity:1;marker:none;marker-start:none;marker-mid:none;marker-end:none;paint-order:normal"
             d="m -227.42966,-4090.2292 14.03165,-4.3849 18.12421,-14.0316 13.15468,9.0619 1.75395,14.3241 -13.73932,23.3862 -5.5542,7.6004 h -17.24723 l -14.6163,-16.3703 -2.04629,-10.5238 z"
             id="path19682-6-3-7"
             inkscape:connector-curvature="0" />
          <path
             style="vector-effect:none;fill:#ffffff;fill-opacity:1;stroke:#000000;stroke-width:5.82832;stroke-linecap:square;stroke-linejoin:miter;stroke-miterlimit:4;stroke-dasharray:none;stroke-dashoffset:0;stroke-opacity:1;marker:none;marker-start:none;marker-mid:none;marker-end:none;paint-order:normal"
             d="m -196.15078,-4104.2608 v 9.3543 l 9.06211,8.1852 3.21559,-0.2924 -0.29233,-11.9853 -10.23141,-6.1389 z"
             id="path19684-6-6-8"
             inkscape:connector-curvature="0" />
          <g
             id="g19827-7-2-3-2"
             style="vector-effect:none;fill:#ffffff;fill-opacity:1;stroke:#000000;stroke-width:6.04028;stroke-linecap:square;stroke-linejoin:miter;stroke-miterlimit:4;stroke-dasharray:none;stroke-dashoffset:0;stroke-opacity:1;marker:none;marker-start:none;marker-mid:none;marker-end:none;paint-order:normal"
             transform="matrix(-0.93101837,0,0,1.0000344,-489.15084,0.13965104)">
            <path
               inkscape:connector-curvature="0"
               id="path19656-7-3-1-4"
               d="m -457.64648,-4172.8046 -12.40234,5.7878 -5.78776,30.5925 -16.53646,52.9166 -19.01693,38.0339 -3.7207,21.0838 23.97786,15.2964 13.64258,-19.0169 12.81576,-41.7547 9.50846,-51.2631 7.85482,-31.4192 v -11.9888 l -3.72071,-7.4414 z"
               style="vector-effect:none;fill:#ffffff;fill-opacity:1;stroke:#000000;stroke-width:6.04028;stroke-linecap:square;stroke-linejoin:miter;stroke-miterlimit:4;stroke-dasharray:none;stroke-dashoffset:0;stroke-opacity:1;marker:none;marker-start:none;marker-mid:none;marker-end:none;paint-order:normal" />
            <path
               inkscape:connector-curvature="0"
               id="path19654-6-8-6-6"
               d="m -439.45637,-4176.5254 6.61458,4.5477 31.83268,54.1567 33.48633,40.9279 31.41927,23.151 8.68164,7.4415 -5.78776,32.6593 -9.92188,-0.4133 -34.72656,-19.0169 -39.27409,-46.3021 -29.35221,-55.8106 -6.20117,-21.0839 4.54752,-17.3633 z"
               style="vector-effect:none;fill:#ffffff;fill-opacity:1;stroke:#000000;stroke-width:6.04028;stroke-linecap:square;stroke-linejoin:miter;stroke-miterlimit:4;stroke-dasharray:none;stroke-dashoffset:0;stroke-opacity:1;marker:none;marker-start:none;marker-mid:none;marker-end:none;paint-order:normal" />
            <path
               inkscape:connector-curvature="0"
               id="path19666-4-0-54-9"
               d="m -489.06575,-4063.2506 -12.40234,0.4135 -19.43034,18.1901 -4.13412,23.151 5.37435,28.112 21.91081,9.5084 16.53646,-7.4415 11.98893,-16.5364 -0.41341,-34.7266 -8.68164,-12.8156 z"
               style="opacity:1;vector-effect:none;fill:#ffffff;fill-opacity:1;stroke:#000000;stroke-width:9.06042;stroke-linecap:square;stroke-linejoin:miter;stroke-miterlimit:4;stroke-dasharray:none;stroke-dashoffset:0;stroke-opacity:1;marker:none;marker-start:none;marker-mid:none;marker-end:none;paint-order:normal" />
            <path
               inkscape:connector-curvature="0"
               id="path19662-6-9-5-4"
               d="m -451.44531,-4172.3913 -9.92187,4.5477 -4.96094,11.5755 0.41341,16.5365 3.72071,4.9609 12.40234,3.7206 4.54752,-0.4133 5.37435,-33.0729 z"
               style="vector-effect:none;fill:#ffffff;fill-opacity:1;stroke:#000000;stroke-width:6.04028;stroke-linecap:square;stroke-linejoin:miter;stroke-miterlimit:4;stroke-dasharray:none;stroke-dashoffset:0;stroke-opacity:1;marker:none;marker-start:none;marker-mid:none;marker-end:none;paint-order:normal" />
            <path
               inkscape:connector-curvature="0"
               id="path19668-0-7-38-1"
               d="m -487.4121,-4046.3006 -11.57552,6.201 -7.44141,9.5086 0.41341,24.3911 14.4694,3.7209 7.44141,-12.8159 2.06706,-20.6706 z"
               style="vector-effect:none;fill:#ffffff;fill-opacity:1;stroke:#000000;stroke-width:6.04028;stroke-linecap:square;stroke-linejoin:miter;stroke-miterlimit:4;stroke-dasharray:none;stroke-dashoffset:0;stroke-opacity:1;marker:none;marker-start:none;marker-mid:none;marker-end:none;paint-order:normal" />
            <path
               inkscape:connector-curvature="0"
               id="path19658-3-5-4-0"
               d="m -445.65755,-4176.9387 -6.61458,8.6815 -11.16211,55.8107 -21.49739,54.5703 -14.46941,13.6425 -3.7207,28.5255 11.57552,8.2682 26.87175,-23.9778 8.68164,-41.7547 14.4694,-54.1568 11.57552,-18.6036 v -21.0839 z"
               style="opacity:1;vector-effect:none;fill:#ffffff;fill-opacity:1;stroke:#000000;stroke-width:9.06042;stroke-linecap:square;stroke-linejoin:miter;stroke-miterlimit:4;stroke-dasharray:none;stroke-dashoffset:0;stroke-opacity:1;marker:none;marker-start:none;marker-mid:none;marker-end:none;paint-order:normal" />
            <path
               inkscape:connector-curvature="0"
               id="path19749-6-3-5-8"
               d="m -378.27148,-4021.0827 28.11198,8.6818 20.67057,23.9779 5.78776,27.2851 0.41341,22.7375 -17.36328,14.4695 -20.25716,2.067 -23.97786,-8.6815 -17.36328,-24.3914 -7.44141,-22.3243 -0.41341,-17.7765 9.50846,-17.7769 19.01693,-8.2682 z"
               style="opacity:1;vector-effect:none;fill:#ffffff;fill-opacity:1;stroke:#000000;stroke-width:9.06042;stroke-linecap:square;stroke-linejoin:miter;stroke-miterlimit:4;stroke-dasharray:none;stroke-dashoffset:0;stroke-opacity:1;marker:none;marker-start:none;marker-mid:none;marker-end:none;paint-order:normal" />
            <path
               inkscape:connector-curvature="0"
               id="path19751-1-9-0-4"
               d="m -370.83007,-3990.4902 14.4694,11.989 0.41341,17.3633 -4.13412,9.5083 -7.4414,4.5477 -21.08399,-4.1341 -5.37434,-7.0281 -4.13412,-17.7766 5.37435,-11.9891 11.16211,-5.7877 7.85482,3.7208 z"
               style="vector-effect:none;fill:#ffffff;fill-opacity:1;stroke:#000000;stroke-width:6.04028;stroke-linecap:square;stroke-linejoin:miter;stroke-miterlimit:4;stroke-dasharray:none;stroke-dashoffset:0;stroke-opacity:1;marker:none;marker-start:none;marker-mid:none;marker-end:none;paint-order:normal" />
            <path
               inkscape:connector-curvature="0"
               id="path19747-8-6-34-9"
               d="m -336.10351,-4051.6751 -50.4362,-14.4693 -52.91666,-28.5255 -23.97787,17.3633 7.44141,35.5533 50.43619,41.3412 7.44141,34.7266 12.81576,9.9218 18.1901,2.4805 7.85482,-14.056 -3.30729,-13.2292 -14.46941,-4.9609 -6.61458,-22.7375 -23.97786,-28.9388 -22.73763,-16.95 52.50325,26.8719 30.59245,11.162 17.36328,0.4135 9.50846,-16.95 -4.13411,-9.5083 z"
               style="opacity:1;vector-effect:none;fill:#ffffff;fill-opacity:1;stroke:#000000;stroke-width:9.06042;stroke-linecap:square;stroke-linejoin:miter;stroke-miterlimit:4;stroke-dasharray:none;stroke-dashoffset:0;stroke-opacity:1;marker:none;marker-start:none;marker-mid:none;marker-end:none;paint-order:normal" />
            <path
               inkscape:connector-curvature="0"
               id="path19642-5-6-9-0"
               d="m -393.47087,-4205.9904 9.35445,5.8465 8.18513,34.4945 8.76977,62.5578 24.5554,47.3567 18.70887,8.7699 4.67722,12.2777 -7.01585,23.386 -12.27767,4.6773 -40.58475,-42.5707 -20.67058,-66.9726 -10.74869,-44.6485 v -23.9778 l 2.06705,-12.4024 11.57552,-8.2682 z"
               style="vector-effect:none;fill:#ffffff;fill-opacity:1;stroke:#000000;stroke-width:6.04028;stroke-linecap:square;stroke-linejoin:miter;stroke-miterlimit:4;stroke-dasharray:none;stroke-dashoffset:0;stroke-opacity:1;marker:none;marker-start:none;marker-mid:none;marker-end:none;paint-order:normal" />
            <path
               inkscape:connector-curvature="0"
               id="path19644-0-4-8-0"
               d="m -385.71289,-4206.7043 -16.53645,2.8938 -15.70964,28.1119 -11.57552,59.118 -15.29622,67.3859 -14.4694,27.6987 -15.29623,14.4693 -5.37435,11.5755 -0.41341,21.4974 6.20117,5.3745 19.84375,-7.8549 13.64258,-11.9888 20.25716,-48.7826 24.39128,-100.8724 9.09505,-21.4974 7.44141,-14.056 3.30729,-18.6036 -3.72071,-9.0951 z"
               style="opacity:1;vector-effect:none;fill:#ffffff;fill-opacity:1;stroke:#000000;stroke-width:9.06042;stroke-linecap:square;stroke-linejoin:miter;stroke-miterlimit:4;stroke-dasharray:none;stroke-dashoffset:0;stroke-opacity:1;marker:none;marker-start:none;marker-mid:none;marker-end:none;paint-order:normal" />
            <path
               inkscape:connector-curvature="0"
               id="path19648-7-0-3-3"
               d="m -436.56249,-4024.8033 -21.4974,-4.5476 -28.11198,21.9109 -9.50846,33.0729 4.96094,28.9388 19.84374,9.5084 23.97787,-8.6815 15.70963,-23.5646 7.85482,-37.6203 z"
               style="opacity:1;vector-effect:none;fill:#ffffff;fill-opacity:1;stroke:#000000;stroke-width:9.06042;stroke-linecap:square;stroke-linejoin:miter;stroke-miterlimit:4;stroke-dasharray:none;stroke-dashoffset:0;stroke-opacity:1;marker:none;marker-start:none;marker-mid:none;marker-end:none;paint-order:normal" />
            <path
               inkscape:connector-curvature="0"
               id="path19650-9-4-1-6"
               d="m -448.13802,-4009.9204 -8.68164,4.5474 -8.26822,19.4304 -1.24024,18.1901 3.30729,6.2011 5.37435,4.5476 9.92188,-8.2682 7.4414,-7.855 4.54753,-21.0838 -5.37435,-8.6818 z"
               style="vector-effect:none;fill:#ffffff;fill-opacity:1;stroke:#000000;stroke-width:6.04028;stroke-linecap:square;stroke-linejoin:miter;stroke-miterlimit:4;stroke-dasharray:none;stroke-dashoffset:0;stroke-opacity:1;marker:none;marker-start:none;marker-mid:none;marker-end:none;paint-order:normal" />
            <path
               inkscape:connector-curvature="0"
               id="path19664-1-2-5-6"
               d="m -371.6569,-4199.6764 -21.9108,-0.4133 -11.57552,8.2682 -1.24024,28.9388 4.54753,5.7878 5.37435,5.3742 21.49739,0.8268 8.68164,-7.0278 5.78776,-13.6427 -3.30729,-20.2571 z"
               style="vector-effect:none;fill:#ffffff;fill-opacity:1;stroke:#000000;stroke-width:6.04028;stroke-linecap:square;stroke-linejoin:miter;stroke-miterlimit:4;stroke-dasharray:none;stroke-dashoffset:0;stroke-opacity:1;marker:none;marker-start:none;marker-mid:none;marker-end:none;paint-order:normal" />
            <path
               inkscape:connector-curvature="0"
               id="path19652-1-6-00-0"
               d="m -372.89713,-4202.5702 -11.98893,6.6146 -14.4694,56.6372 -11.98894,64.079 -19.01692,59.1177 -15.29623,12.8158 -6.61458,8.6816 -1.24023,15.7096 7.02799,9.9219 9.92188,3.7208 13.22916,-5.3745 19.43034,-28.5252 10.7487,-33.073 4.96094,-27.2851 8.68164,-46.7156 9.09505,-42.9948 11.16211,-26.0448 0.41341,-19.0169 -10.33529,-9.9219 z"
               style="opacity:1;vector-effect:none;fill:#ffffff;fill-opacity:1;stroke:#000000;stroke-width:9.06042;stroke-linecap:square;stroke-linejoin:miter;stroke-miterlimit:4;stroke-dasharray:none;stroke-dashoffset:0;stroke-opacity:1;marker:none;marker-start:none;marker-mid:none;marker-end:none;paint-order:normal" />
            <path
               inkscape:connector-curvature="0"
               id="path19660-6-4-79-2"
               d="m -436.97591,-4168.2572 -8.26823,2.8941 -3.7207,11.9888 0.41341,11.9891 4.75423,4.1339 7.64812,-4.7541 2.68717,-13.8494 -1.03353,-8.6817 z"
               style="vector-effect:none;fill:#ffffff;fill-opacity:1;stroke:#000000;stroke-width:6.04028;stroke-linecap:square;stroke-linejoin:miter;stroke-miterlimit:4;stroke-dasharray:none;stroke-dashoffset:0;stroke-opacity:1;marker:none;marker-start:none;marker-mid:none;marker-end:none;paint-order:normal"
               sodipodi:nodetypes="ccccccccc" />
            <path
               style="vector-effect:none;fill:#ffffff;fill-opacity:1;stroke:#000000;stroke-width:9.06042;stroke-linecap:square;stroke-linejoin:miter;stroke-miterlimit:4;stroke-dasharray:none;stroke-dashoffset:0;stroke-opacity:1;marker:none;marker-start:none;marker-mid:none;marker-end:none;paint-order:normal"
               d="m -313.95817,-4056.3194 -27.47864,-36.2484 -11.10838,-60.8039 -0.58467,-32.1559 -6.43115,-21.0473 -7.6005,-4.0926 -15.20095,14.0317 -4.67722,16.9547 2.33862,33.3254 14.6163,51.4492 14.6163,39.1716 18.70887,45.6031 19.87817,9.939 15.20095,-9.939 2.92328,-9.9391 -5.26188,-30.402 z"
               id="path19640-5-7-2-8"
               inkscape:connector-curvature="0" />
            <path
               inkscape:connector-curvature="0"
               id="path19646-7-3-8-0"
               d="m -367.93619,-4198.4361 -7.64812,5.3744 -3.9274,16.3298 3.30729,17.1564 7.64811,3.7207 8.88835,-8.2682 2.06705,-21.0839 -3.7207,-11.9891 z"
               style="vector-effect:none;fill:#ffffff;fill-opacity:1;stroke:#000000;stroke-width:6.04028;stroke-linecap:square;stroke-linejoin:miter;stroke-miterlimit:4;stroke-dasharray:none;stroke-dashoffset:0;stroke-opacity:1;marker:none;marker-start:none;marker-mid:none;marker-end:none;paint-order:normal"
               sodipodi:nodetypes="ccccccccc" />
          </g>
          <path
             style="vector-effect:none;fill:#ffffff;fill-opacity:1;stroke:#000000;stroke-width:5.82832;stroke-linecap:square;stroke-linejoin:miter;stroke-miterlimit:4;stroke-dasharray:none;stroke-dashoffset:0;stroke-opacity:1;marker:none;marker-start:none;marker-mid:none;marker-end:none;paint-order:normal"
             d="m -200.34192,-4008.1286 12.40234,21.911 6.20118,12.8156 -9.92188,11.989 -10.7487,-0.4135 -15.29622,-14.056 -16.94987,-7.0279 1.24023,-11.5755 14.46941,-18.1901 13.22916,-0.8268 z"
             id="path19686-0-8-4"
             inkscape:connector-curvature="0" />
          <path
             sodipodi:nodetypes="cccccc"
             style="vector-effect:none;fill:#ffffff;fill-opacity:1;stroke:#000000;stroke-width:5.82832;stroke-linecap:square;stroke-linejoin:miter;stroke-miterlimit:4;stroke-dasharray:none;stroke-dashoffset:0;stroke-opacity:1;marker:none;marker-start:none;marker-mid:none;marker-end:none;paint-order:normal"
             d="m -191.45357,-3981.6701 -9.50847,3.7207 -2.89387,10.7487 10.7487,2.4803 8.06151,-9.5085 z"
             id="path19688-4-0-0"
             inkscape:connector-curvature="0" />
          <path
             style="vector-effect:none;fill:#ffffff;fill-opacity:1;stroke:#000000;stroke-width:5.82832;stroke-linecap:square;stroke-linejoin:miter;stroke-miterlimit:4;stroke-dasharray:none;stroke-dashoffset:0;stroke-opacity:1;marker:none;marker-start:none;marker-mid:none;marker-end:none;paint-order:normal"
             d="m -355.53385,-4052.0884 29.35221,-3.7208 12.81576,-2.8938 8.26823,9.9219 6.20117,18.1901 v 21.0838 l -6.20117,4.5477 h -14.4694 l -16.12305,-7.4414 -17.36328,-9.9219 -4.96094,-8.2682 1.65365,-11.9891 z"
             id="path19690-4-1-0"
             inkscape:connector-curvature="0" />
          <path
             style="vector-effect:none;fill:#ffffff;fill-opacity:1;stroke:#000000;stroke-width:5.82832;stroke-linecap:square;stroke-linejoin:miter;stroke-miterlimit:4;stroke-dasharray:none;stroke-dashoffset:0;stroke-opacity:1;marker:none;marker-start:none;marker-mid:none;marker-end:none;paint-order:normal"
             d="m -346.4388,-4050.4348 -5.78776,2.067 -2.48047,13.6427 2.06706,7.0278 4.96094,4.5477 7.02799,0.4133 4.54753,-7.4414 -0.82682,-9.5084 -2.06706,-7.4414 z"
             id="path19692-2-2-3"
             inkscape:connector-curvature="0" />
          <path
             style="vector-effect:none;fill:#ffffff;fill-opacity:1;stroke:#000000;stroke-width:5.82832;stroke-linecap:square;stroke-linejoin:miter;stroke-miterlimit:4;stroke-dasharray:none;stroke-dashoffset:0;stroke-opacity:1;marker:none;marker-start:none;marker-mid:none;marker-end:none;paint-order:normal"
             d="m -336.10351,-4107.8991 9.09505,24.8047 0.82682,13.2292 7.85482,7.4414 9.92188,-2.067 10.33528,-5.7877 7.44141,-16.1232 -7.44141,-8.6815 -17.77669,-7.8549 -6.20117,-7.0279 -5.78776,-2.4805 z"
             id="path19694-3-45-9"
             inkscape:connector-curvature="0" />
          <path
             style="vector-effect:none;fill:#ffffff;fill-opacity:1;stroke:#000000;stroke-width:5.82832;stroke-linecap:square;stroke-linejoin:miter;stroke-miterlimit:4;stroke-dasharray:none;stroke-dashoffset:0;stroke-opacity:1;marker:none;marker-start:none;marker-mid:none;marker-end:none;paint-order:normal"
             d="m -325.06655,-4109.8152 -4.38489,-0.2921 -3.50792,2.3384 -0.87699,2.3386 3.50793,2.6311 4.67722,-2.0463 2.3386,-2.9234 z"
             id="path19696-3-4-6"
             inkscape:connector-curvature="0" />
          <path
             style="opacity:1;vector-effect:none;fill:#ffffff;fill-opacity:1;stroke:#000000;stroke-width:8.74248;stroke-linecap:square;stroke-linejoin:miter;stroke-miterlimit:4;stroke-dasharray:none;stroke-dashoffset:0;stroke-opacity:1;marker:none;marker-start:none;marker-mid:none;marker-end:none;paint-order:normal"
             d="m -280.70638,-4096.7368 23.56446,7.0278 26.87174,26.0451 9.09505,10.3351 3.72071,30.1792 -14.46941,19.0169 -28.9388,14.056 -33.48632,-9.9219 -17.7767,-15.7096 -1.65364,-50.8497 8.68164,-22.7375 11.57552,-5.7878 z"
             id="path19676-0-4-3"
             inkscape:connector-curvature="0" />
          <path
             style="vector-effect:none;fill:#ffffff;fill-opacity:1;stroke:#000000;stroke-width:5.82832;stroke-linecap:square;stroke-linejoin:miter;stroke-miterlimit:4;stroke-dasharray:none;stroke-dashoffset:0;stroke-opacity:1;marker:none;marker-start:none;marker-mid:none;marker-end:none;paint-order:normal"
             d="m -276.54043,-4090.2292 -14.03165,-0.877 -11.69305,7.6004 -6.13884,19.2937 11.40072,12.5698 21.92445,4.3849 15.49327,-14.9085 1.46163,-14.0316 -8.76977,-10.8162 z"
             id="path19678-3-1-9"
             inkscape:connector-curvature="0" />
        </g>
      </g>
    </g>
  </g>
</svg>
