<?xml version="1.0" encoding="UTF-8" standalone="no"?>
<svg
   xmlns:dc="http://purl.org/dc/elements/1.1/"
   xmlns:cc="http://creativecommons.org/ns#"
   xmlns:rdf="http://www.w3.org/1999/02/22-rdf-syntax-ns#"
   xmlns:svg="http://www.w3.org/2000/svg"
   xmlns="http://www.w3.org/2000/svg"
   xmlns:sodipodi="http://sodipodi.sourceforge.net/DTD/sodipodi-0.dtd"
   xmlns:inkscape="http://www.inkscape.org/namespaces/inkscape"
   width="61.316254mm"
   height="55.147457mm"
   viewBox="0 0 61.316257 55.14746"
   version="1.1"
   id="svg8"
   inkscape:version="1.0.1 (3bc2e813f5, 2020-09-07)"
   sodipodi:docname="mons_bruja.svg">
  <defs
     id="defs2" />
  <sodipodi:namedview
     id="base"
     pagecolor="#ffffff"
     bordercolor="#666666"
     borderopacity="1.0"
     inkscape:pageopacity="0.0"
     inkscape:pageshadow="2"
     inkscape:zoom="1.4"
     inkscape:cx="24.376421"
     inkscape:cy="158.46111"
     inkscape:document-units="mm"
     inkscape:current-layer="g885"
     showgrid="false"
     fit-margin-top="0"
     fit-margin-left="0"
     fit-margin-right="0"
     fit-margin-bottom="0"
     inkscape:window-width="1920"
     inkscape:window-height="1017"
     inkscape:window-x="-8"
     inkscape:window-y="-8"
     inkscape:window-maximized="1"
     inkscape:document-rotation="0"
     inkscape:snap-global="false" />
  <metadata
     id="metadata5">
    <rdf:RDF>
      <cc:Work
         rdf:about="">
        <dc:format>image/svg+xml</dc:format>
        <dc:type
           rdf:resource="http://purl.org/dc/dcmitype/StillImage" />
        <dc:title></dc:title>
      </cc:Work>
    </rdf:RDF>
  </metadata>
  <g
     inkscape:label="Capa 1"
     inkscape:groupmode="layer"
     id="layer1"
     transform="translate(-81.409635,-88.085522)">
    <g
       id="g885"
       transform="matrix(1.0491803,0,0,1.0491803,-2.6565976,-5.5128257)">
      <g
         id="g22476-7-9-1"
         transform="matrix(-0.71926993,0,0,0.71926993,-174.56557,2929.4342)">
        <path
           id="path22051-9-8-5-8"
           style="fill:#ffffff;stroke:#000000;stroke-width:10.2047;stroke-linecap:butt;stroke-linejoin:miter;stroke-miterlimit:4;stroke-dasharray:none;stroke-opacity:1"
           d="m -1577.8438,-14910.037 0.4239,14.801 -4.7168,16.129 -3.0781,10.996 -1.0411,-4.028 -6.1152,-7.234 -4.7559,-5.006 1.9668,10.072 0.336,9.266 3.6328,17.062 -10.6113,21.516 -6.1895,30.359 9.4317,8.547 18.2734,-0.589 11.2012,-7.075 c 0,0 4.7148,-12.673 4.7148,-13.851 0,-0.465 -0.342,-5.076 -0.7305,-10.186 l 8.1094,6.914 13.7031,6.309 1.1836,1.014 -2.875,3.044 2.875,12.006 4.7364,5.412 -1.0352,25.448 -2.8555,5.162 -8.0078,8.316 0.3653,-1.256 4.8164,-4.422 2.5547,-15.162 -3.7852,6.244 -4.4922,4.639 -4.2852,2.52 -3.5605,7.672 0.2813,-7.909 -1.4493,-5.492 1.1485,-5.017 -6.9532,-12.487 2.3907,8.364 -3.2793,3.306 -3.6992,1.701 0.7207,4.545 1.9238,3.762 0.033,2.119 -2.4551,-1.433 0.4258,2.478 1.8496,3.617 -2.9531,3.026 -5.2344,0.531 -1.5801,-1.434 -3.6601,0.223 1.6015,-5.76 -2.3925,-3.892 c 0,0 -0.6212,0.442 -0.1153,-0.04 0.5057,-0.479 3.541,-3.359 3.541,-3.359 l -0.3691,-3.578 -1.5664,-3.291 1.5391,-5.529 c 0,0 -1.9532,-12.658 -2.2793,-12.715 v 0 c -0.01,0 -0.018,0 -0.025,0.04 -0.2245,0.806 -2.3868,9.019 -2.3868,9.019 l -2.0175,2.789 -1.4844,3.557 -3.7676,4.166 0.051,2.496 2.1933,3.715 -0.539,2.828 -1.9219,2.444 -1.7539,2.74 -0.2187,3.91 -4.3965,-6.065 -2.6641,-5.582 4.0137,-3.722 -2.7383,-3.988 -2.3477,-2.268 c 0,0 -2.0804,-9.019 -2.2089,-8.559 -0.1284,0.461 -1.8418,7.059 -1.8418,7.059 l -2.1856,6.963 0.4004,5.697 3.1484,3.854 2.2579,3.484 -0.7325,3.52 -1.4726,0.83 -5.6992,-7.17 -2.5957,-4.942 -5.4082,-2.871 -3.1797,-1.506 -7.3106,2.186 6.336,1.764 3.373,5.248 7.4453,3.595 1.5215,3.899 1.6309,3.06 0.8886,2.606 2.7071,1.871 3.2363,-0.705 c 0.4704,0.833 3.5918,5.388 3.5918,5.388 l 7.9824,2.221 4.0469,-2.558 1.3281,4.054 1.9727,3.008 3.8242,-0.307 -0.3106,14.895 -5.4121,9.131 h 11.5 l 5.7481,-14.205 2.3672,7.101 -3.3809,5.412 11.498,-1.691 6.7657,-3.381 -5.4121,8.117 -4.3965,11.16 -8.793,6.764 -2.0293,1.016 13.5274,2.705 9.8086,-6.426 2.705,3.043 -6.4258,6.428 -4.7343,3.381 3.0429,4.736 10.8243,-0.342 9.8086,-1.351 6.4257,-6.764 2.0293,2.705 -5.75,6.764 2.3672,4.396 10.8223,-3.721 12.8535,-6.423 3.7187,1.689 -2.705,4.734 7.7793,3.045 7.1015,-2.029 8.4551,-2.705 c 0,0 6.7657,3.382 8.7949,3.721 2.0293,0.34 14.8809,-0.342 14.8809,-0.342 l 3.0449,-6.764 6.7637,-3.72 6.4258,5.75 c 0,0 6.0878,2.706 8.1172,3.382 2.0292,0.677 14.205,0.676 14.205,0.676 l 0.9864,-1.084 4.6836,5.606 -2.2872,-8.239 7.5489,4.172 8.6093,3.828 -12.0996,-16.455 6.8379,6.17 5.9785,4.545 11.2403,3.348 h 5.7402 l -8.8281,-9.328 9.3066,5.023 11.4785,2.631 8.6094,0.478 -18.9101,-12.191 v 0 l 7.1015,2.369 v 0 l 14.2012,8.867 -5.9551,-12.992 2.5781,-1.289 -10.8242,-14.881 -1.7402,-2.843 12.1152,3.068 c 0,0 -12.1976,-7.413 -13.1543,-7.652 -0.2977,-0.08 -1.3766,-0.685 -2.6347,-1.422 l -8.4512,-13.811 -0.6777,-24.689 -1.3516,-21.647 -9.6035,-19.748 -1.1973,-14.584 2.8965,-4 c 2.9452,0.374 5.2047,0.652 5.4746,0.652 1.4349,0 21.5234,-1.435 21.5234,-1.435 l 9.3282,-7.893 -1.9141,-4.783 -42.125,-7.941 3.6211,-4.016 11.7188,-15.066 v -15.785 l 1.914,-12.196 -3.1094,-8.611 -6.2187,2.154 -3.8086,9.424 c -3.3821,8.793 -7.4414,30.777 -7.4414,30.777 l -8.9141,11.012 -3.9902,-0.752 -14.1094,-17.459 -9.8047,-17.935 -3.1093,-24.633 -10.045,0.957 -6.9355,11.238 -9.5664,7.654 -15.0664,5.022 -27.7422,7.174 -22.4805,-3.586 -29.3672,2.558 0.1153,-1.595 -1.3203,-7.42 -3.6602,9.441 -7.3379,0.639 c -0.3581,-2.94 -0.5798,-5.595 -0.3555,-6.492 0.5896,-2.358 8.2539,-25.053 8.2539,-25.053 l 0.3653,-13.906 z"
           transform="scale(0.26458333)"
           inkscape:connector-curvature="0" />
        <g
           id="g22279-2-5-1">
          <path
             style="fill:#ffffff;stroke:#000000;stroke-width:0.631425;stroke-linecap:butt;stroke-linejoin:miter;stroke-miterlimit:4;stroke-dasharray:none;stroke-opacity:1"
             d="m -419.29439,-3929.034 -1.70846,0.5062 -0.12655,1.7085 1.5819,1.6452 3.73328,2.7841 3.85983,3.2904 3.62596,1.6694 9.91508,2.5701 11.07329,-0.2531 7.52983,-2.5311 6.13777,-0.8859 -19.80536,-7.7829 -12.46536,-2.4677 -6.01121,-0.4429 z"
             id="path22051-8-8-1"
             inkscape:connector-curvature="0" />
          <path
             style="fill:#ffffff;stroke:#000000;stroke-width:0.631425;stroke-linecap:butt;stroke-linejoin:miter;stroke-miterlimit:4;stroke-dasharray:none;stroke-opacity:1"
             d="m -400.9906,-3910.4503 -4.47428,2.5951 -2.32662,4.2058 -2.32663,2.4161 h -5.19017 l -2.05817,1.0739 0.0895,3.5794 -0.0895,4.2953 -1.43178,2.416 h 3.04252 l 1.52125,-3.7582 0.6264,1.879 -0.89485,1.4318 3.04251,-0.4473 1.78972,-0.8949 -1.43178,2.1476 -1.16331,2.953 -2.32663,1.7898 -0.53691,0.2684 3.57942,0.7159 2.59509,-1.7003 0.71589,0.8054 -1.70024,1.7003 -1.2528,0.8949 0.80537,1.2527 2.86355,-0.09 2.59508,-0.3579 1.70023,-1.7897 0.53692,0.7159 -1.52127,1.7897 0.62641,1.1633 2.86354,-0.9844 3.40046,-1.7001 0.98433,0.4473 -0.71589,1.2528 2.05818,0.8054 1.8792,-0.5369 2.23714,-0.7159 c 0,0 1.78972,0.8949 2.32663,0.9844 0.53692,0.09 3.93736,-0.09 3.93736,-0.09 l 0.80538,-1.7898 1.78971,-0.9842 1.70023,1.5213 c 0,0 1.61074,0.7158 2.14766,0.8947 0.53691,0.179 3.75839,0.179 3.75839,0.179 l 0.89487,-0.9843 -1.43178,-2.2371 h 2.5056 c 0,0 1.70022,1.2528 2.05817,1.4318 0.35794,0.1788 3.48994,-0.179 3.48994,-0.179 l 0.6264,-2.2372 2.14765,1.1633 1.87921,0.6264 2.86353,-1.4318 -2.86353,-3.9373 -3.66892,-5.9956 -0.17898,-6.5324 -0.35794,-5.7271 -2.54091,-5.2249 -1.66491,-1.576 -3.65026,-0.6387 -10.13052,-0.8826 -11.18572,0.2685 z"
             id="path22053-4-7-8"
             inkscape:connector-curvature="0" />
          <path
             style="fill:#ffffff;stroke:#000000;stroke-width:0.631425;stroke-linecap:butt;stroke-linejoin:miter;stroke-miterlimit:4;stroke-dasharray:none;stroke-opacity:1"
             d="m -406.76242,-3911.7479 -0.383,9.4164 v 7.4665 l 0.82258,-4.0496 0.37966,-6.1378 0.25311,11.2632 0.63276,-5.7581 1.26551,-8.1627 1.51863,14.8066 0.44292,-9.5547 v -3.7333 l 1.0757,12.1491 0.88586,-10.1242 1.89828,-3.4802 12.97156,-0.3164 -1.32879,9.7445 -0.25311,6.201 1.07569,-4.4925 1.51862,-9.618 -0.31638,14.8699 1.835,-9.3016 c 0,0 0.44294,-5.505 0.44294,-5.1254 0,0.3796 0.2737,15.6377 0.2737,15.6377 l 2.14765,-7.5169 0.99555,-9.5761 1.32879,15.0596 0.56948,-8.6055 0.0632,-5.3784 1.07568,15.3761 -0.44292,-19.1727 -0.45786,-5.8239 -28.71233,1.5212 z"
             id="path22067-2-5-2"
             inkscape:connector-curvature="0" />
          <path
             style="fill:#ffffff;stroke:#000000;stroke-width:1.64609;stroke-linecap:butt;stroke-linejoin:miter;stroke-miterlimit:4;stroke-dasharray:none;stroke-opacity:1"
             d="m -405.77808,-3925.5734 c 0,0.2238 -1.92394,2.8636 -1.92394,2.8636 l -0.22372,1.7896 0.89486,0.8949 -1.65549,1.0738 0.35794,1.5213 0.31321,0.2684 -0.76064,0.8055 0.76064,3.1767 1.2528,1.4317 3.57942,1.7898 -0.8619,3.8933 -1.01241,6.5175 0.25309,8.3524 1.39208,1.0756 2.27793,0.6328 0.37966,-4.5558 1.64517,-4.4294 3.22707,-4.7457 1.83501,-1.7085 0.5062,1.8983 -0.63277,4.4293 -2.08809,2.9108 -0.63276,1.6452 1.07569,1.0756 1.835,0.9491 1.5819,-1.1389 1.70845,-2.974 4.23948,-5.7581 3.41691,-1.7717 7.02362,-6.2011 1.70845,-3.7332 1.07569,1.3288 -0.75932,3.4169 0.82259,2.2779 1.64518,0.8858 2.0881,-2.3411 0.44293,-3.3536 -0.31637,-3.8599 1.32879,-1.835 0.0632,-2.0881 -1.89827,-1.4553 -2.27794,0.5694 -1.13896,0.2531 -4.49259,-4.1762 -7.71966,-4.5559 -7.90949,-1.5185 -11.51622,3.5434 z"
             id="path22035-6-1-7"
             inkscape:connector-curvature="0" />
          <path
             style="font-variation-settings:normal;opacity:1;vector-effect:none;fill:#ffffff;fill-opacity:1;stroke:#000000;stroke-width:0.995561;stroke-linecap:square;stroke-linejoin:miter;stroke-miterlimit:4;stroke-dasharray:none;stroke-dashoffset:0;stroke-opacity:1;stop-color:#000000;stop-opacity:1"
             d="m -397.50066,-3918.5935 1.16331,0.09 3.80315,5.4586 3.4452,2.7293 3.44519,0.7605 2.28189,0.358 1.61074,-0.1789 1.70022,-0.6264 2.81881,-1.0739"
             id="path22037-4-9-6"
             inkscape:connector-curvature="0" />
          <path
             style="font-variation-settings:normal;opacity:1;vector-effect:none;fill:#ffffff;fill-opacity:1;stroke:#000000;stroke-width:0.995561;stroke-linecap:square;stroke-linejoin:miter;stroke-miterlimit:4;stroke-dasharray:none;stroke-dashoffset:0;stroke-opacity:1;stop-color:#000000;stop-opacity:1"
             d="m -394.23443,-3919.1304 1.52125,0.9395 1.83446,1.6556 1.52126,0.7159 c 0,0 1.566,0 1.74497,0 0.17897,0 1.83445,-0.8502 1.83445,-0.8502 l 1.566,-0.1789 h 1.566"
             id="path22039-7-2-1"
             inkscape:connector-curvature="0" />
          <path
             style="font-variation-settings:normal;opacity:1;vector-effect:none;fill:#ffffff;fill-opacity:1;stroke:#000000;stroke-width:0.995561;stroke-linecap:square;stroke-linejoin:miter;stroke-miterlimit:4;stroke-dasharray:none;stroke-dashoffset:0;stroke-opacity:1;stop-color:#000000;stop-opacity:1"
             d="m -408.01522,-3917.1618 1.65548,0.09 1.78971,0.4026 c 0,0 1.56601,-0.7606 1.78972,-0.7606 0.22371,0 1.65548,-1.387 1.65548,-1.387 l 1.2528,-0.537"
             id="path22041-4-5-0"
             inkscape:connector-curvature="0" />
          <path
             style="opacity:1;vector-effect:none;fill:#ffffff;fill-opacity:1;stroke:#000000;stroke-width:1.09739;stroke-linecap:square;stroke-linejoin:miter;stroke-miterlimit:4;stroke-dasharray:none;stroke-dashoffset:0;stroke-opacity:1"
             d="m -403.183,-3909.9581 1.34229,-3.7137 3.04251,-5.8166"
             id="path22043-6-4-0"
             inkscape:connector-curvature="0" />
          <path
             style="fill:#ffffff;stroke:#000000;stroke-width:0.631425;stroke-linecap:butt;stroke-linejoin:miter;stroke-miterlimit:4;stroke-dasharray:none;stroke-opacity:1"
             d="m -404.32964,-3920.6815 1.32879,-0.1898 1.42371,-0.1898 1.04404,0.9806 -1.32878,0.791 -1.48699,-0.3163 -0.69603,-0.6961 z"
             id="path22045-7-2-4"
             inkscape:connector-curvature="0" />
          <path
             style="fill:#ffffff;stroke:#000000;stroke-width:0.631425;stroke-linecap:butt;stroke-linejoin:miter;stroke-miterlimit:4;stroke-dasharray:none;stroke-opacity:1"
             d="m -393.69929,-3919.8589 1.13897,-0.5695 0.82259,0.032 1.39206,1.0123 1.01242,0.3481 -1.0757,0.5378 h -1.58189 l -1.51862,-0.6959 z"
             id="path22047-3-2-6"
             inkscape:connector-curvature="0" />
          <path
             style="fill:#ffffff;stroke:#000000;stroke-width:0.631425;stroke-linecap:butt;stroke-linejoin:miter;stroke-miterlimit:4;stroke-dasharray:none;stroke-opacity:1"
             d="m -400.54317,-3922.1729 1.29754,0.3579 1.20806,1.1185 1.70022,0.2686 2.63983,-1.7898"
             id="path22079-2-4-4"
             inkscape:connector-curvature="0" />
          <path
             style="opacity:1;vector-effect:none;fill:#ffffff;fill-opacity:1;stroke:#000000;stroke-width:1.98624;stroke-linecap:square;stroke-linejoin:miter;stroke-miterlimit:4;stroke-dasharray:none;stroke-dashoffset:0;stroke-opacity:1"
             d="m -419.29439,-3929.034 9.93431,1.7085 11.57949,4.6823 c 0,0 17.0845,4.556 17.33761,4.6826 0.2531,0.1265 12.97156,1.835 13.35121,1.835 0.37966,0 5.69483,-0.3796 5.69483,-0.3796 l 2.46777,-2.0882 -0.50622,-1.2655 -15.43932,-2.9108 -3.73327,-4.6191 -2.59432,-4.7457 -0.82258,-6.5174 -2.65759,0.2532 -1.83501,2.9739 -2.53103,2.0248 -3.98638,1.3289 -7.34001,1.8982 -5.94794,-0.9492 -12.33879,1.0758 z"
             id="path22049-6-6-8"
             inkscape:connector-curvature="0" />
          <path
             style="opacity:1;vector-effect:none;fill:#ffffff;fill-opacity:1;stroke:#000000;stroke-width:1.98624;stroke-linecap:square;stroke-linejoin:miter;stroke-miterlimit:4;stroke-dasharray:none;stroke-dashoffset:0;stroke-opacity:1"
             d="m -369.49165,-3933.6271 c -0.89485,2.3266 -1.96868,8.1432 -1.96868,8.1432 l -4.56377,5.6376 -1.20805,8.7696 -2.99778,2.953 -0.6264,7.6063 1.2528,2.953 h -2.68457 l -0.53691,3.1321 1.07383,4.3848 3.04251,2.774 1.43177,3.132 4.36374,5.2221 -0.60533,-2.1797 1.99741,1.104 2.27793,1.0124 -3.20152,-4.3535 1.80945,1.6327 1.5819,1.2022 2.97396,0.8858 h 1.51863 l -2.33583,-2.4678 -2.34659,-3.0372 2.34659,3.0372 2.46237,1.3288 3.03725,0.6961 2.27794,0.1266 -5.00351,-3.2254 -1.51391,-3.1655 3.39312,3.7918 3.75705,2.346 -2.78413,-6.0745 -2.97397,-2.7841 4.74569,1.2021 c 0,0 -3.22707,-1.9614 -3.48018,-2.0248 -0.25309,-0.063 -2.46776,-1.4552 -2.46776,-1.4552 l -3.03723,-2.7842 -3.73329,-4.9989 -2.5943,-1.0123 -3.79656,0.1265 -0.25312,-2.7209 0.25312,-4.4293 3.98637,-3.1005 0.94915,-8.2892 4.04965,-4.4926 3.10053,-3.9863 v -4.1762 l 0.5062,-3.2271 -0.82258,-2.2779 -1.64517,0.5695 z"
             id="path22055-6-3-4"
             inkscape:connector-curvature="0" />
          <path
             style="font-variation-settings:normal;opacity:1;vector-effect:none;fill:#ffffff;fill-opacity:1;stroke:#000000;stroke-width:1.64609;stroke-linecap:square;stroke-linejoin:miter;stroke-miterlimit:4;stroke-dasharray:none;stroke-dashoffset:0;stroke-opacity:1;stop-color:#000000;stop-opacity:1"
             d="m -373.2053,-3908.3474 c 0,0 -1.78972,1.2975 -1.78972,1.5212 0,0.2238 0.60864,2.2715 0.60864,2.2715 l 0.84047,2.7294 1.70845,-0.063 2.3412,-1.3288 -0.12655,-2.3412 0.18983,-2.4678 -2.02483,-0.8225 z"
             id="path22063-9-3-0"
             inkscape:connector-curvature="0" />
          <path
             id="path22065-8-8-2"
             style="font-variation-settings:normal;opacity:1;vector-effect:none;fill:#ffffff;fill-opacity:1;stroke:#000000;stroke-width:0.995561;stroke-linecap:square;stroke-linejoin:miter;stroke-miterlimit:4;stroke-dasharray:none;stroke-dashoffset:0;stroke-opacity:1;stop-color:#000000;stop-opacity:1"
             d="m -418.09075,-3911.5104 c 0.0863,0.015 0.60285,3.3642 0.60285,3.3642 l -0.40711,1.463 0.41443,0.8708 0.098,0.9467 c 0,0 -0.80313,0.7619 -0.93693,0.8888 -0.13385,0.127 0.0305,0.01 0.0305,0.01 l 0.63294,1.0299 -0.42405,1.5239 0.9687,-0.059 0.41777,0.3792 1.38535,-0.1404 0.78102,-0.8007 -0.48899,-0.957 -0.11297,-0.6554 0.64984,0.3789 -0.009,-0.5603 -0.50908,-0.9956 -0.19067,-1.2026 0.97905,-0.4499 0.8674,-0.8751 -0.6325,-2.2123 1.83942,3.3035 -0.30368,1.3274 0.38377,1.4532 -0.0745,2.0924 0.94182,-2.0298 1.13386,-0.6667 1.18831,-1.2275 1.00154,-1.6518 -0.67599,4.0116 -1.27384,1.1697 -0.75749,2.6004 -3.1258,1.5299 -2.05023,0.3582 -1.12368,1.0342 -1.42522,0.1143 -0.52173,-0.7955 -0.35173,-1.0729 -1.07072,0.6771 -2.11215,-0.5878 c 0,0 -0.82583,-1.2052 -0.95029,-1.4256 l -0.85623,0.1864 -0.71617,-0.4949 -0.2349,-0.6895 -0.4314,-0.8097 -0.40287,-1.0314 -1.96958,-0.9517 -0.89288,-1.3885 -1.67644,-0.4665 1.93433,-0.5783 0.84156,0.3984 1.43064,0.7596 0.68682,1.3073 1.50822,1.8975 0.3894,-0.22 0.19378,-0.9312 -0.5974,-0.9216 -0.83284,-1.0199 -0.10593,-1.5072 0.57807,-1.8425 c 0,0 0.45321,-1.7455 0.48717,-1.8675 0.034,-0.1218 0.5848,2.2644 0.5848,2.2644 l 0.62119,0.5999 0.72442,1.0555 -1.06225,0.985 0.70535,1.477 1.163,1.6043 0.058,-1.0346 0.46414,-0.7248 0.50849,-0.6466 0.14259,-0.7485 -0.58048,-0.9825 -0.0134,-0.6605 0.99662,-1.1021 0.39304,-0.9413 0.53392,-0.7381 c 0,0 0.57174,-2.1726 0.63112,-2.386 0.002,-0.01 0.005,-0.01 0.007,-0.01 z"
             sodipodi:nodetypes="cccccscccccccccccccccccccccccccccccccccccccccccccccccccccccccscccccccccccccccsc"
             inkscape:connector-curvature="0" />
          <path
             style="font-variation-settings:normal;opacity:1;vector-effect:none;fill:#ffffff;fill-opacity:1;stroke:#000000;stroke-width:0.995561;stroke-linecap:square;stroke-linejoin:miter;stroke-miterlimit:4;stroke-dasharray:none;stroke-dashoffset:0;stroke-opacity:1;stop-color:#000000;stop-opacity:1"
             d="m -394.0473,-3904.9259 1.78155,-1.4081 2.05817,-0.5369 1.52126,-2.3713 -0.40268,-1.0739"
             id="path22069-1-0-8"
             inkscape:connector-curvature="0" />
          <path
             style="font-variation-settings:normal;opacity:1;vector-effect:none;fill:#ffffff;fill-opacity:1;stroke:#000000;stroke-width:0.995561;stroke-linecap:square;stroke-linejoin:miter;stroke-miterlimit:4;stroke-dasharray:none;stroke-dashoffset:0;stroke-opacity:1;stop-color:#000000;stop-opacity:1"
             d="m -386.58341,-3908.7948 -0.85011,1.7896 -0.35794,2.4162 -1.20807,1.2527"
             id="path22071-6-6-8"
             inkscape:connector-curvature="0" />
          <path
             style="fill:#ffffff;stroke:#000000;stroke-width:0.631425;stroke-linecap:butt;stroke-linejoin:miter;stroke-miterlimit:4;stroke-dasharray:none;stroke-opacity:1"
             d="m -392.80265,-3904.9022 1.25278,-0.2685 h 1.74497 l 0.49218,-0.045 0.53691,-0.7159"
             id="path22073-1-0-5"
             inkscape:connector-curvature="0" />
          <path
             style="font-variation-settings:normal;opacity:1;vector-effect:none;fill:#ffffff;fill-opacity:1;stroke:#000000;stroke-width:0.995561;stroke-linecap:square;stroke-linejoin:miter;stroke-miterlimit:4;stroke-dasharray:none;stroke-dashoffset:0;stroke-opacity:1;stop-color:#000000;stop-opacity:1"
             d="m -392.93689,-3901.7255 0.93961,0.8502 h 1.74496"
             id="path22075-0-1-9"
             inkscape:connector-curvature="0" />
          <path
             style="fill:#ffffff;stroke:#000000;stroke-width:0.631425;stroke-linecap:butt;stroke-linejoin:miter;stroke-miterlimit:4;stroke-dasharray:none;stroke-opacity:1"
             d="m -384.99885,-3907.9631 v 0 l -1.0029,2.3897"
             id="path22077-9-5-9"
             inkscape:connector-curvature="0" />
          <path
             style="font-variation-settings:normal;opacity:1;vector-effect:none;fill:#ffffff;fill-opacity:1;stroke:#000000;stroke-width:1.37174;stroke-linecap:square;stroke-linejoin:miter;stroke-miterlimit:4;stroke-dasharray:none;stroke-dashoffset:0;stroke-opacity:1;stop-color:#000000;stop-opacity:1"
             d="m -369.96814,-3909.8375 0.0632,-2.6575 -1.835,-1.7717 1.32879,-2.9741 -2.1505,2.3516 -0.26846,1.2528 0.76063,1.7003 -2.5056,-0.5817 -2.10291,-0.2237 -1.74497,-1.3423 -2.77406,-1.5212 1.78972,1.7001 -0.0448,1.1634 0.85012,1.1185 2.28188,1.7897 2.37138,1.2081 -2.01344,-0.2237 -2.05817,-0.4474 -2.07208,-0.731 -3.83396,-2.8037 2.01342,2.3713 0.3132,1.5213 1.25279,1.2975 -2.59508,-1.3871 -2.32663,-1.2527 2.01343,2.1476 0.67114,2.1924 1.20807,1.745 1.34227,1.208 -1.65548,0.045 -1.83445,0.7606 -1.65549,1.2081 -2.1924,0.4026 -0.89486,-0.3578 1.61075,1.1185 1.78972,-0.045 3.62416,-0.8501 1.71888,-0.1465 1.14466,0.2808 -0.069,1.048 2.57457,-0.69 1.61074,-0.179 -0.26221,-2.105 1.06759,-0.4902 1.52126,-0.2684 0.13422,-1.9686 -0.0447,-1.4766 1.38703,-0.9396 c 0,0 0.9396,-0.358 0.85011,-0.5369 -0.0895,-0.1789 -0.3596,-1.6597 -0.3596,-1.6597 z"
             id="path22057-7-4-1"
             inkscape:connector-curvature="0" />
          <path
             sodipodi:nodetypes="cccccccsccccccccccccccccc"
             inkscape:connector-curvature="0"
             id="path7005-6-1-8-4-2"
             d="m -421.96415,-3933.0423 0.9613,4.5145 -2.8074,5.6928 -1.6377,8.0323 2.4955,2.2614 4.835,-0.1558 2.9633,-1.8718 c 0,0 1.2477,-3.3533 1.2477,-3.6651 0,-0.3119 -0.5459,-7.2525 -0.5459,-7.2525 l 0.3899,-5.3808 -0.3494,-1.9628 -1.1304,2.9155 -1.3746,2.4842 c 0,0 -0.6547,-3.8268 -0.4988,-4.4507 0.156,-0.6237 2.1835,-6.6286 2.1835,-6.6286 l 0.097,-3.6793 -2.336,-2.7585 0.112,3.9162 -1.2478,4.2674 -0.8144,2.9096 -0.2753,-1.0656 -1.618,-1.9141 -1.2585,-1.3248 0.5205,2.6653 z"
             style="opacity:1;vector-effect:none;fill:#ffffff;fill-opacity:1;stroke:#000000;stroke-width:1.98624;stroke-linecap:square;stroke-linejoin:miter;stroke-miterlimit:4;stroke-dasharray:none;stroke-dashoffset:0;stroke-opacity:1" />
        </g>
      </g>
    </g>
  </g>
</svg>
