<?xml version="1.0" encoding="UTF-8" standalone="no"?>
<svg
   xmlns:dc="http://purl.org/dc/elements/1.1/"
   xmlns:cc="http://creativecommons.org/ns#"
   xmlns:rdf="http://www.w3.org/1999/02/22-rdf-syntax-ns#"
   xmlns:svg="http://www.w3.org/2000/svg"
   xmlns="http://www.w3.org/2000/svg"
   xmlns:sodipodi="http://sodipodi.sourceforge.net/DTD/sodipodi-0.dtd"
   xmlns:inkscape="http://www.inkscape.org/namespaces/inkscape"
   width="18.30525mm"
   height="18.284559mm"
   viewBox="0 0 18.30525 18.284559"
   version="1.1"
   id="svg8"
   inkscape:version="1.0.1 (3bc2e813f5, 2020-09-07)"
   sodipodi:docname="isEntangled.svg">
  <defs
     id="defs2" />
  <sodipodi:namedview
     id="base"
     pagecolor="#ffffff"
     bordercolor="#666666"
     borderopacity="1.0"
     inkscape:pageopacity="0.0"
     inkscape:pageshadow="2"
     inkscape:zoom="5.6"
     inkscape:cx="44.787503"
     inkscape:cy="57.291405"
     inkscape:document-units="mm"
     inkscape:current-layer="layer1"
     inkscape:document-rotation="0"
     showgrid="false"
     fit-margin-top="0"
     fit-margin-left="0"
     fit-margin-right="0"
     fit-margin-bottom="0"
     inkscape:window-width="1920"
     inkscape:window-height="1017"
     inkscape:window-x="-8"
     inkscape:window-y="-8"
     inkscape:window-maximized="1" />
  <metadata
     id="metadata5">
    <rdf:RDF>
      <cc:Work
         rdf:about="">
        <dc:format>image/svg+xml</dc:format>
        <dc:type
           rdf:resource="http://purl.org/dc/dcmitype/StillImage" />
        <dc:title></dc:title>
      </cc:Work>
    </rdf:RDF>
  </metadata>
  <g
     inkscape:label="Capa 1"
     inkscape:groupmode="layer"
     id="layer1"
     transform="translate(-171.70885,-112.18321)">
    <path
       style="fill:#009962;fill-opacity:0.89999998;stroke-width:0.0846667"
       d="m 179.87194,130.42001 c -0.0651,-0.0265 0.037,-0.25381 0.28874,-0.64297 0.57686,-0.89173 0.81198,-1.62974 0.82075,-2.57622 0.0116,-1.25626 -0.12117,-1.185 -0.79823,0.42833 -0.52003,1.23916 -0.90375,1.82366 -1.42594,2.17206 -0.30966,0.2066 -0.45407,0.25283 -0.67897,0.2174 -0.32402,-0.0511 -0.44702,-0.14044 -0.27657,-0.20099 0.30466,-0.10822 0.99935,-0.79585 1.28621,-1.27314 0.17615,-0.29308 0.49319,-1.05508 0.70452,-1.69333 0.21134,-0.63825 0.46091,-1.37001 0.55461,-1.62612 0.0937,-0.25612 0.1716,-0.68008 0.17312,-0.94214 0.007,-1.1449 -0.57221,-0.61525 -1.31548,1.20367 -0.82644,2.02245 -1.25293,2.72846 -1.96307,3.24967 -0.60358,0.443 -0.90212,0.52167 -1.25614,0.33101 -0.33891,-0.18251 -0.35905,-0.25016 -0.0943,-0.31662 0.39513,-0.0992 1.24481,-0.73444 1.6176,-1.20942 0.39156,-0.49888 0.83976,-1.32787 0.94252,-1.74328 l 0.0572,-0.23144 -0.39392,0.11855 c -0.47631,0.14335 -0.6009,0.22438 -1.35586,0.88187 -0.70031,0.6099 -1.1949,0.89271 -1.86754,1.06792 -0.48311,0.12583 -0.50202,0.12432 -0.69328,-0.0554 -0.10815,-0.1016 -0.16755,-0.21098 -0.13201,-0.24307 0.0355,-0.0321 0.37636,-0.16058 0.75737,-0.28556 0.38102,-0.12497 0.84274,-0.33586 1.02604,-0.46865 0.30097,-0.21801 0.69421,-0.67046 0.69421,-0.79872 0,-0.0918 -1.04724,-0.0465 -1.727,0.0746 -0.44866,0.08 -0.80819,0.2059 -1.09274,0.38278 -0.44014,0.27361 -0.43965,0.27368 -0.65212,-0.0958 -0.10935,-0.19016 0.22676,-0.54117 0.73236,-0.76481 0.31985,-0.14149 0.67733,-0.18731 1.94422,-0.24922 1.76663,-0.0863 2.19517,-0.19798 2.89321,-0.75377 0.44169,-0.35168 1.17692,-1.23962 1.09459,-1.32195 -0.0268,-0.0268 -0.17716,0.0492 -0.33412,0.16895 -0.32657,0.24909 -0.98487,0.55522 -1.41907,0.65992 -0.16298,0.0393 -0.88688,0.12762 -1.60866,0.19627 -0.72179,0.0687 -1.50284,0.18147 -1.73567,0.25069 -0.48181,0.14326 -1.32498,0.62696 -1.67617,0.96157 -0.19895,0.18956 -0.24954,0.20558 -0.31621,0.10015 -0.13919,-0.22013 -0.0891,-0.39468 0.19321,-0.67351 0.49527,-0.48914 1.46087,-0.88599 3.40784,-1.40061 0.98713,-0.26092 2.00938,-0.59985 2.37066,-0.78602 l 0.254,-0.13088 -0.762,-0.19499 c -1.48556,-0.38014 -1.88345,-0.28867 -3.61504,0.83106 -0.60052,0.38832 -1.20834,0.70418 -1.63186,0.848 -0.3712,0.12606 -0.6867,0.2174 -0.70111,0.20298 -0.0144,-0.0144 -0.0605,-0.14563 -0.10232,-0.29159 -0.0702,-0.24476 -0.0585,-0.26926 0.15078,-0.31534 0.64573,-0.14221 1.12253,-0.35585 1.74284,-0.78092 0.37696,-0.2583 0.93243,-0.61523 1.23437,-0.79317 l 0.54899,-0.32352 h -0.36822 c -0.20253,0 -0.71627,0.0945 -1.14166,0.20997 -0.52598,0.1428 -1.04432,0.21729 -1.6201,0.23284 l -0.84667,0.0229 -0.0255,-0.30449 -0.0255,-0.30449 0.82984,-0.0554 c 0.4564,-0.0305 1.15368,-0.13598 1.5495,-0.23442 0.91477,-0.2275 1.73841,-0.22708 2.90884,10e-4 0.78953,0.15418 0.99559,0.1662 1.46092,0.0852 0.29796,-0.0519 0.55826,-0.12106 0.57845,-0.15373 0.0452,-0.0731 -1.69402,-1.07469 -1.99901,-1.15123 -0.12242,-0.0307 -0.58147,0.0229 -1.03296,0.12076 -1.44108,0.31222 -2.9549,0.20567 -3.79625,-0.26719 -0.29682,-0.16682 -0.32208,-0.20786 -0.27204,-0.44183 0.0303,-0.14186 0.0602,-0.26379 0.0664,-0.27096 0.006,-0.007 0.33512,0.0968 0.73094,0.23103 0.5919,0.20074 0.86247,0.24427 1.524,0.24523 0.73035,10e-4 1.65786,-0.0983 2.06203,-0.22095 0.13768,-0.0418 0.11682,-0.0892 -0.16933,-0.38524 -0.87729,-0.90747 -2.07754,-1.70756 -2.88967,-1.92624 -0.38829,-0.10456 -0.41574,-0.14738 -0.24459,-0.38144 0.10247,-0.14014 0.16413,-0.14582 0.65616,-0.0604 0.7482,0.12985 1.56173,0.56316 2.65973,1.41665 1.59721,1.24154 2.13455,1.54405 2.99593,1.68669 l 0.37126,0.0615 -0.41858,-0.51732 c -0.45495,-0.56227 -1.16597,-1.71209 -1.30458,-2.10969 -0.0802,-0.23014 -0.13339,-0.25615 -0.71539,-0.35004 -0.3458,-0.0558 -0.85076,-0.21237 -1.12212,-0.34797 -0.50659,-0.25315 -1.3294,-0.99514 -1.54009,-1.38882 -0.10825,-0.20226 -0.10178,-0.23769 0.0747,-0.40901 0.1894,-0.18386 0.19514,-0.18431 0.29105,-0.0228 0.23972,0.40363 0.87641,0.99463 1.28901,1.19649 0.2607,0.12755 0.66613,0.23987 0.96304,0.26679 l 0.51278,0.0465 v -0.29273 c 0,-0.78919 -0.4965,-1.62912 -1.24276,-2.10238 l -0.36025,-0.22847 0.21282,-0.097 c 0.30522,-0.13907 0.42144,-0.12272 0.79246,0.1115 0.6312,0.39846 0.89165,0.86873 1.31684,2.37772 0.36377,1.29101 0.60956,1.78332 1.19325,2.39006 0.31768,0.33024 0.47006,0.4326 0.58076,0.39012 0.13614,-0.0523 0.14656,-0.16455 0.11226,-1.20915 -0.0302,-0.91997 -0.0751,-1.24747 -0.22331,-1.62851 -0.34026,-0.87484 -1.27501,-2.01741 -2.28742,-2.79598 l -0.28636,-0.22021 0.30835,-0.10177 c 0.29766,-0.0982 0.32668,-0.0886 0.83669,0.27862 0.29059,0.20922 0.73659,0.59329 0.99112,0.85351 0.25452,0.26021 0.48797,0.47312 0.51877,0.47312 0.0308,0 0.13879,-0.33338 0.23999,-0.74084 0.3737,-1.50468 0.30939,-1.37583 0.68672,-1.37583 0.18448,0 0.33541,0.0131 0.33541,0.0291 0,0.016 -0.0754,0.24838 -0.16767,0.51641 -0.20077,0.58354 -0.4254,1.72372 -0.42398,2.15203 l 0.001,0.30815 0.20398,-0.35675 c 0.1122,-0.19622 0.30571,-0.49012 0.43004,-0.65312 0.24747,-0.32445 1.23818,-1.10174 1.78228,-1.39834 0.31176,-0.16994 0.3704,-0.17676 0.62538,-0.0727 l 0.28136,0.11481 -0.33783,0.22357 c -0.97394,0.64453 -1.96943,1.85061 -2.3275,2.81988 -0.15238,0.41251 -0.18826,0.69103 -0.19087,1.48167 -0.004,1.1504 0.0401,1.32073 0.30408,1.17946 0.28668,-0.15342 0.92142,-0.76656 1.04903,-1.01332 0.0636,-0.12301 0.2536,-0.69648 0.4222,-1.27439 0.48562,-1.66447 0.83459,-2.30308 1.5005,-2.74585 0.35408,-0.23543 0.47181,-0.25252 0.77817,-0.11293 l 0.21283,0.097 -0.36026,0.22846 c -0.74626,0.47327 -1.24276,1.3132 -1.24276,2.10239 v 0.29273 l 0.51278,-0.0465 c 0.29691,-0.0269 0.70234,-0.13924 0.96305,-0.26679 0.42257,-0.20675 1.08628,-0.81686 1.2957,-1.19108 0.0914,-0.16337 0.0967,-0.16351 0.26953,-0.007 0.0969,0.0877 0.17627,0.21006 0.17627,0.27181 0,0.0618 -0.25107,0.37845 -0.55794,0.70374 -0.66816,0.70829 -1.29596,1.05037 -2.19338,1.19514 -0.522,0.0842 -0.64033,0.13278 -0.68453,0.28103 -0.0995,0.33382 -0.81974,1.53102 -1.2434,2.06686 -0.23175,0.29313 -0.39576,0.55857 -0.36446,0.58988 0.0313,0.0313 0.25869,0.054 0.50531,0.0504 0.57265,-0.008 1.18721,-0.32946 2.16773,-1.1329 1.86068,-1.52465 2.46857,-1.90081 3.2896,-2.03558 0.40906,-0.0672 0.49335,-0.0579 0.5839,0.0644 0.16359,0.22083 0.13278,0.26605 -0.25186,0.36962 -0.81213,0.21869 -2.01238,1.01877 -2.88967,1.92625 -0.28614,0.29599 -0.30701,0.34346 -0.16933,0.38523 0.40417,0.12263 1.33168,0.22201 2.06203,0.22096 0.66153,-9.6e-4 0.93211,-0.0445 1.524,-0.24523 0.39582,-0.13424 0.72474,-0.23821 0.73094,-0.23103 0.006,0.007 0.0361,0.1291 0.0664,0.27096 0.05,0.23396 0.0248,0.275 -0.27204,0.44182 -0.84896,0.47714 -2.2993,0.57586 -3.83238,0.26085 l -0.89404,-0.1837 -1.24379,0.60934 c -0.68409,0.33513 -1.2438,0.62607 -1.2438,0.64654 0,0.0205 0.12383,0.10326 0.27517,0.184 0.45356,0.24196 1.44378,0.19416 2.62042,-0.12649 0.54481,-0.14848 1.08531,-0.26995 1.2011,-0.26995 0.11579,0 0.60348,0.0954 1.08375,0.21205 0.48028,0.11663 1.24666,0.23678 1.70307,0.26701 l 0.82983,0.055 -0.0255,0.30449 -0.0255,0.30449 -0.84667,-0.0229 c -0.58128,-0.0157 -1.09431,-0.0901 -1.63673,-0.23737 -0.43808,-0.11894 -0.9473,-0.20279 -1.143,-0.18821 l -0.35294,0.0263 0.29634,0.13683 c 0.16298,0.0753 0.69638,0.43249 1.18533,0.79384 0.9404,0.69499 1.3618,0.9221 1.89222,1.01979 0.30953,0.057 0.32329,0.073 0.27428,0.31802 -0.0284,0.1419 -0.0674,0.27382 -0.0868,0.29317 -0.0605,0.0605 -0.99406,-0.23938 -1.44111,-0.46286 -0.23482,-0.11738 -0.78315,-0.47953 -1.2185,-0.80476 -0.43535,-0.32523 -0.9497,-0.66314 -1.143,-0.75091 -0.46385,-0.21062 -1.0801,-0.19957 -2.11598,0.0379 l -0.8332,0.19104 0.30639,0.26901 c 0.5958,0.52312 1.16514,0.72858 2.97774,1.07458 1.20643,0.23029 2.09644,0.51052 2.76887,0.87179 0.36189,0.19443 0.40122,0.24293 0.35295,0.43524 -0.0299,0.11903 -0.0695,0.23158 -0.088,0.25012 -0.0185,0.0185 -0.27018,-0.0724 -0.55922,-0.20215 -0.6716,-0.3014 -1.10904,-0.41719 -2.56833,-0.67981 -1.48939,-0.26805 -2.32892,-0.53657 -3.32316,-1.0629 -0.43074,-0.22803 -0.78317,-0.39073 -0.78317,-0.36157 0,0.14641 0.98316,1.24227 1.32635,1.47839 0.71256,0.49025 1.07001,0.57525 2.76835,0.65824 1.26934,0.062 1.62686,0.10782 1.9468,0.24935 0.5056,0.22364 0.84171,0.57465 0.73236,0.76481 -0.21247,0.36948 -0.21198,0.36941 -0.65212,0.0958 -0.28455,-0.17688 -0.64408,-0.30282 -1.09274,-0.38278 -0.67976,-0.12113 -1.727,-0.16639 -1.727,-0.0746 0,0.12826 0.39324,0.58071 0.69421,0.79872 0.18331,0.13279 0.64502,0.34368 1.02604,0.46865 0.38101,0.12498 0.72183,0.25348 0.75737,0.28556 0.0355,0.0321 -0.0239,0.14147 -0.132,0.24307 -0.19127,0.17968 -0.21018,0.18119 -0.69329,0.0554 -0.6552,-0.17066 -1.1737,-0.4609 -1.80145,-1.00837 -0.73356,-0.63977 -0.99708,-0.81355 -1.43217,-0.9445 l -0.3837,-0.11547 0.0572,0.23144 c 0.10276,0.41541 0.55097,1.2444 0.94252,1.74328 0.3728,0.47498 1.22247,1.11025 1.6176,1.20942 0.26479,0.0665 0.24465,0.13411 -0.0943,0.31662 -0.35402,0.19066 -0.65256,0.11199 -1.25614,-0.33101 -0.70963,-0.52084 -1.1368,-1.22763 -1.96106,-3.24475 -0.39423,-0.96477 -0.71575,-1.51809 -1.06468,-1.83223 l -0.18746,-0.16879 0.0576,0.42279 c 0.26855,1.97245 0.76318,3.72254 1.30858,4.62998 0.28749,0.47832 0.98202,1.16607 1.28697,1.27439 0.17045,0.0605 0.0474,0.14994 -0.27657,0.20099 -0.58874,0.0928 -1.37827,-0.67935 -1.85841,-1.8174 -0.1319,-0.31264 -0.25423,-0.50591 -0.27571,-0.43559 -0.27699,0.90691 -0.47344,1.42628 -0.76035,2.01024 -0.30016,0.61092 -0.37044,0.69766 -0.56052,0.69182 -0.11953,-0.004 -0.26263,-0.0251 -0.318,-0.0477 z"
       id="path847" />
  </g>
</svg>
