<?xml version="1.0" encoding="UTF-8" standalone="no"?>
<svg
   xmlns:dc="http://purl.org/dc/elements/1.1/"
   xmlns:cc="http://creativecommons.org/ns#"
   xmlns:rdf="http://www.w3.org/1999/02/22-rdf-syntax-ns#"
   xmlns:svg="http://www.w3.org/2000/svg"
   xmlns="http://www.w3.org/2000/svg"
   xmlns:sodipodi="http://sodipodi.sourceforge.net/DTD/sodipodi-0.dtd"
   xmlns:inkscape="http://www.inkscape.org/namespaces/inkscape"
   width="68.763725mm"
   height="65.927025mm"
   viewBox="0 0 68.763725 65.927025"
   version="1.1"
   id="svg8"
   inkscape:version="1.0.1 (3bc2e813f5, 2020-09-07)"
   sodipodi:docname="treasure_mythic.svg">
  <defs
     id="defs2" />
  <sodipodi:namedview
     id="base"
     pagecolor="#ffffff"
     bordercolor="#666666"
     borderopacity="1.0"
     inkscape:pageopacity="0.0"
     inkscape:pageshadow="2"
     inkscape:zoom="1.979899"
     inkscape:cx="123.73742"
     inkscape:cy="130.47219"
     inkscape:document-units="mm"
     inkscape:current-layer="g885"
     showgrid="false"
     fit-margin-top="0"
     fit-margin-left="0"
     fit-margin-right="0"
     fit-margin-bottom="0"
     inkscape:window-width="1920"
     inkscape:window-height="1017"
     inkscape:window-x="-8"
     inkscape:window-y="-8"
     inkscape:window-maximized="1"
     inkscape:document-rotation="0"
     inkscape:snap-global="false" />
  <metadata
     id="metadata5">
    <rdf:RDF>
      <cc:Work
         rdf:about="">
        <dc:format>image/svg+xml</dc:format>
        <dc:type
           rdf:resource="http://purl.org/dc/dcmitype/StillImage" />
        <dc:title></dc:title>
      </cc:Work>
    </rdf:RDF>
  </metadata>
  <g
     inkscape:label="Capa 1"
     inkscape:groupmode="layer"
     id="layer1"
     transform="translate(-60.11219,-74.292457)">
    <g
       id="g885"
       transform="matrix(1.0491803,0,0,1.0491803,-2.6565976,-5.5128257)">
      <path
         style="fill:#ffffff;stroke:#000000;stroke-width:1.5;stroke-linecap:butt;stroke-linejoin:miter;stroke-miterlimit:4;stroke-dasharray:none;stroke-opacity:1"
         d="m 76.622408,88.479852 2.79012,12.705368 0.70256,3.20723 3.3227,4.19943 0.4009,-5.34539 -0.735,-2.6727 -3.60813,-13.630739 z"
         id="path857-1"
         sodipodi:nodetypes="cccccccc" />
      <path
         style="fill:#d40000;stroke:#000000;stroke-width:2;stroke-linecap:butt;stroke-linejoin:miter;stroke-miterlimit:4;stroke-dasharray:none;stroke-opacity:1;fill-opacity:1"
         d="m 78.092388,108.05734 -1.20271,0.53454 -1.60362,-0.73499 -2.93996,1.13589 0.13363,1.60362 1.20272,0.80181 2.13815,0.53454 1.60362,0.53454 1.06908,-0.0668 v 1.73726 l -1.26953,0.20045 -3.14042,1.00225 -1.33635,2.2718 -0.93544,0.20045 0.13363,-0.53454 0.53454,-1.26952 -0.53454,-1.33635 -2.27179,-0.93544 -2.67269,0.33407 -1.46998,0.86863 -1.10289,1.43913 -2.43844,0.9663 -0.26727,1.50339 1.77067,0.96885 3.17382,-0.23386 -0.0334,0.90204 1.57021,1.2027 h 3.14042 l 2.00452,-0.90202 0.30068,-1.1025 1.23612,1.06908 2.3052,0.0668 0.73499,-1.13589 0.0668,-0.90203 h 1.00226 l 1.46999,0.20045 -0.70159,1.23612 -0.50113,1.10249 -4.6104,1.26953 -2.13815,1.60362 0.90203,1.43656 0.80181,0.26728 0.38078,1.37152 3.22736,1.03391 0.33408,1.5368 -0.20045,0.86862 -0.4009,0.53454 0.13363,1.40317 2.13816,1.40316 3.4745,-0.93544 0.60136,-1.60362 0.33409,-0.60136 -0.26727,-1.06907 0.4009,-0.66818 -0.60136,-1.26953 1.87089,-0.0668 0.0668,2.47224 -0.73499,1.60361 1.40316,1.33635 3.14042,0.13365 2.20497,-0.66819 0.86863,-1.00226 3.74177,-0.73498 c 0,0 2.33861,0.8018 2.60588,0.86863 0.26727,0.0668 4.075852,-0.53455 4.075852,-0.53455 l 2.6727,0.33409 2.07133,-0.93545 0.20046,-1.06907 1.33634,-1.40316 -0.26727,-1.00226 -1.06907,-1.06908 1.00226,-0.86863 h 1.06908 l 2.3386,0.73498 2.53906,-0.46772 v -0.73498 h 3.20724 l 1.67043,-1.26954 -0.0668,-1.40316 -1.53681,-1.40317 0.66818,-0.73498 -0.66818,-2.20498 3.14042,-0.13363 1.46998,-0.80182 0.53454,-0.86861 0.20046,-1.26953 -0.26727,-1.87089 -2.33861,-0.46773 -1.60362,-0.66818 -3.0736,0.20046 -1.00226,-0.60135 2.47225,-0.0668 1.06907,-1.33635 -0.4009,-1.60361 -1.40317,-0.73499 -3.20723,0.4009 -1.1359,-1.20271 -1.67043,-0.40091 -3.40769,-0.93544 -3.94222,-1.73725 -5.011302,-1.73725 -3.54132,-1.40317 -1.67043,-0.13363 h -2.73952 l -2.20497,1.87088 -2.87315,2.27179 -3.20723,0.53454 -2.13816,0.33409 -1.13589,1.06908 -0.73499,1.73725 z"
         id="path859-2" />
      <path
         style="fill:#d4aa00;stroke:#000000;stroke-width:1.5;stroke-linecap:butt;stroke-linejoin:miter;stroke-miterlimit:4;stroke-dasharray:none;stroke-opacity:1"
         d="m 73.081088,79.125417 0.60136,1.403165 1.00226,0.267269 1.5368,5.479026 -3.27406,1.135897 -1.00226,-0.935442 -1.00226,0.734991 0.53454,2.071338 1.46998,1.135896 0.66818,-1.135896 0.4009,-0.534541 2.60588,-0.267268 6.21402,-2.00452 1.06908,1.002259 0.73499,-0.267268 0.33409,-1.870887 -0.73499,-1.536801 -1.40317,-0.200451 -0.56795,1.20271 -3.4411,0.734993 -0.93544,-6.548105 0.0668,-0.400902 -0.46772,-1.002263 c 0,0 -1.87089,0.133636 -2.00452,0.133636 -0.13364,0 -1.00226,0.334086 -1.00226,0.334086 z"
         id="path855-5"
         sodipodi:nodetypes="cccccccccccccccccccccccscc" />
      <path
         style="fill:#ffcc00;fill-opacity:1;stroke:#000000;stroke-width:1.5;stroke-linecap:butt;stroke-linejoin:miter;stroke-miterlimit:4;stroke-dasharray:none;stroke-opacity:1"
         d="m 96.133088,96.564754 1.61572,-1.8016 2.834812,-4.535714 0.37798,0.425223 -0.28348,2.504092 0.85044,5.197169 c 0,0 3.26005,1.46466 3.54353,1.41741 0.28348,-0.0473 3.07106,-2.22061 3.07106,-2.22061 l 2.92931,-3.968751 0.47247,0.283491 -0.37797,5.05543 0.94494,2.078856 -3.73252,2.36236 -12.095232,-3.732516 z"
         id="path853-7" />
      <path
         style="fill:#ffcc00;fill-opacity:1;stroke:#000000;stroke-width:1.5;stroke-linecap:butt;stroke-linejoin:miter;stroke-miterlimit:4;stroke-dasharray:none;stroke-opacity:1"
         d="m 94.536018,101.75571 0.18898,-12.142482 0.8977,-0.04725 0.37797,4.630205 2.5041,4.06325 0.80319,-0.18899 4.393972,-4.39397 2.3151,-4.346731 1.46466,-3.212799 0.85045,0.33073 -0.99219,4.015996 -0.61421,5.811384 1.08668,4.157737 2.07887,0.66146 2.59858,-1.511907 4.22296,-4.019851 0.60136,0.400901 -4.14268,6.013567 -3.4745,5.27857 z"
         id="path851-8" />
    </g>
  </g>
</svg>
